<svg xmlns="http://www.w3.org/2000/svg" width="146" height="150" fill="none"><path fill="#000" d="M99.91 64.065a1 1 0 0 0-.83-1.144l-8.89-1.408a1 1 0 1 0-.313 1.975l7.902 1.252-1.252 7.901a1 1 0 0 0 1.976.313l1.408-8.89ZM52.589 98.809 99.51 64.717 98.335 63.1 51.412 97.191l1.176 1.618Zm80.075-20.05a7.429 7.429 0 0 1 .469-2.189c.273-.68.59-1.206.951-1.579l.969.64c-.313.365-.597.84-.852 1.424a5.82 5.82 0 0 0-.429 1.866c-.059.898.036 1.554.286 1.967.261.414.625.636 1.092.667.347.023.624-.073.831-.288.218-.203.386-.48.506-.833.131-.352.247-.747.348-1.186.101-.438.214-.876.339-1.312.124-.425.288-.811.491-1.159a2.5 2.5 0 0 1 .83-.83c.338-.194.776-.273 1.315-.238.515.034.966.208 1.354.522.389.314.678.754.87 1.32.202.578.277 1.269.224 2.071a6.895 6.895 0 0 1-.372 1.816c-.195.6-.438 1.09-.727 1.467l-.988-.624c.315-.4.548-.836.7-1.307.163-.47.26-.945.292-1.424.056-.85-.053-1.488-.325-1.915-.262-.414-.62-.636-1.075-.666-.359-.024-.648.066-.866.268a2.483 2.483 0 0 0-.542.848c-.132.364-.249.76-.349 1.186-.101.438-.219.87-.355 1.293a5.064 5.064 0 0 1-.493 1.177c-.192.36-.456.637-.794.831-.326.208-.747.294-1.262.26-.551-.036-1.019-.223-1.406-.56-.375-.326-.658-.79-.847-1.391-.177-.59-.239-1.297-.185-2.123Zm7.806 12.413c-.181.746-.485 1.364-.913 1.853a3.061 3.061 0 0 1-1.617 1.015c-.663.185-1.437.17-2.323-.044l-5.336-1.294.302-1.242 5.213 1.264c.968.235 1.756.167 2.365-.204.617-.357 1.032-.972 1.245-1.847.158-.653.163-1.257.014-1.812a2.783 2.783 0 0 0-.865-1.395c-.428-.375-.991-.647-1.691-.817l-4.828-1.17.301-1.243 12.98 3.147-.301 1.242-6.315-1.53.531-.131c.594.452 1 1.045 1.217 1.777.23.734.236 1.545.021 2.43Zm-12.962 8.024c.387-.826.92-1.484 1.6-1.975a4.682 4.682 0 0 1 2.274-.825c.841-.07 1.686.093 2.534.489.859.401 1.525.944 2 1.63.474.685.743 1.44.808 2.265.064.824-.1 1.655-.491 2.492-.397.848-.933 1.511-1.608 1.991-.68.49-1.432.768-2.258.832-.83.076-1.675-.087-2.533-.488-.848-.396-1.515-.94-2-1.63a4.498 4.498 0 0 1-.825-2.272c-.059-.836.107-1.672.499-2.51Zm1.027.48c-.29.619-.411 1.232-.363 1.837.059.61.275 1.168.648 1.673.379.522.9.937 1.563 1.247.674.315 1.327.448 1.96.399a3.19 3.19 0 0 0 1.684-.584c.506-.346.902-.823 1.187-1.432.285-.609.398-1.218.339-1.828a3.302 3.302 0 0 0-.624-1.683c-.367-.516-.888-.931-1.563-1.246-.663-.31-1.316-.443-1.959-.4a3.44 3.44 0 0 0-1.708.593 3.545 3.545 0 0 0-1.164 1.424Zm-7.035 9.665c.483-.658 1.069-1.143 1.76-1.456a4.254 4.254 0 0 1 2.258-.309c.808.116 1.629.478 2.461 1.088.833.61 1.421 1.279 1.765 2.007.354.735.486 1.478.395 2.23-.09.752-.38 1.462-.87 2.129-.532.726-1.172 1.254-1.92 1.584a4.258 4.258 0 0 1-2.366.364c-.823-.096-1.616-.425-2.381-.985-.775-.567-1.332-1.228-1.671-1.982a4.398 4.398 0 0 1-.364-2.364c.089-.812.4-1.581.933-2.306Zm.141-5.943 10.441 7.646-.724.987-2.294-1.68-1.451-1.219-1.646-.982-5.082-3.722.756-1.03Zm.827 6.54c-.398.542-.631 1.114-.702 1.717-.06.61.04 1.204.3 1.782.271.585.701 1.093 1.292 1.526.591.432 1.201.686 1.831.76a3.434 3.434 0 0 0 1.791-.25c.564-.241 1.045-.633 1.442-1.175.398-.541.63-1.122.698-1.742a3.437 3.437 0 0 0-.3-1.781c-.268-.568-.697-1.069-1.288-1.501-.591-.433-1.202-.695-1.835-.786a3.446 3.446 0 0 0-1.791.25 3.677 3.677 0 0 0-1.438 1.2Zm-6.405 18.554c-.608.47-1.231.762-1.871.876a3.055 3.055 0 0 1-1.898-.217c-.633-.269-1.228-.764-1.787-1.485l-3.359-4.342 1.011-.782 3.283 4.243c.609.787 1.268 1.227 1.975 1.317.705.107 1.414-.114 2.126-.664.532-.411.913-.879 1.143-1.406a2.774 2.774 0 0 0 .196-1.629c-.1-.56-.37-1.125-.81-1.694l-3.041-3.929 1.012-.782 5.783 7.474-.969.748-1.586-2.05.454.264c.181.724.128 1.44-.159 2.147-.28.717-.781 1.354-1.503 1.911Zm-15.036-1.864c.816-.407 1.643-.592 2.48-.554.833.054 1.598.31 2.295.766.704.467 1.265 1.119 1.683 1.956.424.848.609 1.688.556 2.519a4.54 4.54 0 0 1-.773 2.277c-.462.687-1.106 1.236-1.933 1.649-.837.418-1.669.606-2.496.562a4.375 4.375 0 0 1-2.287-.749c-.698-.456-1.259-1.109-1.683-1.956-.418-.838-.604-1.677-.555-2.52.043-.826.298-1.59.765-2.293.472-.692 1.122-1.244 1.948-1.657Zm.508 1.015c-.612.305-1.087.71-1.426 1.214a3.31 3.31 0 0 0-.531 1.714c-.027.644.123 1.293.451 1.948.333.665.762 1.175 1.288 1.529a3.19 3.19 0 0 0 1.683.589c.612.043 1.219-.086 1.82-.386.601-.3 1.068-.708 1.401-1.222a3.317 3.317 0 0 0 .556-1.706c.032-.633-.119-1.283-.451-1.948-.328-.655-.757-1.164-1.289-1.53a3.445 3.445 0 0 0-1.707-.596 3.546 3.546 0 0 0-1.795.394Zm-8.504 2.541 5.757 8.3-1.187.297-5.277-7.715.542-.136-1.097 9.312-1.065.267-5.329-7.702.541-.136-1.061 9.303-1.135.284 1.174-10.036 1.17-.293 5.08 7.226-.367.092 1.084-8.77 1.17-.293Zm-19.912 2.601c.78.024 1.514.155 2.203.392.689.249 1.226.548 1.611.896l-.607.99c-.374-.3-.858-.567-1.451-.801a5.806 5.806 0 0 0-1.88-.364c-.9-.028-1.552.09-1.956.353-.405.276-.614.648-.629 1.116-.01.347.095.621.317.82.21.21.493.369.85.476.356.119.755.222 1.197.307.441.086.883.184 1.323.293.43.109.82.26 1.175.451.354.203.64.47.858.8.206.331.3.766.284 1.306a2.344 2.344 0 0 1-.475 1.372c-.3.399-.73.704-1.289.915-.571.222-1.258.321-2.062.296a6.946 6.946 0 0 1-1.827-.308c-.607-.175-1.105-.401-1.492-.677l.59-1.008c.41.301.854.519 1.33.653.475.147.953.228 1.433.243.851.026 1.486-.105 1.903-.392.405-.276.614-.641.628-1.097.011-.36-.088-.645-.298-.856a2.479 2.479 0 0 0-.866-.513 10.803 10.803 0 0 0-1.197-.307 15.77 15.77 0 0 1-1.305-.31 5.11 5.11 0 0 1-1.193-.451 2.042 2.042 0 0 1-.859-.765c-.218-.319-.32-.736-.303-1.252.017-.552.188-1.027.512-1.425.312-.386.766-.684 1.36-.894.583-.198 1.288-.285 2.115-.259Zm-12.08 8.222c-.752-.156-1.38-.438-1.883-.849a3.055 3.055 0 0 1-1.07-1.581c-.208-.655-.219-1.429-.034-2.323l1.112-5.376 1.251.259-1.086 5.252c-.202.976-.107 1.761.285 2.357.377.604 1.006.998 1.888 1.18.658.136 1.262.119 1.811-.049.535-.159.99-.463 1.365-.913.361-.44.614-1.013.76-1.718l1.006-4.865 1.252.258-2.705 13.08-1.252-.259 1.316-6.363.149.527a3.396 3.396 0 0 1-1.735 1.278c-.727.254-1.536.289-2.43.105Zm-8.351-12.631c.84.355 1.518.863 2.033 1.523.5.667.802 1.414.908 2.241.102.837-.03 1.687-.395 2.549-.37.873-.888 1.559-1.556 2.059a4.543 4.543 0 0 1-2.234.892c-.823.096-1.66-.036-2.51-.396-.863-.364-1.546-.875-2.05-1.531a4.365 4.365 0 0 1-.915-2.223c-.107-.827.025-1.677.395-2.55.365-.861.883-1.548 1.555-2.058a4.49 4.49 0 0 1 2.242-.909c.834-.091 1.676.043 2.527.403Zm-.442 1.044c-.63-.266-1.247-.364-1.85-.293a3.311 3.311 0 0 0-1.65.71c-.507.398-.903.934-1.189 1.608-.29.685-.398 1.343-.326 1.972.06.625.276 1.179.646 1.661.364.492.856.87 1.475 1.131.619.262 1.232.352 1.84.27a3.313 3.313 0 0 0 1.66-.687c.502-.386.898-.922 1.188-1.608.286-.674.395-1.331.327-1.972a3.438 3.438 0 0 0-.655-1.684 3.54 3.54 0 0 0-1.466-1.108Zm-9.91-6.67c.675.458 1.182 1.026 1.52 1.704.33.688.46 1.436.39 2.244-.086.811-.42 1.643-.999 2.497-.58.854-1.227 1.466-1.943 1.837-.722.38-1.46.539-2.216.476-.755-.062-1.476-.326-2.161-.79-.745-.505-1.296-1.125-1.653-1.86a4.244 4.244 0 0 1-.45-2.349c.066-.824.366-1.629.898-2.413.54-.794 1.18-1.375 1.922-1.742a4.414 4.414 0 0 1 2.351-.45c.815.059 1.596.342 2.34.846Zm5.949-.078-7.27 10.708-1.013-.687 1.598-2.353 1.166-1.493.922-1.679 3.539-5.213 1.058.717Zm-6.512 1.067c-.556-.377-1.137-.589-1.743-.637a3.442 3.442 0 0 0-1.77.365c-.576.292-1.069.74-1.48 1.346-.411.606-.643 1.224-.694 1.856a3.435 3.435 0 0 0 .315 1.779c.262.554.67 1.02 1.227 1.397s1.146.588 1.768.633a3.443 3.443 0 0 0 1.771-.366c.558-.288 1.043-.735 1.454-1.341.411-.605.651-1.226.72-1.861a3.439 3.439 0 0 0-.316-1.779 3.678 3.678 0 0 0-1.252-1.392Zm-18.769-5.705c-.492-.59-.807-1.202-.945-1.837a3.05 3.05 0 0 1 .148-1.902c.246-.642.72-1.255 1.42-1.838l4.22-3.512.819.982-4.123 3.431c-.766.637-1.181 1.31-1.246 2.02-.081.708.166 1.407.742 2.098.43.517.913.88 1.448 1.091a2.784 2.784 0 0 0 1.637.136c.557-.12 1.112-.41 1.665-.87l3.819-3.178.818.981-7.264 6.045-.784-.94 1.993-1.658-.247.463a3.398 3.398 0 0 1-2.154-.081c-.727-.254-1.382-.731-1.966-1.431Zm1.33-15.048c.438.8.653 1.619.647 2.457a4.67 4.67 0 0 1-.68 2.32c-.44.719-1.072 1.303-1.893 1.752-.832.454-1.665.67-2.498.647a4.551 4.551 0 0 1-2.306-.689c-.704-.436-1.278-1.059-1.721-1.87-.45-.821-.668-1.645-.656-2.472a4.373 4.373 0 0 1 .664-2.312c.43-.713 1.061-1.297 1.893-1.752.822-.448 1.654-.664 2.498-.647.828.013 1.602.24 2.322.681.71.446 1.286 1.075 1.73 1.885Zm-.995.544c-.329-.6-.751-1.06-1.268-1.379a3.305 3.305 0 0 0-1.734-.468c-.645-.004-1.288.17-1.93.521-.653.357-1.147.804-1.482 1.343a3.178 3.178 0 0 0-.525 1.702c-.02.613.13 1.214.453 1.803.323.59.748 1.041 1.275 1.355a3.314 3.314 0 0 0 1.727.492c.634.009 1.278-.164 1.93-.521.643-.351 1.137-.799 1.482-1.343a3.435 3.435 0 0 0 .532-1.726c.01-.607-.144-1.2-.46-1.779Zm-2.869-8.373-8.098 6.033-.338-1.177 7.53-5.532.154.536-9.346-.782-.303-1.055 7.515-5.584.154.536-9.336-.747-.323-1.124 10.073.835.333 1.159-7.048 5.319-.104-.363 8.804.787.333 1.159Zm-3.326-19.468a7.43 7.43 0 0 1-.307 2.217c-.222.697-.5 1.246-.833 1.644l-1.013-.568c.285-.386.534-.88.745-1.482.2-.601.296-1.232.291-1.892-.007-.9-.15-1.547-.429-1.94-.29-.395-.67-.59-1.138-.586-.348.003-.617.119-.808.348-.202.218-.35.507-.443.868-.105.36-.192.763-.26 1.208-.07.444-.15.889-.242 1.334-.093.432-.228.83-.405 1.19-.19.362-.445.658-.767.889-.322.218-.754.33-1.294.334a2.345 2.345 0 0 1-1.389-.422c-.41-.285-.731-.702-.964-1.252-.244-.562-.37-1.246-.376-2.05a6.91 6.91 0 0 1 .238-1.837c.152-.614.358-1.12.619-1.517l1.03.55a4.152 4.152 0 0 0-.602 1.355 5.41 5.41 0 0 0-.187 1.441c.007.852.162 1.48.465 1.887.291.393.665.588 1.12.585.36-.003.642-.113.844-.33a2.48 2.48 0 0 0 .48-.886c.104-.373.191-.776.26-1.208.069-.445.155-.884.26-1.316.092-.445.227-.848.404-1.21.166-.373.41-.669.732-.887.31-.23.723-.348 1.239-.352.552-.004 1.033.148 1.443.457.399.297.714.739.947 1.325.22.574.334 1.275.34 2.103ZM8.449 63.804c.127-.758.386-1.396.777-1.915a3.06 3.06 0 0 1 1.54-1.13c.647-.233 1.42-.274 2.32-.124l5.415.903-.21 1.26-5.292-.882c-.982-.164-1.764-.038-2.344.376-.59.4-.96 1.044-1.108 1.932-.111.663-.072 1.265.117 1.808.18.529.5.971.964 1.328.453.344 1.035.574 1.746.693l4.9.817-.211 1.26-13.174-2.196.21-1.26 6.41 1.068-.52.169a3.387 3.387 0 0 1-1.343-1.684c-.282-.716-.347-1.524-.197-2.423Zm12.283-8.832c-.324.853-.807 1.55-1.448 2.089a4.678 4.678 0 0 1-2.206.992c-.834.133-1.688.034-2.564-.298-.886-.336-1.591-.828-2.115-1.476a4.535 4.535 0 0 1-.975-2.198c-.126-.818-.025-1.659.303-2.523.332-.875.817-1.576 1.454-2.105a4.377 4.377 0 0 1 2.19-.998c.822-.138 1.676-.038 2.563.298.875.331 1.58.823 2.116 1.476.528.636.859 1.371.991 2.204.122.83.019 1.676-.31 2.54Zm-1.06-.402c.242-.639.317-1.259.224-1.859a3.306 3.306 0 0 0-.77-1.62c-.417-.492-.968-.867-1.652-1.127-.696-.264-1.357-.348-1.984-.252a3.187 3.187 0 0 0-1.636.708c-.48.383-.838.889-1.077 1.517-.239.628-.306 1.245-.202 1.849.093.6.343 1.143.748 1.63.405.488.956.864 1.651 1.127.685.26 1.346.344 1.984.252a3.444 3.444 0 0 0 1.66-.718c.468-.387.819-.89 1.053-1.507Zm6.285-10.177c-.433.692-.982 1.218-1.648 1.58a4.253 4.253 0 0 1-2.23.474c-.814-.056-1.659-.358-2.534-.905-.875-.548-1.51-1.172-1.907-1.872-.407-.708-.592-1.44-.557-2.196.035-.757.272-1.486.712-2.187.478-.763 1.077-1.336 1.8-1.72a4.256 4.256 0 0 1 2.332-.536c.827.036 1.643.305 2.446.808.814.509 1.418 1.127 1.812 1.855.394.727.573 1.504.536 2.33-.03.817-.284 1.606-.762 2.369Zm.295 5.938-10.973-6.863.65-1.037 2.411 1.508 1.536 1.109 1.713.859 5.341 3.34-.678 1.084Zm-1.304-6.463c.357-.57.548-1.157.574-1.764a3.437 3.437 0 0 0-.43-1.755c-.312-.563-.778-1.04-1.4-1.427-.62-.388-1.247-.597-1.88-.625a3.446 3.446 0 0 0-1.768.38c-.545.283-.996.708-1.353 1.278a3.565 3.565 0 0 0-.568 1.788 3.437 3.437 0 0 0 .43 1.755c.308.547.773 1.015 1.393 1.403.621.388 1.25.605 1.887.65a3.443 3.443 0 0 0 1.768-.381c.541-.299.99-.733 1.347-1.302Zm5.019-19.004c.572-.512 1.172-.849 1.802-1.01a3.06 3.06 0 0 1 1.908.079c.651.222 1.281.673 1.89 1.351l3.667 4.086-.952.853-3.582-3.992c-.665-.741-1.354-1.132-2.066-1.17-.711-.056-1.402.216-2.072.817-.5.448-.847.943-1.038 1.485a2.774 2.774 0 0 0-.076 1.64c.14.55.45 1.094.93 1.63l3.319 3.697-.952.853-6.312-7.033.912-.817 1.731 1.93-.472-.23a3.387 3.387 0 0 1 .003-2.154c.227-.735.68-1.406 1.36-2.015Zm14.999.813c-.784.466-1.595.712-2.433.735a4.68 4.68 0 0 1-2.345-.594c-.736-.414-1.343-1.023-1.823-1.827-.485-.814-.732-1.638-.74-2.47a4.532 4.532 0 0 1 .603-2.329c.41-.718 1.012-1.314 1.806-1.786.804-.48 1.62-.727 2.448-.745a4.378 4.378 0 0 1 2.336.579c.73.403 1.337 1.012 1.823 1.826.48.804.726 1.628.74 2.471a4.494 4.494 0 0 1-.594 2.344c-.42.725-1.027 1.323-1.821 1.796Zm-.58-.974c.587-.35 1.03-.789 1.33-1.316.295-.538.43-1.121.404-1.749-.02-.644-.218-1.28-.593-1.909-.381-.639-.847-1.116-1.398-1.43a3.19 3.19 0 0 0-1.722-.463c-.613.002-1.209.175-1.786.519-.577.344-1.013.785-1.307 1.323a3.304 3.304 0 0 0-.428 1.742c.014.633.212 1.27.593 1.909.375.628.841 1.105 1.398 1.43.55.315 1.133.47 1.746.469a3.545 3.545 0 0 0 1.762-.525Zm8.221-3.204-6.339-7.865 1.163-.382 5.818 7.316-.53.175.424-9.366 1.043-.343 5.87 7.3-.531.173.39-9.354 1.111-.365-.45 10.094-1.145.376-5.586-6.842.359-.118-.45 8.825-1.147.376Zm19.545-4.12a7.431 7.431 0 0 1-2.225-.23c-.705-.198-1.263-.457-1.673-.776l.533-1.031c.396.271.898.502 1.507.693a5.835 5.835 0 0 0 1.9.225c.9-.038 1.542-.203 1.926-.496.383-.304.565-.69.545-1.158-.015-.348-.14-.613-.376-.795-.225-.194-.519-.332-.883-.413a9.514 9.514 0 0 0-1.216-.218 25.94 25.94 0 0 1-1.341-.196 5.139 5.139 0 0 1-1.205-.363 2.497 2.497 0 0 1-.914-.736c-.23-.314-.356-.741-.379-1.281-.022-.515.103-.983.373-1.403s.676-.755 1.218-1.007c.554-.263 1.232-.412 2.035-.446a6.91 6.91 0 0 1 1.845.174c.618.13 1.13.318 1.538.565l-.514 1.049a4.153 4.153 0 0 0-1.375-.554 5.41 5.41 0 0 0-1.447-.137c-.851.036-1.474.212-1.87.53-.383.304-.565.684-.545 1.14.015.36.135.637.36.831.236.194.536.344.901.448.376.092.782.165 1.216.219.447.053.888.124 1.325.214.447.077.855.198 1.222.363.379.152.683.385.913.7.24.302.372.71.394 1.226.024.551-.112 1.038-.406 1.458-.283.409-.714.74-1.291.992-.567.24-1.263.378-2.09.413Zm11.656-9.12c.762.1 1.409.336 1.94.708.546.363.94.862 1.183 1.5.254.638.322 1.41.203 2.314l-.718 5.443-1.267-.167.701-5.318c.13-.988-.021-1.764-.455-2.33-.42-.575-1.077-.922-1.97-1.04-.665-.087-1.266-.027-1.802.18a2.78 2.78 0 0 0-1.295 1.01c-.328.466-.539 1.055-.633 1.77l-.65 4.924-1.266-.166 1.746-13.242 1.267.167-.85 6.442-.186-.514a3.392 3.392 0 0 1 1.637-1.4c.706-.307 1.511-.4 2.416-.282Zm9.436 11.998c-.863-.294-1.575-.753-2.136-1.375a4.67 4.67 0 0 1-1.065-2.17c-.161-.828-.09-1.685.212-2.571.307-.897.775-1.618 1.405-2.164a4.541 4.541 0 0 1 2.166-1.05c.813-.153 1.657-.081 2.532.217.885.302 1.603.762 2.153 1.38a4.37 4.37 0 0 1 1.071 2.154c.165.817.094 1.674-.212 2.57-.303.887-.771 1.608-1.405 2.165a4.504 4.504 0 0 1-2.172 1.067c-.824.15-1.674.075-2.549-.223Zm.367-1.073c.648.22 1.27.274 1.866.16.6-.124 1.132-.4 1.595-.825.477-.433.835-.996 1.071-1.688.24-.704.303-1.368.186-1.991a3.182 3.182 0 0 0-.763-1.61c-.399-.466-.916-.807-1.552-1.024-.636-.217-1.255-.263-1.855-.138a3.31 3.31 0 0 0-1.606.803c-.474.421-.83.984-1.071 1.688-.237.693-.299 1.357-.186 1.99.117.624.375 1.168.774 1.634.403.454.916.788 1.541 1Zm10.124 5.777c-.707-.407-1.254-.937-1.64-1.588a4.248 4.248 0 0 1-.555-2.21c.027-.814.298-1.67.813-2.563.516-.894 1.117-1.552 1.803-1.974.693-.432 1.418-.645 2.176-.638.757.007 1.495.217 2.213.63.78.448 1.375 1.026 1.785 1.733.426.702.633 1.472.621 2.31-.006.827-.245 1.651-.719 2.472-.479.832-1.075 1.458-1.789 1.878a4.41 4.41 0 0 1-2.311.622c-.818 0-1.616-.224-2.397-.672Zm-5.927.514 6.464-11.212 1.061.61-1.421 2.464-1.053 1.575-.797 1.742-3.146 5.458-1.108-.637Zm6.416-1.542c.582.335 1.177.505 1.785.508a3.445 3.445 0 0 0 1.739-.494c.552-.333 1.011-.817 1.377-1.451.365-.634.551-1.268.556-1.902a3.437 3.437 0 0 0-.445-1.751c-.302-.534-.744-.968-1.326-1.304a3.573 3.573 0 0 0-1.81-.5 3.445 3.445 0 0 0-1.739.494c-.536.328-.987.81-1.352 1.444-.366.634-.559 1.27-.581 1.908a3.437 3.437 0 0 0 .445 1.752c.318.529.768.961 1.351 1.296Zm19.286 4.356c.534.553.892 1.14 1.076 1.763a3.053 3.053 0 0 1-.009 1.908c-.199.658-.626 1.304-1.283 1.936l-3.954 3.81-.887-.92 3.862-3.722c.718-.69 1.083-1.392 1.096-2.105.03-.712-.268-1.392-.893-2.039-.467-.484-.974-.81-1.523-.982a2.783 2.783 0 0 0-1.643-.017c-.546.16-1.078.49-1.597.989l-3.578 3.447-.887-.92 6.805-6.556.85.88-1.866 1.799.212-.48a3.396 3.396 0 0 1 2.154-.075c.743.2 1.432.628 2.065 1.284Zm-.046 15.325c-.492-.767-.765-1.569-.817-2.405a4.676 4.676 0 0 1 .516-2.362c.39-.748.978-1.375 1.767-1.88.798-.511 1.613-.784 2.446-.82a4.545 4.545 0 0 1 2.349.527c.732.385 1.348.967 1.847 1.744.506.788.782 1.595.827 2.42a4.367 4.367 0 0 1-.501 2.353c-.379.742-.968 1.368-1.766 1.88-.788.505-1.603.778-2.447.82a4.504 4.504 0 0 1-2.363-.517c-.739-.395-1.358-.982-1.858-1.76Zm.955-.611c.37.575.823 1.004 1.361 1.286a3.316 3.316 0 0 0 1.763.346c.643-.041 1.273-.26 1.889-.655.627-.401 1.088-.882 1.384-1.442.303-.55.438-1.129.405-1.735-.023-.613-.215-1.202-.578-1.767-.363-.566-.819-.987-1.367-1.263a3.312 3.312 0 0 0-1.757-.37c-.633.035-1.263.253-1.889.655-.617.395-1.078.876-1.384 1.443a3.445 3.445 0 0 0-.411 1.76 3.55 3.55 0 0 0 .584 1.741Zm3.446 8.107 7.645-6.596.422 1.149-7.115 6.057-.192-.524 9.378.11.379 1.032-7.096 6.107-.193-.524 9.366.077.403 1.099-10.107-.112-.416-1.133 6.65-5.81.13.355-8.839-.155-.415-1.132Z"/></svg>