<svg aria-hidden="true" style="width:0;height:0;position:absolute;overflow:hidden" xmlns="http://www.w3.org/2000/svg"><defs><symbol id="icon-thank-you" viewBox="0 0 42 32"><path fill="#f58b3d" d="M38.92 25.599c.539 3.691-12.54 6.099-23.798 4.419S-1.301 21.776 4.072 18.28c5.372-3.496 34.309 3.628 34.849 7.319z" opacity=".255" style="fill:var(--color1,#f58b3d)"/><path fill="#f58b3d" d="M22.74 10.218c.204-.142.519-.052.724.032.079.032.281.136.43.253a4.835 4.835 0 0 1-.053-.245 8.417 8.417 0 0 1-.128-1.025c-.005-.089.002-.189.009-.29l.007-.103a.057.057 0 0 1-.016-.034l-.002.015-.002.01c-.001.001-.003-.002-.007-.008a.03.03 0 0 0-.005-.007c-.151-.207-.279-.441-.296-.698-.015-.218.181-.63.458-.344.124.127.092 1.022-.094 1.077.05.296.112.592.191.884a.138.138 0 0 1 .035-.001 2.28 2.28 0 0 1 .002-.179c.028-.235.242-.711.583-.619.262.071.101.364.012.492-.144.206-.306.296-.512.403-.004.044-.035.07-.072.079.138.472.319.932.556 1.367l.006-.028c.03-.132.065-.286.087-.318.116-.169.373-.376.61-.276.498.21-.042.815-.466.881a.184.184 0 0 1-.056.05c.082.131.17.26.264.385.141.188.293.376.452.563.005-.146.068-.471.086-.506.109-.212.422-.431.676-.28.286.17.027.491-.136.637-.067.06-.397.278-.514.279.384.44.808.872 1.24 1.289a6.868 6.868 0 0 1-.077-.757c.027-.294.238-.765.654-.65.404.111.225.6.087.833a1.263 1.263 0 0 1-.339.383c-.025.018-.058.032-.091.047a.4.4 0 0 0-.105.058c-.023.021-.03.044-.037.067a.122.122 0 0 1-.041.07c.233.224.468.444.699.657.109.101.22.2.332.297.061-.023.149.007.144.087a.094.094 0 0 1-.007.031l.257.216a.492.492 0 0 1 .003-.09c-.062.081-.06-.037-.058-.127a.565.565 0 0 0-.001-.075c-.009-.058-.021-.115-.033-.172-.025-.122-.05-.243-.049-.369.003-.267.187-.715.576-.556.357.146.227.542.093.79a2.241 2.241 0 0 1-.324.431 1.068 1.068 0 0 0-.07.089c-.036.048-.07.095-.096.112.332.272.672.537 1.011.801l.455.356c.007-.026.012-.052.017-.076-.009.01-.022.014-.039.013l-.019-.079c-.093-.39-.378-1.58.393-1.349.565.169.166 1.205-.255 1.567.256.202.509.407.757.618.179.153.353.311.52.474-.087-.211-.168-.485-.114-.702.078-.317.443-.616.799-.436.444.226.102.534-.218.823-.163.148-.322.29-.367.414.531.535.985 1.13 1.288 1.807.33.736.636 1.726.466 2.55.031-.362-.102-.817-.196-1.137a10.709 10.709 0 0 1-.036-.122 6.16 6.16 0 0 0-.605-1.429c-.423-.723-.981-1.336-1.626-1.893-.147.047-.306.134-.439.205-.081.044-.152.083-.203.103-.247.097-.72.237-.878-.07-.155-.302.24-.471.484-.539a1.28 1.28 0 0 1 .67-.004 46.077 46.077 0 0 0-1.041-.814l-.193-.148a3.138 3.138 0 0 0-.291.266c-.331.325-.723.71-1.073.396-.528-.475.482-.958.912-.92a.873.873 0 0 1 .154.029c-.439-.341-.871-.69-1.28-1.062-.073.012-.19.111-.33.23-.315.267-.749.634-1.076.345-.236-.209-.155-.534.073-.72s.561-.186.843-.124c.122.027.234.079.339.142l.013.001c-.402-.371-.807-.75-1.196-1.142l-.021.006a.111.111 0 0 1-.099.03l-.061.019c-.309.098-.705.223-1.013.169-.226-.04-.432-.208-.24-.416.156-.169.579-.145.785-.105.101.02.21.076.32.133.046.024.093.048.138.069a.093.093 0 0 1 .056-.043 14.877 14.877 0 0 1-1.085-1.227c-.101.014-.213.055-.328.097-.277.101-.575.209-.789-.024-.316-.344.278-.544.56-.511a1.3 1.3 0 0 1 .28.068 4.339 4.339 0 0 1-.557-1.117l-.004.002-.006.003.005-.003a.008.008 0 0 1 .004-.002l-.037-.118a.503.503 0 0 0-.052-.023c.128.081-.413.121-.514.128-.224.016-.524.023-.688-.146-.138-.141-.13-.35.039-.468zm10.305 11.888a.906.906 0 0 1-.077.319c.033-.103.058-.209.077-.319z" style="fill:var(--color1,#f58b3d)"/><path fill="#f1f447" d="M12.577 2.591c-.149-.103-.379-.037-.529.024a1.546 1.546 0 0 0-.314.183c.014-.058.027-.117.039-.177.046-.244.078-.494.094-.741.004-.065-.001-.137-.006-.21l-.005-.074a.045.045 0 0 0 .012-.025.05.05 0 0 1 .001.011l.001.007.005-.006a.018.018 0 0 1 .004-.005c.111-.15.204-.319.216-.504.011-.157-.132-.455-.334-.249-.091.092-.067.739.069.779a6.531 6.531 0 0 1-.14.64c-.009-.001-.017-.002-.026 0a1.67 1.67 0 0 0-.001-.13c-.02-.17-.177-.514-.426-.447-.191.052-.074.263-.009.356.105.149.223.214.373.291.003.032.026.051.053.057a4.963 4.963 0 0 1-.406.988l-.005-.02c-.022-.095-.047-.207-.064-.23-.085-.122-.272-.271-.445-.199-.363.152.031.589.34.637a.124.124 0 0 0 .041.036c-.06.095-.124.188-.193.278a8.532 8.532 0 0 1-.33.407 2.003 2.003 0 0 0-.062-.366c-.079-.153-.308-.311-.493-.202-.209.123-.02.355.099.46.049.043.29.201.375.202a15.87 15.87 0 0 1-.906.933c.026-.135.06-.506.057-.548-.019-.213-.174-.553-.477-.47-.295.08-.165.434-.064.603a.91.91 0 0 0 .248.277c.018.013.042.023.066.034.029.013.058.025.077.042.017.015.022.032.027.049s.011.035.03.05c-.17.162-.342.321-.511.476-.08.073-.161.144-.243.215-.045-.017-.109.005-.105.063 0 .008.003.016.005.022l-.188.156a.385.385 0 0 0-.002-.065c.045.058.043-.027.042-.092 0-.023-.001-.043.001-.054a2.47 2.47 0 0 1 .024-.124c.018-.088.037-.176.036-.267-.002-.193-.137-.517-.42-.402-.261.106-.166.392-.068.571.062.114.147.215.236.312a.754.754 0 0 1 .051.064.413.413 0 0 0 .07.081c-.242.197-.49.388-.739.58l-.333.258a.691.691 0 0 1-.012-.055c.007.007.016.01.028.01l.013-.057c.068-.282.277-1.143-.286-.976-.413.123-.122.871.186 1.133-.187.146-.372.295-.553.447a7.3 7.3 0 0 0-.38.343c.063-.153.123-.351.084-.508-.057-.229-.323-.445-.583-.315-.324.163-.075.386.159.595.119.107.235.21.268.299-.388.387-.72.817-.941 1.307-.241.533-.465 1.248-.342 1.844-.023-.262.075-.591.144-.822l.026-.089c.103-.358.25-.707.443-1.033.309-.523.717-.967 1.188-1.37.107.034.224.097.32.148.059.032.111.06.148.074.18.07.526.171.641-.051.113-.218-.175-.341-.354-.389a.954.954 0 0 0-.489-.003c.249-.201.505-.395.76-.589l.141-.107c.065.048.136.118.213.192.241.235.527.513.783.286.386-.344-.351-.692-.666-.665a.584.584 0 0 0-.112.021c.321-.247.636-.499.935-.769.054.009.139.08.241.166.23.193.547.458.785.249.172-.151.114-.386-.053-.521s-.409-.135-.615-.089a.845.845 0 0 0-.248.103h-.009c.294-.268.589-.542.874-.826l.015.004c.017.019.046.026.072.022l.044.014c.225.07.515.161.74.122.165-.029.315-.151.176-.301-.114-.122-.422-.104-.573-.075-.073.014-.153.055-.234.096-.034.017-.068.035-.101.05a.067.067 0 0 0-.041-.031c.281-.285.549-.58.793-.887.074.01.155.04.239.07.203.073.42.151.576-.018.23-.249-.203-.393-.409-.37a.895.895 0 0 0-.204.05c.177-.253.312-.524.407-.808l.003.001.004.002-.004-.002-.003-.002c.009-.028.019-.057.027-.086l.038-.017c-.094.059.301.087.375.092.163.012.382.016.502-.105.101-.102.095-.253-.028-.338zm-7.536 8.576c.007.08.029.152.071.212a1.124 1.124 0 0 1-.071-.212z" opacity=".2" style="fill:var(--color2,#f1f447)"/><path fill="#b45661" d="M28.63 16.63c.801-.038 1.792.39 1.878 1.187.062.579.043 1.156.139 1.735.077.462.239.906.461 1.326.213.405.655.749.77 1.182.073.276.032.663-.069.933-.123.328-.058.302.187.577.48.539.912 1.091 1.218 1.735.44.927.729 2.01.565 3.025-.021.129-.045.591-.239.623-.217.036-.115-.228-.104-.314.074-.545.139-1.021.05-1.575-.343-2.136-2.017-3.543-3.108-5.355-.06-.093-.186-.316-.275-.463-.139-.232-.279-.673-.467-.845-.354-.324-.029.327.04.451.087.157.183.324.273.462.409.639.866 1.336 1.288 1.994-1.827.381-3.114-1.629-3.604-2.95-.404-1.089-.887-3.634.995-3.727z" opacity=".49" style="fill:var(--color3,#b45661)"/><path fill="#e7502f" d="M39.369 14.608c-1.339.097-2.199.906-2.599 2.037-.216.609-.24 1.236-.36 1.862-.18.942-.568 1.657-1.327 2.328a2.36 2.36 0 0 0-.531.65 2.776 2.776 0 0 0-.613.802c-.199.403-.256.886-.026 1.288.062.108.217.325.377.423-.6 1.168-.929 2.448-.892 3.726.023.771.064 1.543.112 2.314.013.207.087.549.197.201.101-.317-.026-.816-.038-1.147-.057-1.615-.106-3.084.621-4.593.076-.158.157-.315.241-.471l.014-.009.009.007.021-.031a.435.435 0 0 0 .065-.084c.064-.082.137-.178.138-.23v-.001c.45-.672.965-1.307 1.492-1.929-.004.005.571-.712.482-.316-.043.191-.466.554-.636.756-.378.45-.821 1.02-1.19 1.571-.05.026-.12.154-.17.25-.028.048-.054.097-.08.14 1.306.395 2.322-.401 3.015-1.326l.002-.003c.211-.256.427-.509.697-.712.45-.337.932-.397 1.463-.563 1.447-.453 2.063-2.169 2.258-3.443.221-1.437-.858-3.64-2.742-3.498z" opacity=".49" style="fill:var(--color4,#e7502f)"/><path fill="#e7502f" d="M36.723 10.585c-1.375 1.309-2.039 3.125-2.565 4.832-.587 1.907-.975 3.842-.99 5.825-.01 1.302-.048 2.613.035 3.913.029.462.08.925.16 1.382.007.038.186 1.058.357.82.097-.135-.184-1.059-.205-1.212-.119-.866-.147-1.739-.141-2.611.01-1.436-.037-2.866.122-4.297.024-.214.042-.438.098-.647.059-.222-.016-.125.176-.213.186-.086.417-.073.61-.181.767-.426 1.16-1.519 1.465-2.236.349-.82.562-1.695.731-2.559.125-.634.214-1.265.264-1.907.016-.203.017-.414.06-.613.012-.054.071-.149.068-.196-.005-.101-.071-.16-.076-.244a3.93 3.93 0 0 0-.169.146zm-7.496 17.441c0 2.165 1.918 3.92 4.284 3.92s4.284-1.755 4.284-3.92z" opacity=".49" style="fill:var(--color4,#e7502f)"/><path fill="#b45661" d="M36.448 24.594c1.06-.071 2.244.711 2.756 1.526.412.657.343 1.519.088 2.217-.17.467-.543 1.133-1.163 1.139-.777.008-.814-.87-.829-1.383-.02-.682-.114-1.277-.702-1.742-.073-.057-.149-.111-.225-.165-.068-.048-.135-.095-.2-.146l-.031-.024c-.208-.16-.426-.328-.453-.591-.038-.382.197-.451.557-.38.012.002.043.013.086.028.184.064.576.2.501.037-.028-.061-.13-.11-.259-.146-.333-.033-.73-.072-.844-.049-1.232.247-1.712 1.809-1.839 2.801a8.795 8.795 0 0 0-.035.322h-.226c.016-.26.037-.519.084-.776.182-.983.749-2.426 1.995-2.586.046-.006.215-.007.42.004a.806.806 0 0 1 .32-.087z" opacity=".49" style="fill:var(--color3,#b45661)"/><path fill="#b45661" d="M10.46 9.471c.247-.322.704-1.139 1.051-1.254.224-.074.158.692.161.838.011.565-.049 1.127-.124 1.687-.134 1.011-.571 1.911-1.171 2.771-.309.443-.671.891-1.172 1.167-.231.127-.509.148-.737.258-.266.128-.121.024-.241.278-.166.351-.219.805-.296 1.18-.353 1.722-1.208 10.823-1.06 12.574a.118.118 0 0 1-.235.003c-.063-1.005.48-7.963.754-10.238s.551-4.286.829-5.073c.337-.955.947-2.104 1.454-2.994.236-.414.492-.813.785-1.196z" opacity=".25" style="fill:var(--color3,#b45661)"/><path fill="#f1f447" d="M12.29 20.631c.642-.431 1.336.382.756.814-.321.238-.657.154-.846-.045-.123.137-.237.28-.348.401-.336.368-.654.745-.957 1.131-.631.801-1.171 1.648-1.736 2.479a52.452 52.452 0 0 0-1.616 2.486c-.428.713-.999 1.551-1.146 2.332.222-1.657 1.066-3.249 2.072-4.71.997-1.449 2.141-3.031 3.685-4.174-.157-.211-.161-.513.137-.713z" opacity=".25" style="fill:var(--color2,#f1f447)"/><path fill="#b45661" d="M.112 16.591c.359.064.946.807 1.242 1.091.352.337.671.695.972 1.071a17.929 17.929 0 0 1 1.72 2.566 22.643 22.643 0 0 1 1.913 4.556c.286.975.471 1.985.58 2.988.021.189.237 1.648-.075 1.687-.281.035-.194-1.108-.208-1.263-.153-1.754-.612-3.461-1.251-5.114-.139-.36-.268-.801-.491-1.125-.16-.233-.001-.152-.283-.24-.242-.076-.517-.057-.764-.15-.538-.202-.968-.593-1.345-.987-.733-.766-1.314-1.594-1.617-2.575-.168-.544-.322-1.091-.408-1.652-.022-.145-.216-.894.015-.852z" opacity=".25" style="fill:var(--color3,#b45661)"/><path fill="#e7502f" d="M1.53 4.223c1.353 2.146 2.464 4.504 3.182 6.893.435 1.447.739 2.932 1.041 4.406.468 2.282.91 4.565 1.036 6.888.127 2.336.377 5.031-.459 7.282.418-2.285.02-4.717-.05-7.016a38.184 38.184 0 0 0-.259-3.275c-.124-1.058-.327-2.112-.516-3.162-.092-.511-.189-1.022-.287-1.532-.029-.152-.042-.604-.147-.708s-.648-.147-.819-.224a4.388 4.388 0 0 1-.95-.607c-.547-.445-1.023-1.027-1.398-1.6C1.035 10.241.688 8.622.705 7.085c.003-.298.528-3.511.317-3.555a.672.672 0 0 0 .036-.042c.159.244.316.49.471.737z" opacity=".25" style="fill:var(--color4,#e7502f)"/><path fill="#e7502f" d="M16.13 11.965c.021-.028.157-.219.088-.207.139-.025-.192.211.156.066-.165.142-.07.327-.067.519.003.311-.053.62-.117.924a5.944 5.944 0 0 1-.471 1.397 6.402 6.402 0 0 1-2.248 2.524c-.475.301-.94.404-1.481.542-.342.088-.369.249-.551.553a32.287 32.287 0 0 0-1.082 1.916c-.398.78-.784 1.562-1.149 2.356-1.228 2.675-2.227 5.447-2.751 8.316-.013-1.69.415-3.432.954-5.043.393-1.174.904-2.306 1.449-3.426.132-.272.332-.62.389-.92.039-.21-.081-.412-.136-.633-.214-.861-.199-1.826-.011-2.692.208-.955.808-1.398 1.824-1.533.371-.049.844-.031 1.184-.176.371-.158.524-.676.735-1.009a13.918 13.918 0 0 1 2.013-2.506c.214-.209.444-.401.689-.58.154-.113.48-.251.584-.39z" opacity=".25" style="fill:var(--color4,#e7502f)"/><path fill="#f1f447" d="M4.451 29.354c-.026-.162.111-.308.29-.308h3.605c.179 0 .316.146.29.308l-.279 1.728c-.085.527-.579.917-1.161.917H5.891c-.582 0-1.076-.39-1.161-.917l-.279-1.728z" opacity=".25" style="fill:var(--color2,#f1f447)"/><path fill="#f58b3d" d="M1.492 29.93c0 1.143.099 2.07 1.422 2.07s1.422-.927 1.422-2.07z" style="fill:var(--color1,#f58b3d)"/><path fill="#f58b3d" d="M3.307 29.217a2.258 2.258 0 0 0-.13.234 2.988 2.988 0 0 1 .036-.496c.046-.286.117-.571.183-.855.048-.204.045-.571.225-.734.05-.035.061.034.061.064.001.006 0-.122-.048-.1-.286.135-.378.56-.47.772-.134.31-.247.628-.294.951a2.023 2.023 0 0 0-.02.244l-.029-.065a4.385 4.385 0 0 0-.665-1.018c-.068-.078-.928-.852-.995-.734a.087.087 0 0 0 .042.043c.001.001.001 0 .001-.001.05.075.194.19.239.255.113.164.2.339.289.51.188.362.362.727.531 1.094.039.085.08.17.122.255-.431-.569-1.006-1.085-1.797-1.38.27.126.447.362.63.544.22.219.452.431.673.649.26.258.566.529.816.814.242.466.478.932.623 1.421-.06-.169-.005-.403-.015-.58a3.53 3.53 0 0 0-.051-.421.794.794 0 0 1 .069.185 9.438 9.438 0 0 0-.037-.294c.035-.091.069-.176.092-.246.118-.359.258-.712.449-1.057.177-.318.379-.633.6-.938l.311-.425c.068-.093.132-.241.227-.33-.611.511-1.278 1.026-1.666 1.639zM40.356 5.894c-.175-.534-.586-.953-1.013-1.336-.831-.746-1.277-1.207-1.574-2.299-.174-.642-.351-1.322-.904-1.788-.402-.339-1.094-.624-1.632-.381-.827.452-1.05 1.379-.966 2.209.103 1.029.629 1.664 1.638 2.043.569.213.947.495 1.255.986.247.392.391.884.701 1.24.464.532 1.044.768 1.76.68-.67-1.128-1.453-2.267-2.398-3.217-.088-.095-.61-.461-.505-.624.116-.179.651.494.647.49.274.288.528.595.778.904l-.002.001c.257.317.512.639.761.965.101.138.199.278.294.421.138.21.358.806.584.936a.37.37 0 0 0 .135.049c.154.231.304.464.447.7.373.616.693 1.266.84 1.961.043.203.013.962.164 1.108.277.268.196-.248.179-.404-.138-1.289-.644-2.388-1.378-3.472.226-.27.258-.956.187-1.173zm-9.478.623c.292-.315.993-.368 1.422-.347.531.026 1.076.144 1.581.287.832.235 1.64.665 2.373 1.081.088.05 1.176.649 1.08.754s-1.163-.607-1.401-.729c-.508-.261-.973-.571-1.533-.744a5.95 5.95 0 0 0-1.802-.245c-.078.001-.333-.049-.339.057-.005.104.417.05.491.05.307.003.617.029.92.078a4.572 4.572 0 0 1 1.588.558c-.136.289-.461.422-.802.35-.295-.062-.583-.216-.871-.261a1.438 1.438 0 0 0-.591.039c-.509.135-.802.412-1.362.22-.439-.151-1.172-.694-.753-1.146zm-1.255-5.068c-.648-.043-1.371.43-1.684.922-.252.397-.21.918-.054 1.34.104.282.332.685.711.689.474.005.497-.526.506-.836.012-.413.07-.772.429-1.053.044-.035.091-.067.137-.1.041-.029.083-.058.122-.088l.019-.015c.127-.097.26-.198.277-.357.023-.231-.12-.272-.34-.229-.007.001-.026.008-.053.017-.112.038-.352.121-.306.022.017-.037.079-.066.158-.088.204-.02.446-.043.516-.029.753.149 1.046 1.093 1.124 1.693.009.068.016.136.022.204h.138c-.01-.16-.022-.32-.052-.479-.111-.594-.458-1.466-1.219-1.563a2.175 2.175 0 0 0-.256.002.496.496 0 0 0-.196-.052z" style="fill:var(--color1,#f58b3d)"/></symbol><symbol id="icon-error-icon" viewBox="0 0 32 32"><path d="M0 16C0 7.162 7.162 0 16 0s16 7.162 16 16c0 8.837-7.163 16-16 16S0 24.837 0 16zm10.938-2.994 2.944 2.938-2.944 2.994c-.581.588-.581 1.538 0 2.069.588.637 1.537.637 2.069 0l2.938-2.888 2.994 2.888c.588.637 1.538.637 2.069 0 .637-.531.637-1.481 0-2.069l-2.888-2.994 2.888-2.938c.637-.531.637-1.481 0-2.069-.531-.581-1.481-.581-2.069 0l-2.994 2.944-2.938-2.944c-.531-.581-1.481-.581-2.069 0-.581.588-.581 1.537 0 2.069z"/></symbol><symbol id="icon-correct-icon" viewBox="0 0 32 32"><path d="M0 16C0 7.162 7.162 0 16 0s16 7.162 16 16c0 8.837-7.163 16-16 16S0 24.837 0 16zm23.237-2.762c.681-.681.681-1.794 0-2.475s-1.794-.681-2.475 0l-6.763 6.762-2.763-2.762c-.681-.681-1.794-.681-2.475 0s-.681 1.794 0 2.475l4 4a1.755 1.755 0 0 0 2.475 0l8-8z"/></symbol><symbol id="icon-tel-icon" viewBox="0 0 32 32"><path d="m26.332 6.267-3.347-3.344a2.16 2.16 0 0 0-3.068 0l-3.605 3.598a2.167 2.167 0 0 0 0 3.074l2.816 2.819a12.745 12.745 0 0 1-2.715 4 12.75 12.75 0 0 1-3.998 2.721l-2.816-2.819a2.164 2.164 0 0 0-3.068-.001l-3.608 3.598a2.166 2.166 0 0 0-.638 1.537c0 .581.226 1.125.638 1.537l3.344 3.344a3.762 3.762 0 0 0 2.646 1.097c.204 0 .402-.016.603-.05 4.161-.685 8.291-2.9 11.625-6.232 3.331-3.337 5.544-7.466 6.235-11.63a3.743 3.743 0 0 0-1.047-3.249zM25.15 9.143c-.613 3.705-2.605 7.401-5.607 10.402s-6.694 4.993-10.4 5.606a1.477 1.477 0 0 1-1.282-.415l-3.284-3.284 3.482-3.485 3.793 3.799.679-.251a15.128 15.128 0 0 0 8.979-8.982l.251-.679-3.797-3.793 3.482-3.485L24.73 7.86c.339.339.497.817.418 1.282z"/></symbol><symbol id="icon-hero-button" viewBox="0 0 32 32"><path d="M11.079 18.921a.193.193 0 1 0 .205.327l-.204-.327zm10.098-5.922a.193.193 0 0 0-.144-.231l-1.69-.39a.193.193 0 0 0-.087.375l1.503.347-.347 1.503a.193.193 0 0 0 .375.087l.39-1.69zm-9.894 6.249 9.809-6.129-.204-.327-9.809 6.129.204.327zM28.663 17.119c.009-.15.038-.291.087-.422a.955.955 0 0 1 .181-.306l.188.122a1.08 1.08 0 0 0-.162.276 1.137 1.137 0 0 0-.08.36c-.01.173.009.299.058.379a.26.26 0 0 0 .212.127.193.193 0 0 0 .16-.057.37.37 0 0 0 .096-.161c.025-.068.047-.144.065-.229s.04-.169.063-.254a.958.958 0 0 1 .093-.224.48.48 0 0 1 .159-.161.444.444 0 0 1 .253-.048c.099.006.187.039.262.099s.132.144.169.253c.04.111.056.244.046.399-.007.118-.03.235-.069.351a.952.952 0 0 1-.138.284l-.191-.119a.82.82 0 0 0 .133-.253c.031-.091.049-.183.054-.275.009-.164-.012-.287-.066-.369a.256.256 0 0 0-.208-.127.213.213 0 0 0-.166.053.475.475 0 0 0-.103.164c-.025.07-.047.147-.066.229a2.964 2.964 0 0 1-.067.25c-.024.084-.055.16-.093.227a.397.397 0 0 1-.395.214.447.447 0 0 1-.272-.106.565.565 0 0 1-.165-.267 1.17 1.17 0 0 1-.039-.409zM30.209 19.497a.83.83 0 0 1-.166.362.591.591 0 0 1-.306.204.886.886 0 0 1-.448.003l-1.035-.222.052-.241 1.011.217c.188.04.339.023.455-.051.117-.072.194-.193.23-.362a.694.694 0 0 0-.007-.349.534.534 0 0 0-.174-.264.752.752 0 0 0-.33-.149l-.936-.201.052-.241 2.517.54-.052.241-1.225-.263.102-.028a.653.653 0 0 1 .244.336c.048.14.054.297.017.469zM27.766 21.145a.957.957 0 0 1 .289-.395.898.898 0 0 1 .922-.109c.169.069.302.168.4.295s.157.27.177.429a.957.957 0 0 1-.071.485.941.941 0 0 1-.291.398.84.84 0 0 1-.427.181.935.935 0 0 1-.492-.071.95.95 0 0 1-.4-.295.86.86 0 0 1-.18-.43.977.977 0 0 1 .072-.488zm.203.083a.707.707 0 0 0-.053.357.641.641 0 0 0 .14.316.769.769 0 0 0 .312.226c.133.054.26.074.381.059a.616.616 0 0 0 .319-.128c.094-.071.166-.167.215-.287a.67.67 0 0 0-.088-.673.76.76 0 0 0-.312-.226.762.762 0 0 0-.381-.059.663.663 0 0 0-.323.13.678.678 0 0 0-.21.285zM26.715 23.19a.848.848 0 0 1 .319-.303.824.824 0 0 1 .43-.09c.157.011.32.07.488.176s.29.227.366.362c.078.137.113.278.106.424s-.053.286-.139.421a.914.914 0 0 1-.348.33.825.825 0 0 1-.45.102.965.965 0 0 1-.471-.158c-.157-.099-.272-.218-.348-.359s-.109-.291-.102-.45a.915.915 0 0 1 .148-.456zm-.053-1.145 2.11 1.331-.126.2-.464-.293-.295-.215-.33-.167-1.027-.648.132-.208zm.247 1.247a.7.7 0 0 0-.112.34.67.67 0 0 0 .082.339c.06.109.149.201.269.276s.24.116.362.122a.662.662 0 0 0 .602-.317.69.69 0 0 0 .111-.344.67.67 0 0 0-.082-.339c-.059-.106-.148-.196-.268-.272s-.24-.117-.363-.127a.662.662 0 0 0-.341.072.714.714 0 0 0-.26.25zM25.988 26.966a.83.83 0 0 1-.342.205.594.594 0 0 1-.368-.004.892.892 0 0 1-.372-.25l-.729-.767.178-.17.712.749c.132.139.267.21.404.214.137.007.269-.05.395-.169a.689.689 0 0 0 .191-.292.535.535 0 0 0 .006-.317.765.765 0 0 0-.188-.309l-.66-.694.178-.17 1.255 1.32-.171.163-.344-.362.092.041a.655.655 0 0 1 .012.415.865.865 0 0 1-.251.396zM23.062 26.937a.956.956 0 0 1 .461-.166.9.9 0 0 1 .826.425c.101.152.157.308.167.469s-.021.312-.093.454a.955.955 0 0 1-.33.362.961.961 0 0 1-.464.168.848.848 0 0 1-.455-.088.944.944 0 0 1-.369-.334.953.953 0 0 1-.167-.469.866.866 0 0 1 .091-.457.97.97 0 0 1 .333-.364zm.121.182a.686.686 0 0 0-.243.267.641.641 0 0 0-.06.341c.01.124.055.244.133.362.08.119.174.206.283.262a.62.62 0 0 0 .336.072c.118-.006.231-.046.339-.118s.187-.161.239-.268c.052-.105.074-.218.065-.34s-.053-.242-.133-.362a.765.765 0 0 0-.283-.262.67.67 0 0 0-.341-.073.676.676 0 0 0-.334.119zM21.597 27.832l1.332 1.42-.218.09-1.224-1.322.099-.041.054 1.807-.195.081-1.234-1.318.099-.041.06 1.804-.208.086-.059-1.947.215-.089 1.172 1.235-.067.028-.041-1.703.215-.089zM17.898 28.942c.149-.022.293-.022.431-.001a.937.937 0 0 1 .336.115l-.082.209a1.106 1.106 0 0 0-.672-.108c-.172.025-.291.07-.359.134a.257.257 0 0 0-.081.233c.01.067.039.115.088.145a.376.376 0 0 0 .177.061c.072.01.151.016.238.018s.174.005.261.011a.94.94 0 0 1 .238.046.473.473 0 0 1 .19.123c.05.056.083.135.098.238.015.098 0 .19-.043.276s-.115.158-.213.217a.994.994 0 0 1-.381.126 1.332 1.332 0 0 1-.357.003.937.937 0 0 1-.306-.078l.078-.211a1.008 1.008 0 0 0 .555.076c.163-.024.278-.07.348-.139a.257.257 0 0 0 .082-.23.212.212 0 0 0-.086-.152.49.49 0 0 0-.182-.068 2.156 2.156 0 0 0-.238-.018 2.75 2.75 0 0 1-.258-.015 1.01 1.01 0 0 1-.242-.045.393.393 0 0 1-.289-.343.443.443 0 0 1 .049-.288.569.569 0 0 1 .228-.216c.104-.057.235-.098.393-.121zM15.845 30.938a.826.826 0 0 1-.388-.09.59.59 0 0 1-.262-.259.888.888 0 0 1-.094-.438l.008-1.058.246.002-.008 1.034c-.001.192.046.337.142.435.094.1.228.151.401.152a.703.703 0 0 0 .341-.077.537.537 0 0 0 .224-.224.751.751 0 0 0 .079-.353l.007-.958.246.002-.02 2.574-.246-.002.01-1.252.048.094a.649.649 0 0 1-.28.306.875.875 0 0 1-.455.111zM13.76 28.885a.965.965 0 0 1 .446.201.902.902 0 0 1 .298.88c-.033.18-.102.331-.206.453s-.232.209-.383.262a.953.953 0 0 1-.489.031.968.968 0 0 1-.45-.202.845.845 0 0 1-.266-.38.934.934 0 0 1-.033-.496.95.95 0 0 1 .206-.453.865.865 0 0 1 .384-.265.966.966 0 0 1 .492-.03zm-.04.215a.698.698 0 0 0-.36.022.632.632 0 0 0-.28.203.755.755 0 0 0-.156.353.748.748 0 0 0 .021.385c.038.115.101.21.191.285.089.077.198.128.325.151s.247.014.358-.026c.111-.039.205-.105.283-.199s.13-.211.156-.352a.773.773 0 0 0-.021-.385.673.673 0 0 0-.194-.29.687.687 0 0 0-.322-.147zM11.543 28.277a.868.868 0 0 1 .363.249.816.816 0 0 1 .176.402c.021.156-.003.327-.072.514s-.162.331-.279.433c-.118.104-.249.168-.393.191s-.291.007-.441-.049a.913.913 0 0 1-.395-.272.809.809 0 0 1-.192-.419.972.972 0 0 1 .057-.493c.064-.174.158-.312.28-.414s.262-.167.419-.192a.921.921 0 0 1 .477.051zm1.11-.288-.868 2.339-.221-.082.191-.514.149-.333.095-.357.422-1.139.231.086zm-1.169.499a.698.698 0 0 0-.355-.04.668.668 0 0 0-.315.15c-.094.081-.166.188-.215.32s-.064.259-.045.38a.656.656 0 0 0 .435.524.69.69 0 0 0 .36.037.668.668 0 0 0 .315-.15c.091-.08.161-.186.21-.318s.065-.259.049-.381a.656.656 0 0 0-.141-.319.71.71 0 0 0-.298-.203zM7.697 28.335a.82.82 0 0 1-.27-.293.59.59 0 0 1-.07-.361.879.879 0 0 1 .17-.414l.604-.869.202.141-.59.849c-.109.158-.152.304-.128.439.021.136.103.253.246.352a.687.687 0 0 0 .325.128.532.532 0 0 0 .311-.059.766.766 0 0 0 .265-.247l.546-.787.202.141-1.039 1.496-.194-.135.285-.41-.022.099a.654.654 0 0 1-.404.095.874.874 0 0 1-.439-.165zM7.135 25.469c.125.123.21.263.256.418a.898.898 0 0 1 .003.466.95.95 0 0 1-.252.429c-.128.13-.27.216-.425.258s-.31.042-.464.001a.94.94 0 0 1-.421-.25.947.947 0 0 1-.258-.42.85.85 0 0 1-.006-.464.942.942 0 0 1 .252-.429.95.95 0 0 1 .425-.258.858.858 0 0 1 .466-.003.966.966 0 0 1 .424.252zm-.153.155a.637.637 0 0 0-.657-.174.755.755 0 0 0-.327.204.746.746 0 0 0-.199.33.61.61 0 0 0-.002.344c.03.114.092.217.184.308a.662.662 0 0 0 .657.174.739.739 0 0 0 .327-.204.773.773 0 0 0 .199-.33.656.656 0 0 0 .002-.349.678.678 0 0 0-.184-.303zM5.965 24.224l-1.116 1.595-.133-.195 1.043-1.469.061.089-1.757.424-.119-.175 1.037-1.478.061.089-1.753.43-.127-.186 1.894-.458.131.192-.967 1.401-.041-.06 1.659-.39.131.192zM4.116 20.836c.052.141.082.281.09.422a.95.95 0 0 1-.043.353l-.221-.037a1.106 1.106 0 0 0-.033-.679c-.06-.163-.129-.27-.205-.323a.257.257 0 0 0-.245-.031.19.19 0 0 0-.123.116.382.382 0 0 0-.023.186c.005.072.015.151.032.236s.031.171.044.258a.987.987 0 0 1 .005.242.477.477 0 0 1-.081.211.441.441 0 0 1-.212.145c-.093.035-.186.04-.279.015s-.179-.079-.257-.164a1.01 1.01 0 0 1-.203-.347 1.352 1.352 0 0 1-.078-.349.95.95 0 0 1 .012-.316l.223.032a.786.786 0 0 0-.02.285c.008.096.029.187.061.274.057.154.126.258.208.312a.258.258 0 0 0 .242.033.214.214 0 0 0 .131-.115.48.48 0 0 0 .029-.192 1.924 1.924 0 0 0-.032-.236 2.775 2.775 0 0 1-.039-.256 1.024 1.024 0 0 1-.006-.246.391.391 0 0 1 .276-.354.445.445 0 0 1 .292-.012.575.575 0 0 1 .259.178c.078.09.144.209.2.359zM1.749 19.281a.83.83 0 0 1 .008-.398.588.588 0 0 1 .199-.309.895.895 0 0 1 .409-.182l1.037-.21.049.241-1.013.205c-.188.038-.32.114-.396.229-.079.113-.101.254-.066.424a.69.69 0 0 0 .146.317.533.533 0 0 0 .265.173.756.756 0 0 0 .362.005l.939-.19.049.242-2.523.511-.049-.242 1.228-.249-.082.066a.657.657 0 0 1-.358-.211.869.869 0 0 1-.203-.423zM3.326 16.821a.952.952 0 0 1-.105.478.89.89 0 0 1-.321.338.942.942 0 0 1-.479.134c-.183.005-.344-.031-.485-.108s-.253-.184-.335-.321a.954.954 0 0 1-.131-.472.953.953 0 0 1 .105-.482.846.846 0 0 1 .317-.338.938.938 0 0 1 .479-.134.95.95 0 0 1 .485.108.862.862 0 0 1 .338.321.973.973 0 0 1 .131.476zm-.218.006a.706.706 0 0 0-.096-.348.64.64 0 0 0-.256-.233.76.76 0 0 0-.377-.08.751.751 0 0 0-.372.1.617.617 0 0 0-.24.246c-.057.103-.084.22-.081.349a.663.663 0 0 0 .353.58.75.75 0 0 0 .377.08.763.763 0 0 0 .372-.1.655.655 0 0 0 .243-.25.678.678 0 0 0 .077-.346zM3.46 14.509a.853.853 0 0 1-.169.407.825.825 0 0 1-.357.256c-.148.053-.321.065-.517.036s-.357-.09-.482-.183c-.127-.093-.216-.208-.268-.345s-.067-.283-.044-.441a.91.91 0 0 1 .185-.443.82.82 0 0 1 .37-.275.953.953 0 0 1 .494-.046c.183.027.338.089.463.187s.218.221.275.37a.916.916 0 0 1 .049.477zm.512 1.026-2.468-.363.034-.233.542.08.357.077.369.019 1.201.177-.036.244zm-.731-1.041a.693.693 0 0 0-.035-.356.666.666 0 0 0-.212-.277c-.099-.075-.218-.123-.358-.144s-.266-.009-.381.035a.665.665 0 0 0-.423.534.69.69 0 0 0 .038.36.666.666 0 0 0 .212.277c.097.073.215.119.355.14s.267.01.383-.031a.669.669 0 0 0 .283-.204.717.717 0 0 0 .137-.334zM2.613 10.728a.842.842 0 0 1 .231-.324.59.59 0 0 1 .339-.143.878.878 0 0 1 .441.081l.975.412-.096.227-.952-.403c-.177-.075-.329-.086-.456-.035-.129.049-.227.153-.294.313a.703.703 0 0 0-.059.344c.01.107.05.205.121.292.07.085.168.154.296.208l.882.373-.096.227-1.678-.71.092-.217.46.195-.101-.001a.65.65 0 0 1-.176-.376.86.86 0 0 1 .072-.463zM5.302 9.592a.959.959 0 0 1-.357.335.9.9 0 0 1-.927-.062c-.153-.099-.267-.22-.339-.364s-.104-.295-.095-.454a.94.94 0 0 1 .159-.463.955.955 0 0 1 .359-.338.846.846 0 0 1 .453-.1.936.936 0 0 1 .471.16.941.941 0 0 1 .339.364.871.871 0 0 1 .098.456.966.966 0 0 1-.161.466zm-.183-.119a.688.688 0 0 0 .117-.341.638.638 0 0 0-.08-.337.752.752 0 0 0-.266-.279.755.755 0 0 0-.364-.128.617.617 0 0 0-.337.067c-.106.053-.194.134-.264.242s-.108.222-.113.34c-.007.117.018.229.075.338s.145.201.266.279c.119.077.24.119.364.128a.676.676 0 0 0 .342-.068.685.685 0 0 0 .259-.241zM6.277 8.194l-1.788-.77.164-.17 1.65.723-.075.077-.771-1.635.147-.152 1.657.716-.075.077-.776-1.63.157-.162.832 1.761-.161.167-1.568-.663.051-.052.718 1.545-.161.167zM9.187 5.707c-.127.08-.259.139-.394.175a.947.947 0 0 1-.354.031l-.01-.224a1.086 1.086 0 0 0 .658-.174c.147-.093.238-.182.274-.267a.258.258 0 0 0-.02-.246.193.193 0 0 0-.139-.097.373.373 0 0 0-.187.016c-.07.019-.145.046-.224.08s-.161.066-.243.096a.993.993 0 0 1-.236.055.48.48 0 0 1-.223-.035.44.44 0 0 1-.186-.178c-.053-.084-.077-.174-.072-.27s.041-.191.107-.285a1.01 1.01 0 0 1 .297-.27c.1-.063.208-.112.325-.148a.943.943 0 0 1 .311-.053l.015.225a.792.792 0 0 0-.283.039 1.018 1.018 0 0 0-.255.116c-.139.088-.226.177-.262.268a.254.254 0 0 0 .018.243.214.214 0 0 0 .14.105c.058.01.123.006.194-.011a1.96 1.96 0 0 0 .224-.08c.08-.034.16-.064.242-.091a.997.997 0 0 1 .239-.057.4.4 0 0 1 .404.197c.057.09.081.184.072.283a.568.568 0 0 1-.121.29 1.17 1.17 0 0 1-.31.269zM10.256 3.046a.826.826 0 0 1 .391-.074c.126.006.241.05.344.131.105.08.193.201.263.363l.42.972-.226.098-.41-.949c-.076-.176-.178-.29-.306-.34-.127-.054-.269-.046-.429.023a.704.704 0 0 0-.281.208.531.531 0 0 0-.114.295.756.756 0 0 0 .07.355l.38.879-.226.098-1.021-2.364.226-.098.497 1.15-.082-.067a.66.66 0 0 1 .132-.394.863.863 0 0 1 .372-.285zM12.951 4.092a.967.967 0 0 1-.49-.004.906.906 0 0 1-.627-.685c-.042-.178-.04-.344.006-.497s.128-.285.245-.394a.944.944 0 0 1 .435-.225.945.945 0 0 1 .493.004.837.837 0 0 1 .396.241.934.934 0 0 1 .23.441.95.95 0 0 1-.006.497.867.867 0 0 1-.244.397.966.966 0 0 1-.438.226zM12.9 3.88a.704.704 0 0 0 .321-.166.643.643 0 0 0 .175-.299.76.76 0 0 0 .001-.385.755.755 0 0 0-.175-.344.62.62 0 0 0-.29-.184c-.113-.035-.232-.037-.358-.007s-.232.086-.317.168c-.086.08-.145.179-.179.296s-.034.246-.001.385a.765.765 0 0 0 .175.344.66.66 0 0 0 .294.187.684.684 0 0 0 .354.005zM15.192 3.749a.85.85 0 0 1-.433-.081.814.814 0 0 1-.324-.296c-.082-.134-.13-.3-.142-.499s.014-.368.08-.509c.065-.143.159-.254.282-.334s.264-.124.423-.134a.91.91 0 0 1 .471.089.828.828 0 0 1 .346.305.96.96 0 0 1 .147.474c.011.185-.018.349-.088.492s-.172.259-.305.346a.906.906 0 0 1-.457.146zm-.898.712-.154-2.49.236-.015.034.547-.002.365.057.365.075 1.212-.246.015zm.867-.929a.691.691 0 0 0 .341-.108.655.655 0 0 0 .227-.264c.053-.112.076-.239.067-.38s-.046-.263-.113-.365a.658.658 0 0 0-.61-.303.655.655 0 0 0-.571.376c-.051.11-.072.235-.064.376s.045.264.11.369a.658.658 0 0 0 .258.234.712.712 0 0 0 .355.065zM18.801 2.137a.828.828 0 0 1 .365.159.587.587 0 0 1 .21.302.888.888 0 0 1 .012.448l-.202 1.039-.242-.047.198-1.015c.037-.188.017-.34-.06-.454-.074-.116-.196-.19-.367-.223a.701.701 0 0 0-.349.013.531.531 0 0 0-.261.179.759.759 0 0 0-.143.333l-.183.94-.242-.047.348-1.788.232.045-.096.49-.02-.099a.653.653 0 0 1 .331-.25.87.87 0 0 1 .468-.026zM20.456 4.527a.964.964 0 0 1-.402-.28.896.896 0 0 1-.13-.92c.065-.171.161-.306.286-.407s.267-.163.424-.186a.941.941 0 0 1 .486.06.967.967 0 0 1 .405.282.843.843 0 0 1 .191.423.934.934 0 0 1-.06.494.96.96 0 0 1-.286.407.87.87 0 0 1-.426.19.972.972 0 0 1-.489-.061zm.079-.204a.704.704 0 0 0 .358.045.643.643 0 0 0 .313-.147.767.767 0 0 0 .219-.318.753.753 0 0 0 .05-.382.62.62 0 0 0-.135-.316c-.073-.093-.171-.162-.292-.209a.66.66 0 0 0-.671.103.75.75 0 0 0-.218.318.758.758 0 0 0-.05.382.663.663 0 0 0 .137.32c.074.09.171.158.29.204zM22.066 5.214l.391-1.907.2.126-.374 1.762-.091-.057 1.445-1.086.179.113-.365 1.768-.091-.057 1.439-1.09.191.12-1.556 1.172-.197-.124.332-1.67.062.039-1.368 1.016-.197-.124zM25.095 7.565a1.424 1.424 0 0 1-.251-.351.962.962 0 0 1-.102-.34l.217-.055a1.113 1.113 0 0 0 .303.609c.12.125.226.196.318.214a.261.261 0 0 0 .237-.069.197.197 0 0 0 .067-.156.384.384 0 0 0-.053-.18c-.033-.064-.075-.132-.124-.203s-.097-.144-.143-.219a1.005 1.005 0 0 1-.101-.22.482.482 0 0 1-.011-.226.441.441 0 0 1 .136-.218c.072-.069.155-.111.25-.125s.195.001.301.047a.992.992 0 0 1 .324.237c.082.085.152.181.211.288.06.106.099.204.115.294l-.217.06a.78.78 0 0 0-.096-.269 1.042 1.042 0 0 0-.165-.226c-.114-.118-.219-.186-.315-.202a.255.255 0 0 0-.234.067.212.212 0 0 0-.074.158.466.466 0 0 0 .051.187c.035.066.076.134.124.203.05.071.096.144.138.218a.971.971 0 0 1 .104.223.39.39 0 0 1-.11.435.448.448 0 0 1-.263.128.565.565 0 0 1-.308-.06 1.164 1.164 0 0 1-.327-.249zM27.897 8.046a.834.834 0 0 1 .153.368.583.583 0 0 1-.058.363.875.875 0 0 1-.301.331l-.865.61-.142-.201.845-.596c.157-.111.247-.234.27-.369.027-.135-.01-.273-.11-.415a.704.704 0 0 0-.261-.232.534.534 0 0 0-.312-.051.747.747 0 0 0-.333.142L26 8.548l-.142-.201 2.104-1.484.142.201-1.024.722.049-.094a.656.656 0 0 1 .413.049c.136.06.254.162.355.305zM27.442 10.925a.958.958 0 0 1-.096-.48.903.903 0 0 1 .541-.755c.165-.078.328-.11.488-.096s.305.067.436.159c.13.092.233.218.31.38.077.163.11.324.098.483a.842.842 0 0 1-.154.437.945.945 0 0 1-.384.316.952.952 0 0 1-.488.096.871.871 0 0 1-.439-.157.97.97 0 0 1-.311-.383zm.198-.093a.692.692 0 0 0 .228.28.643.643 0 0 0 .328.11.76.76 0 0 0 .377-.078.75.75 0 0 0 .301-.242.66.66 0 0 0 .053-.674.672.672 0 0 0-.23-.275c-.096-.067-.205-.105-.327-.114s-.248.017-.377.078a.75.75 0 0 0-.3.242.661.661 0 0 0-.122.326.685.685 0 0 0 .068.348zM28.235 13.05a.844.844 0 0 1-.009-.44.826.826 0 0 1 .223-.378c.114-.108.267-.189.459-.241s.363-.062.515-.026c.153.035.282.104.384.207s.176.232.218.386a.923.923 0 0 1 .01.48.822.822 0 0 1-.228.401.966.966 0 0 1-.434.242c-.178.049-.345.054-.5.015s-.288-.115-.401-.228a.917.917 0 0 1-.237-.417zm-.882-.733 2.406-.662.062.227-.529.145-.358.073-.345.131-1.171.322-.065-.238zm1.088.658a.687.687 0 0 0 .176.312.669.669 0 0 0 .305.168c.121.029.249.025.385-.012s.248-.099.334-.185a.66.66 0 0 0 .172-.658.679.679 0 0 0-.18-.314.669.669 0 0 0-.305-.168c-.118-.028-.245-.023-.381.015s-.249.098-.338.183a.66.66 0 0 0-.177.3.715.715 0 0 0 .009.361z"/></symbol><symbol id="icon-arrow-right" viewBox="0 0 32 32"><path d="m21.674 14.79 1.203.818L0 15.609v.64l22.733-.001-1.133.651.319.555 2.608-1.498-2.493-1.695-.36.529z"/></symbol><symbol id="icon-arrow-left" viewBox="0 0 32 32"><path d="m10.533 17.384-1.203-.818 22.876-.001v-.64l-22.733.001 1.133-.651-.319-.555-2.608 1.498 2.493 1.695.36-.529z"/></symbol><symbol id="icon-close-button" viewBox="0 0 32 32"><path d="M16 13.738 4.686 2.424 2.424 4.686 13.738 16 2.424 27.314l2.262 2.262L16 18.262l11.314 11.314 2.262-2.262L18.262 16 29.576 4.686l-2.262-2.262L16 13.738z"/></symbol><symbol id="icon-burger-icon" viewBox="0 0 32 32"><path d="M4 5.333h24V8H4V5.333zm8 9.334h16v2.667H12v-2.667zM4 24h24v2.667H4V24z"/></symbol><symbol id="icon-facebook" viewBox="0 0 32 32"><path stroke-width="2.286" stroke-linecap="round" stroke-linejoin="round" d="M24 2.667h-4a6.67 6.67 0 0 0-6.667 6.667v4h-4v5.333h4v10.667h5.333V18.667h4l1.333-5.333h-5.333v-4A1.333 1.333 0 0 1 19.999 8h4V2.667z"/></symbol><symbol id="icon-instagram" viewBox="0 0 32 32"><path d="M31.969 9.408c-.075-1.7-.35-2.869-.744-3.882a7.806 7.806 0 0 0-1.851-2.838A7.867 7.867 0 0 0 26.542.844C25.523.45 24.36.175 22.66.1 20.947.019 20.403 0 16.059 0s-4.888.019-6.595.094c-1.7.075-2.869.35-3.882.744a7.803 7.803 0 0 0-2.838 1.85A7.867 7.867 0 0 0 .9 5.52C.506 6.539.231 7.702.156 9.402c-.081 1.713-.1 2.257-.1 6.601s.019 4.888.094 6.595c.075 1.7.35 2.869.744 3.882a7.895 7.895 0 0 0 1.85 2.838 7.867 7.867 0 0 0 2.832 1.844c1.019.394 2.182.669 3.882.744 1.706.075 2.25.094 6.595.094s4.888-.019 6.595-.094c1.7-.075 2.869-.35 3.882-.744a8.184 8.184 0 0 0 4.682-4.682c.394-1.019.669-2.182.744-3.882.075-1.707.094-2.251.094-6.595s-.006-4.888-.081-6.595zm-2.882 13.065c-.069 1.563-.331 2.407-.55 2.969a5.31 5.31 0 0 1-3.038 3.038c-.563.219-1.413.481-2.969.55-1.688.075-2.194.094-6.464.094s-4.782-.019-6.464-.094c-1.563-.069-2.407-.331-2.969-.55a4.926 4.926 0 0 1-1.838-1.194 4.974 4.974 0 0 1-1.194-1.838c-.219-.563-.481-1.413-.55-2.969-.075-1.688-.094-2.194-.094-6.464s.019-4.782.094-6.464c.069-1.563.331-2.407.55-2.969a4.868 4.868 0 0 1 1.2-1.838A4.974 4.974 0 0 1 6.639 3.55c.563-.219 1.413-.481 2.969-.55 1.688-.075 2.194-.094 6.464-.094 4.276 0 4.782.019 6.464.094 1.563.069 2.407.331 2.969.55a4.914 4.914 0 0 1 1.838 1.194 4.974 4.974 0 0 1 1.194 1.838c.219.563.481 1.413.55 2.969.075 1.688.094 2.194.094 6.464s-.019 4.77-.094 6.458z"/><path d="M16.059 7.783c-4.538 0-8.22 3.682-8.22 8.22s3.682 8.22 8.22 8.22c4.539 0 8.22-3.682 8.22-8.22s-3.682-8.22-8.22-8.22zm0 13.552a5.333 5.333 0 0 1 0-10.664 5.333 5.333 0 0 1 0 10.664zM26.524 7.458a1.919 1.919 0 1 1-3.838 0 1.919 1.919 0 0 1 3.838 0z"/></symbol><symbol id="icon-logo-desktop" viewBox="0 0 40 32"><path d="M16.463 31.448v-5.12l-.132-.839v-8.563c0-1.971-.559-3.487-1.677-4.546-1.089-1.059-2.722-1.589-4.899-1.589-1.501 0-2.928.25-4.281.75s-2.501 1.162-3.443 1.986L.619 11.188c1.177-1 2.589-1.766 4.237-2.295a16.102 16.102 0 0 1 5.208-.839c3.001 0 5.311.75 6.93 2.251 1.648 1.471 2.472 3.722 2.472 6.753v14.389h-3.001zm-7.989.221c-1.736 0-3.252-.28-4.546-.839-1.265-.589-2.236-1.383-2.913-2.383C.338 27.417 0 26.24 0 24.916c0-1.206.28-2.295.839-3.266.589-1 1.53-1.795 2.825-2.383 1.324-.618 3.09-.927 5.297-.927h7.989v2.339H9.049c-2.236 0-3.796.397-4.679 1.192-.853.794-1.28 1.78-1.28 2.957 0 1.324.515 2.383 1.545 3.178s2.472 1.192 4.326 1.192c1.766 0 3.281-.397 4.546-1.192 1.295-.824 2.236-2.001 2.825-3.531l.706 2.163c-.589 1.53-1.618 2.751-3.09 3.663-1.442.912-3.266 1.368-5.473 1.368z"/><path d="M29.44 31.669c-2.413 0-4.531-.5-6.356-1.501-1.824-1.03-3.251-2.428-4.281-4.193-1.03-1.795-1.545-3.84-1.545-6.135s.486-4.326 1.457-6.091c1-1.766 2.354-3.149 4.061-4.149 1.736-1.03 3.678-1.545 5.826-1.545 2.178 0 4.105.5 5.782 1.501 1.707.971 3.046 2.354 4.017 4.149.971 1.766 1.457 3.811 1.457 6.135 0 .147-.015.309-.044.486v.486H19.643v-2.339h18.494l-1.236.927c0-1.677-.368-3.163-1.103-4.458-.706-1.324-1.677-2.354-2.913-3.09s-2.663-1.103-4.281-1.103c-1.589 0-3.016.368-4.281 1.103s-2.251 1.766-2.957 3.09c-.706 1.324-1.059 2.84-1.059 4.546v.486c0 1.766.383 3.325 1.148 4.679a8.571 8.571 0 0 0 3.266 3.134c1.412.736 3.016 1.103 4.811 1.103 1.412 0 2.722-.25 3.928-.75a8.169 8.169 0 0 0 3.178-2.295l1.766 2.03c-1.03 1.236-2.325 2.177-3.884 2.825-1.53.647-3.222.971-5.076.971zM37.296 3.31H21.848V0h15.448v3.31z"/></symbol><symbol id="icon-logo-mobile" viewBox="0 0 41 32"><path d="M16.241 31.144v-4.916l-.219-.922v-8.384c0-1.785-.527-3.16-1.58-4.126-1.024-.995-2.575-1.492-4.653-1.492-1.375 0-2.721.234-4.038.702-1.317.439-2.429 1.039-3.336 1.8L.659 10.645c1.2-.966 2.634-1.697 4.302-2.195a17.807 17.807 0 0 1 5.311-.79c3.19 0 5.648.775 7.374 2.326s2.59 3.921 2.59 7.111v14.047h-3.994zm-7.637.263c-1.727 0-3.248-.293-4.565-.878-1.288-.585-2.283-1.39-2.985-2.414C.352 27.062 0 25.876 0 24.559c0-1.258.293-2.4.878-3.424.615-1.024 1.595-1.844 2.941-2.458 1.375-.615 3.219-.922 5.531-.922h7.375v3.029H9.526c-2.107 0-3.526.351-4.258 1.053s-1.097 1.551-1.097 2.546c0 1.141.454 2.063 1.361 2.765.907.673 2.166 1.01 3.775 1.01 1.58 0 2.956-.351 4.126-1.053 1.2-.702 2.063-1.727 2.59-3.073l.834 2.897c-.556 1.375-1.536 2.473-2.941 3.292-1.405.79-3.175 1.185-5.311 1.185z"/><path d="M29.718 31.407c-2.487 0-4.682-.512-6.584-1.536-1.873-1.024-3.336-2.429-4.39-4.214-1.024-1.785-1.536-3.834-1.536-6.145s.497-4.36 1.492-6.145c1.024-1.785 2.414-3.175 4.17-4.17 1.785-1.024 3.79-1.536 6.014-1.536 2.253 0 4.243.498 5.97 1.492s3.073 2.4 4.038 4.214c.995 1.785 1.492 3.878 1.492 6.277 0 .176-.015.38-.044.614 0 .234-.015.454-.044.659H20.499v-3.029h17.602l-1.712 1.053c.029-1.492-.278-2.824-.922-3.995s-1.536-2.078-2.678-2.722c-1.112-.673-2.414-1.01-3.907-1.01-1.463 0-2.765.337-3.907 1.01-1.141.644-2.034 1.566-2.678 2.765-.644 1.171-.966 2.517-.966 4.038v.702c0 1.551.351 2.941 1.053 4.17.732 1.2 1.741 2.136 3.029 2.809s2.765 1.01 4.433 1.01c1.375 0 2.619-.234 3.731-.702a8.183 8.183 0 0 0 2.985-2.107l2.327 2.721c-1.053 1.229-2.37 2.166-3.951 2.809-1.551.644-3.292.966-5.224.966zM37.311 3.292H21.947V0h15.364v3.292z"/></symbol></defs></svg>