<svg aria-hidden="true" style="position: absolute; width: 0; height: 0; overflow: hidden;" version="1.1" xmlns="http://www.w3.org/2000/svg" xmlns:xlink="http://www.w3.org/1999/xlink">
<defs>
<symbol id="icon-logo" viewBox="0 0 40 32">
<path d="M16.463 31.448v-5.12l-0.132-0.839v-8.563c0-1.971-0.559-3.487-1.677-4.546-1.089-1.059-2.722-1.589-4.899-1.589-1.501 0-2.928 0.25-4.281 0.75s-2.501 1.162-3.443 1.986l-1.412-2.339c1.177-1 2.589-1.766 4.237-2.295 1.648-0.559 3.384-0.839 5.208-0.839 3.001 0 5.311 0.75 6.93 2.251 1.648 1.471 2.472 3.722 2.472 6.753v14.389h-3.001zM8.474 31.669c-1.736 0-3.252-0.28-4.546-0.839-1.265-0.589-2.236-1.383-2.913-2.383-0.677-1.030-1.015-2.207-1.015-3.531 0-1.206 0.28-2.295 0.839-3.266 0.589-1 1.53-1.795 2.825-2.383 1.324-0.618 3.090-0.927 5.297-0.927h7.989v2.339h-7.901c-2.236 0-3.796 0.397-4.679 1.192-0.853 0.794-1.28 1.78-1.28 2.957 0 1.324 0.515 2.383 1.545 3.178s2.472 1.192 4.326 1.192c1.766 0 3.281-0.397 4.546-1.192 1.295-0.824 2.236-2.001 2.825-3.531l0.706 2.163c-0.589 1.53-1.618 2.751-3.090 3.663-1.442 0.912-3.266 1.368-5.473 1.368z"></path>
<path d="M29.44 31.669c-2.413 0-4.531-0.5-6.356-1.501-1.824-1.030-3.251-2.428-4.281-4.193-1.030-1.795-1.545-3.84-1.545-6.135s0.486-4.326 1.457-6.091c1-1.766 2.354-3.149 4.061-4.149 1.736-1.030 3.678-1.545 5.826-1.545 2.178 0 4.105 0.5 5.782 1.501 1.707 0.971 3.046 2.354 4.017 4.149 0.971 1.766 1.457 3.811 1.457 6.135 0 0.147-0.015 0.309-0.044 0.486 0 0.147 0 0.309 0 0.486h-20.171v-2.339h18.494l-1.236 0.927c0-1.677-0.368-3.163-1.103-4.458-0.706-1.324-1.677-2.354-2.913-3.090s-2.663-1.103-4.281-1.103c-1.589 0-3.016 0.368-4.281 1.103s-2.251 1.766-2.957 3.090c-0.706 1.324-1.059 2.84-1.059 4.546v0.486c0 1.766 0.383 3.325 1.148 4.679 0.794 1.324 1.883 2.369 3.266 3.134 1.412 0.736 3.016 1.103 4.811 1.103 1.412 0 2.722-0.25 3.928-0.75 1.236-0.5 2.295-1.265 3.178-2.295l1.766 2.030c-1.030 1.236-2.325 2.177-3.884 2.825-1.53 0.647-3.222 0.971-5.076 0.971z"></path>
<path d="M37.296 3.31h-15.448v-3.31h15.448v3.31z"></path>
</symbol>
<symbol id="icon-call-us" viewBox="0 0 32 32">
<path d="M30.604 5.067l-4.26-4.255c-0.52-0.52-1.216-0.812-1.952-0.812s-1.432 0.288-1.952 0.812l-4.588 4.579c-0.52 0.52-0.812 1.22-0.812 1.956 0 0.74 0.288 1.432 0.812 1.956l3.584 3.588c-0.816 1.902-1.99 3.63-3.456 5.091-1.468 1.476-3.184 2.64-5.088 3.464l-3.584-3.588c-0.52-0.52-1.216-0.812-1.952-0.812-0.363-0.001-0.723 0.070-1.058 0.209s-0.639 0.344-0.894 0.603l-4.592 4.579c-0.52 0.52-0.812 1.22-0.812 1.956 0 0.74 0.288 1.432 0.812 1.956l4.256 4.256c0.888 0.888 2.112 1.396 3.368 1.396 0.26 0 0.512-0.020 0.768-0.064 5.296-0.872 10.552-3.692 14.796-7.931 4.24-4.247 7.056-9.503 7.936-14.802 0.252-1.504-0.252-3.052-1.332-4.136zM29.1 8.727c-0.78 4.715-3.316 9.419-7.136 13.238s-8.52 6.355-13.236 7.135c-0.592 0.1-1.2-0.1-1.632-0.528l-4.18-4.179 4.432-4.436 4.828 4.835 0.864-0.32c2.62-0.963 4.999-2.484 6.972-4.458s3.494-4.353 4.456-6.973l0.32-0.864-4.832-4.827 4.432-4.435 4.18 4.179c0.432 0.432 0.632 1.040 0.532 1.632z"></path>
</symbol>
<symbol id="icon-Vector" viewBox="0 0 36 32">
<path d="M0 0h36v4h-36v-4zM12 14h24v4h-24v-4zM0 28h36v4h-36v-4z"></path>
</symbol>
</defs>
</svg>
