<svg aria-hidden="true" style="position: absolute; width: 0; height: 0; overflow: hidden;" version="1.1" xmlns="http://www.w3.org/2000/svg" xmlns:xlink="http://www.w3.org/1999/xlink">
<defs>
<symbol id="icon-burger-icon" viewBox="0 0 32 32">
<path d="M4 5.333h24v2.667h-24v-2.667zM12 14.667h16v2.667h-16v-2.667zM4 24h24v2.667h-24v-2.667z"></path>
</symbol>
<symbol id="icon-facebook-icon" viewBox="0 0 32 32">
<path stroke-width="2.2857" stroke-miterlimit="4" stroke-linecap="round" stroke-linejoin="round" d="M24 2.667h-4c-1.768 0-3.464 0.702-4.714 1.953s-1.953 2.946-1.953 4.714v4h-4v5.333h4v10.667h5.333v-10.667h4l1.333-5.333h-5.333v-4c0-0.354 0.14-0.693 0.39-0.943s0.589-0.391 0.943-0.391h4v-5.333z"></path>
</symbol>
<symbol id="icon-instagram-icon" viewBox="0 0 32 32">
<path stroke-width="2.2857" stroke-miterlimit="4" stroke-linecap="round" stroke-linejoin="round" d="M22.666 2.667h-13.333c-3.682 0-6.667 2.985-6.667 6.667v13.333c0 3.682 2.985 6.667 6.667 6.667h13.333c3.682 0 6.667-2.985 6.667-6.667v-13.333c0-3.682-2.985-6.667-6.667-6.667z"></path>
<path stroke-width="2.2857" stroke-miterlimit="4" stroke-linecap="round" stroke-linejoin="round" d="M21.333 15.16c0.164 1.11-0.025 2.243-0.542 3.239s-1.334 1.803-2.336 2.308c-1.002 0.504-2.137 0.68-3.245 0.502s-2.131-0.701-2.924-1.494c-0.793-0.793-1.316-1.816-1.494-2.924s-0.003-2.243 0.502-3.245c0.504-1.002 1.312-1.82 2.307-2.336s2.129-0.706 3.239-0.542c1.132 0.168 2.18 0.695 2.989 1.504s1.337 1.857 1.504 2.989z"></path>
<path stroke-width="2.2857" stroke-miterlimit="4" stroke-linecap="round" stroke-linejoin="round" d="M23.334 8.667h0.013"></path>
</symbol>
<symbol id="icon-logo-desktop" viewBox="0 0 40 32">
<path d="M16.463 31.448v-5.12l-0.132-0.839v-8.563c0-1.971-0.559-3.487-1.677-4.546-1.089-1.059-2.722-1.589-4.899-1.589-1.501 0-2.928 0.25-4.281 0.75s-2.501 1.162-3.443 1.986l-1.412-2.339c1.177-1 2.589-1.766 4.237-2.295 1.648-0.559 3.384-0.839 5.208-0.839 3.001 0 5.311 0.75 6.93 2.251 1.648 1.471 2.472 3.722 2.472 6.753v14.389h-3.001zM8.474 31.669c-1.736 0-3.252-0.28-4.546-0.839-1.265-0.589-2.236-1.383-2.913-2.383-0.677-1.030-1.015-2.207-1.015-3.531 0-1.206 0.28-2.295 0.839-3.266 0.589-1 1.53-1.795 2.825-2.383 1.324-0.618 3.090-0.927 5.297-0.927h7.989v2.339h-7.901c-2.236 0-3.796 0.397-4.679 1.192-0.853 0.794-1.28 1.78-1.28 2.957 0 1.324 0.515 2.383 1.545 3.178s2.472 1.192 4.326 1.192c1.766 0 3.281-0.397 4.546-1.192 1.295-0.824 2.236-2.001 2.825-3.531l0.706 2.163c-0.589 1.53-1.618 2.751-3.090 3.663-1.442 0.912-3.266 1.368-5.473 1.368z"></path>
<path d="M29.44 31.669c-2.413 0-4.531-0.5-6.356-1.501-1.824-1.030-3.251-2.428-4.281-4.193-1.030-1.795-1.545-3.84-1.545-6.135s0.486-4.326 1.457-6.091c1-1.766 2.354-3.149 4.061-4.149 1.736-1.030 3.678-1.545 5.826-1.545 2.178 0 4.105 0.5 5.782 1.501 1.707 0.971 3.046 2.354 4.017 4.149 0.971 1.766 1.457 3.811 1.457 6.135 0 0.147-0.015 0.309-0.044 0.486 0 0.147 0 0.309 0 0.486h-20.171v-2.339h18.494l-1.236 0.927c0-1.677-0.368-3.163-1.103-4.458-0.706-1.324-1.677-2.354-2.913-3.090s-2.663-1.103-4.281-1.103c-1.589 0-3.016 0.368-4.281 1.103s-2.251 1.766-2.957 3.090c-0.706 1.324-1.059 2.84-1.059 4.546v0.486c0 1.766 0.383 3.325 1.148 4.679 0.794 1.324 1.883 2.369 3.266 3.134 1.412 0.736 3.016 1.103 4.811 1.103 1.412 0 2.722-0.25 3.928-0.75 1.236-0.5 2.295-1.265 3.178-2.295l1.766 2.030c-1.030 1.236-2.325 2.177-3.884 2.825-1.53 0.647-3.222 0.971-5.076 0.971z"></path>
<path d="M37.296 3.31h-15.448v-3.31h15.448v3.31z"></path>
</symbol>
<symbol id="icon-logo-mobile" viewBox="0 0 41 32">
<path d="M16.241 31.144v-4.916l-0.219-0.922v-8.384c0-1.785-0.527-3.16-1.58-4.126-1.024-0.995-2.575-1.492-4.653-1.492-1.375 0-2.721 0.234-4.038 0.702-1.317 0.439-2.429 1.039-3.336 1.8l-1.756-3.161c1.2-0.966 2.634-1.697 4.302-2.195 1.697-0.527 3.468-0.79 5.311-0.79 3.19 0 5.648 0.775 7.374 2.326s2.59 3.921 2.59 7.111v14.047h-3.994zM8.604 31.407c-1.727 0-3.248-0.293-4.565-0.878-1.288-0.585-2.283-1.39-2.985-2.414-0.702-1.053-1.054-2.239-1.054-3.556 0-1.258 0.293-2.4 0.878-3.424 0.615-1.024 1.595-1.844 2.941-2.458 1.375-0.615 3.219-0.922 5.531-0.922h7.375v3.029h-7.199c-2.107 0-3.526 0.351-4.258 1.053s-1.097 1.551-1.097 2.546c0 1.141 0.454 2.063 1.361 2.765 0.907 0.673 2.166 1.010 3.775 1.010 1.58 0 2.956-0.351 4.126-1.053 1.2-0.702 2.063-1.727 2.59-3.073l0.834 2.897c-0.556 1.375-1.536 2.473-2.941 3.292-1.405 0.79-3.175 1.185-5.311 1.185z"></path>
<path d="M29.718 31.407c-2.487 0-4.682-0.512-6.584-1.536-1.873-1.024-3.336-2.429-4.39-4.214-1.024-1.785-1.536-3.834-1.536-6.145s0.497-4.36 1.492-6.145c1.024-1.785 2.414-3.175 4.17-4.17 1.785-1.024 3.79-1.536 6.014-1.536 2.253 0 4.243 0.498 5.97 1.492s3.073 2.4 4.038 4.214c0.995 1.785 1.492 3.878 1.492 6.277 0 0.176-0.015 0.38-0.044 0.614 0 0.234-0.015 0.454-0.044 0.659h-19.797v-3.029h17.602l-1.712 1.053c0.029-1.492-0.278-2.824-0.922-3.995s-1.536-2.078-2.678-2.722c-1.112-0.673-2.414-1.010-3.907-1.010-1.463 0-2.765 0.337-3.907 1.010-1.141 0.644-2.034 1.566-2.678 2.765-0.644 1.171-0.966 2.517-0.966 4.038v0.702c0 1.551 0.351 2.941 1.053 4.17 0.732 1.2 1.741 2.136 3.029 2.809s2.765 1.010 4.433 1.010c1.375 0 2.619-0.234 3.731-0.702 1.141-0.468 2.136-1.171 2.985-2.107l2.327 2.721c-1.053 1.229-2.37 2.166-3.951 2.809-1.551 0.644-3.292 0.966-5.224 0.966z"></path>
<path d="M37.311 3.292h-15.364v-3.292h15.364v3.292z"></path>
</symbol>
<symbol id="icon-tel-22px" viewBox="0 0 32 32">
<path d="M29.276 6.061l-3.873-3.869c-0.473-0.473-1.105-0.738-1.775-0.738s-1.302 0.262-1.775 0.738l-4.171 4.163c-0.473 0.473-0.738 1.109-0.738 1.778 0 0.673 0.262 1.302 0.738 1.778l3.258 3.261c-0.742 1.729-1.809 3.3-3.142 4.629-1.335 1.342-2.895 2.4-4.625 3.149l-3.258-3.261c-0.473-0.473-1.105-0.738-1.775-0.738-0.33-0.001-0.657 0.063-0.962 0.19s-0.581 0.313-0.813 0.548l-4.175 4.163c-0.473 0.473-0.738 1.109-0.738 1.778 0 0.673 0.262 1.302 0.738 1.778l3.869 3.869c0.807 0.807 1.92 1.269 3.062 1.269 0.236 0 0.465-0.018 0.698-0.058 4.814-0.793 9.593-3.356 13.451-7.21 3.855-3.861 6.415-8.639 7.215-13.456 0.229-1.367-0.229-2.774-1.211-3.76zM27.909 9.388c-0.709 4.287-3.015 8.563-6.487 12.035s-7.746 5.777-12.033 6.486c-0.538 0.091-1.091-0.091-1.484-0.48l-3.8-3.8 4.029-4.032 4.389 4.396 0.785-0.291c2.382-0.875 4.544-2.258 6.338-4.053s3.176-3.957 4.051-6.339l0.291-0.785-4.393-4.389 4.029-4.032 3.8 3.8c0.393 0.393 0.575 0.945 0.484 1.483z"></path>
</symbol>
<symbol id="icon-tel-24px" viewBox="0 0 32 32">
<path d="M29.387 5.978l-3.905-3.901c-0.477-0.477-1.115-0.744-1.789-0.744s-1.313 0.264-1.789 0.744l-4.206 4.198c-0.477 0.477-0.744 1.118-0.744 1.793 0 0.678 0.264 1.313 0.744 1.793l3.285 3.289c-0.748 1.744-1.824 3.328-3.168 4.667-1.346 1.353-2.919 2.42-4.664 3.175l-3.285-3.289c-0.477-0.477-1.115-0.744-1.789-0.744-0.333-0.001-0.662 0.064-0.97 0.192s-0.586 0.316-0.82 0.552l-4.209 4.198c-0.477 0.477-0.744 1.118-0.744 1.793 0 0.678 0.264 1.312 0.744 1.793l3.901 3.901c0.814 0.814 1.936 1.279 3.087 1.279 0.238 0 0.469-0.018 0.704-0.059 4.855-0.799 9.673-3.384 13.563-7.27 3.887-3.893 6.468-8.711 7.275-13.569 0.231-1.379-0.231-2.797-1.221-3.791zM28.008 9.333c-0.715 4.322-3.040 8.634-6.541 12.135s-7.81 5.826-12.133 6.541c-0.543 0.092-1.1-0.092-1.496-0.484l-3.832-3.831 4.063-4.066 4.426 4.432 0.792-0.293c2.401-0.883 4.582-2.277 6.391-4.086s3.203-3.99 4.085-6.392l0.293-0.792-4.429-4.425 4.063-4.066 3.832 3.831c0.396 0.396 0.579 0.953 0.488 1.496z"></path>
</symbol>
<symbol id="icon-tel-28px" viewBox="0 0 32 32">
<path d="M26.332 6.267l-3.347-3.344c-0.409-0.409-0.955-0.638-1.534-0.638s-1.125 0.226-1.534 0.638l-3.605 3.598c-0.409 0.409-0.638 0.958-0.638 1.537 0 0.581 0.226 1.125 0.638 1.537l2.816 2.819c-0.642 1.495-1.563 2.852-2.715 4-1.153 1.16-2.502 2.074-3.998 2.721l-2.816-2.819c-0.409-0.408-0.955-0.638-1.534-0.638-0.285-0.001-0.568 0.055-0.831 0.164s-0.502 0.271-0.703 0.473l-3.608 3.598c-0.409 0.408-0.638 0.958-0.638 1.537 0 0.581 0.226 1.125 0.638 1.537l3.344 3.344c0.698 0.698 1.659 1.097 2.646 1.097 0.204 0 0.402-0.016 0.603-0.050 4.161-0.685 8.291-2.9 11.625-6.232 3.331-3.337 5.544-7.466 6.235-11.63 0.198-1.182-0.198-2.398-1.047-3.249zM25.15 9.143c-0.613 3.705-2.605 7.401-5.607 10.402s-6.694 4.993-10.4 5.606c-0.465 0.078-0.943-0.078-1.282-0.415l-3.284-3.284 3.482-3.485 3.793 3.799 0.679-0.251c2.058-0.757 3.928-1.952 5.478-3.503s2.745-3.42 3.501-5.479l0.251-0.679-3.797-3.793 3.482-3.485 3.284 3.284c0.339 0.339 0.497 0.817 0.418 1.282z"></path>
</symbol>
</defs>
</svg>
