<svg xmlns="http://www.w3.org/2000/svg" width="146" height="150" fill="none">
  <path fill="#000" d="M99.9107 64.0649c.0864-.5455-.2858-1.0577-.8313-1.1441l-8.8892-1.4079c-.5455-.0864-1.0577.2857-1.1441.8312-.0864.5455.2858 1.0577.8313 1.1441l7.9015 1.2515-1.2515 7.9015c-.0864.5455.2858 1.0577.8312 1.1441.5455.0864 1.0578-.2857 1.1442-.8312l1.4079-8.8892ZM52.5878 98.809l46.923-34.0915-1.1756-1.6181-46.923 34.0916 1.1756 1.618ZM132.663 78.7581c.051-.7784.208-1.5077.469-2.188.273-.6796.59-1.206.951-1.5791l.969.6407c-.313.3644-.597.8388-.852 1.4234-.243.5853-.386 1.2073-.429 1.8658-.059.8981.036 1.5538.286 1.967.261.414.625.6363 1.092.6669.347.0228.624-.0732.831-.2882.218-.2022.386-.4797.506-.8327.131-.3521.247-.7473.348-1.1857.101-.4383.214-.8759.339-1.3126.124-.4248.288-.8109.491-1.1583.215-.3467.492-.6232.83-.8295.338-.1943.776-.2738 1.315-.2384.515.0338.966.2077 1.354.5218.389.3141.678.754.87 1.3198.202.5785.277 1.2689.224 2.0711-.04.6107-.164 1.2159-.372 1.8156-.195.6004-.438 1.0896-.727 1.4675l-.988-.624c.315-.4003.548-.8359.7-1.307.163-.4704.26-.945.292-1.424.056-.8501-.053-1.4886-.325-1.9154-.262-.414-.62-.6359-1.075-.6658-.359-.0235-.648.0658-.866.2679-.218.2142-.399.497-.542.8483-.132.3642-.249.7594-.349 1.1857-.101.4384-.219.8695-.355 1.2935-.125.4368-.289.8289-.493 1.1763-.192.3602-.456.6375-.794.8318-.326.2071-.747.2937-1.262.2599-.551-.0361-1.019-.2232-1.406-.5612-.375-.3253-.658-.7888-.847-1.3905-.177-.5889-.239-1.2964-.185-2.1226ZM140.469 91.1718c-.181.7463-.485 1.364-.913 1.8531-.419.5035-.958.842-1.617 1.0155-.663.1851-1.437.1703-2.323-.0446l-5.336-1.2934.302-1.2419 5.213 1.2637c.968.2347 1.756.1665 2.365-.2045.617-.3565 1.032-.9721 1.245-1.8467.158-.653.163-1.2569.014-1.8117-.141-.5403-.429-1.0053-.865-1.3951-.428-.3753-.991-.6477-1.691-.8174l-4.828-1.1704.301-1.2419 12.98 3.1466-.301 1.2419-6.315-1.5309.531-.1304c.594.4527 1 1.045 1.217 1.7768.23.7346.236 1.5451.021 2.4313ZM127.507 99.1959c.387-.826.92-1.4841 1.6-1.9744.686-.4743 1.444-.7493 2.274-.825.841-.0705 1.686.0923 2.534.4885.859.4012 1.525.9444 2 1.6296.474.6851.743 1.4401.808 2.2654.064.824-.1 1.655-.491 2.492-.397.848-.933 1.511-1.608 1.991-.68.49-1.432.768-2.258.832-.83.076-1.675-.087-2.533-.488-.848-.396-1.515-.94-2-1.63-.48-.674-.754-1.432-.825-2.272-.059-.836.107-1.672.499-2.5091Zm1.027.48c-.29.6191-.411 1.2321-.363 1.8371.059.61.275 1.168.648 1.673.379.522.9.937 1.563 1.247.674.315 1.327.448 1.96.399.627-.038 1.188-.233 1.684-.584.506-.346.902-.823 1.187-1.432.285-.609.398-1.218.339-1.828-.048-.606-.256-1.1663-.624-1.6825-.367-.5163-.888-.9318-1.563-1.2467-.663-.3099-1.316-.4429-1.959-.399-.633.0489-1.202.2465-1.708.5926-.496.3512-.884.8257-1.164 1.4235ZM121.499 109.341c.483-.658 1.069-1.143 1.76-1.456.7-.305 1.453-.408 2.258-.309.808.116 1.629.478 2.461 1.088.833.61 1.421 1.279 1.765 2.007.354.735.486 1.478.395 2.23-.09.752-.38 1.462-.87 2.129-.532.726-1.172 1.254-1.92 1.584-.746.346-1.534.468-2.366.364-.823-.096-1.616-.425-2.381-.985-.775-.567-1.332-1.228-1.671-1.982-.34-.755-.461-1.543-.364-2.364.089-.812.4-1.581.933-2.306Zm.141-5.943 10.441 7.646-.724.987-2.294-1.68-1.451-1.219-1.646-.982-5.082-3.722.756-1.03Zm.827 6.54c-.398.542-.631 1.114-.702 1.717-.06.61.04 1.204.3 1.782.271.585.701 1.093 1.292 1.526.591.432 1.201.686 1.831.76.63.075 1.227-.008 1.791-.25.564-.241 1.045-.633 1.442-1.175.398-.541.63-1.122.698-1.742.061-.61-.04-1.204-.3-1.781-.268-.568-.697-1.069-1.288-1.501-.591-.433-1.202-.695-1.835-.786-.63-.075-1.226.009-1.791.25-.561.258-1.041.658-1.438 1.2ZM116.062 128.492c-.608.47-1.231.762-1.871.876-.642.132-1.274.06-1.898-.217-.633-.269-1.228-.764-1.787-1.485l-3.359-4.342 1.011-.782 3.283 4.243c.609.787 1.268 1.227 1.975 1.317.705.107 1.414-.114 2.126-.664.532-.411.913-.879 1.143-1.406.228-.509.293-1.052.196-1.629-.1-.56-.37-1.125-.81-1.694l-3.041-3.929 1.012-.782 5.783 7.474-.969.748-1.586-2.05.454.264c.181.724.128 1.44-.159 2.147-.28.717-.781 1.354-1.503 1.911ZM101.026 126.628c.816-.407 1.643-.592 2.48-.554.833.054 1.598.31 2.295.766.704.467 1.265 1.119 1.683 1.956.424.848.609 1.688.556 2.519-.054.832-.312 1.591-.773 2.277-.462.687-1.106 1.236-1.933 1.649-.837.418-1.669.606-2.496.562-.838-.038-1.6-.287-2.287-.749-.6978-.456-1.2587-1.109-1.6828-1.956-.4187-.838-.6039-1.677-.5555-2.52.0429-.826.298-1.59.765-2.293.4724-.692 1.1223-1.244 1.9483-1.657Zm.508 1.015c-.612.305-1.087.71-1.426 1.214-.3325.515-.5096 1.086-.5311 1.714-.0269.644.1234 1.293.4511 1.948.333.665.762 1.175 1.288 1.529.515.36 1.076.556 1.683.589.612.043 1.219-.086 1.82-.386.601-.3 1.068-.708 1.401-1.222.338-.505.523-1.073.556-1.706.032-.633-.119-1.283-.451-1.948-.328-.655-.757-1.164-1.289-1.53-.526-.354-1.095-.553-1.707-.596-.606-.032-1.205.099-1.795.394ZM93.03 130.184l5.7573 8.3-1.1873.297-5.2766-7.715.5413-.136-1.0966 9.312-1.0651.267-5.3289-7.702.5413-.136-1.0617 9.303-1.1349.284 1.1745-10.036 1.1699-.293 5.0796 7.226-.3666.092 1.0839-8.77 1.1699-.293ZM73.1183 132.785c.7797.024 1.514.155 2.203.392.6886.249 1.2256.548 1.6111.896l-.6069.99c-.3749-.3-.8589-.567-1.4519-.801-.5935-.223-1.22-.344-1.8797-.364-.8996-.028-1.5515.09-1.9559.353-.4047.276-.6143.648-.6287 1.116-.0108.347.0948.621.3168.82.2096.21.4928.369.8497.476.3565.119.7555.222 1.1971.307.4415.086.8827.184 1.3235.293.4289.109.8204.26 1.1747.451.3539.203.6398.47.8576.8.2059.331.3005.766.2838 1.306-.0159.516-.1741.973-.4746 1.372-.3005.399-.7301.704-1.2889.915-.5711.222-1.2585.321-2.0621.296-.6117-.019-1.2208-.122-1.8274-.308-.6068-.175-1.1041-.401-1.4918-.677l.5895-1.008c.4109.301.8544.519 1.3304.653.4757.147.9534.228 1.4332.243.8516.026 1.4859-.105 1.903-.392.4047-.276.6141-.641.6282-1.097.0111-.36-.0881-.645-.2977-.856-.2216-.211-.5104-.382-.8665-.513-.3685-.119-.7676-.221-1.1971-.307-.4416-.085-.8766-.189-1.3051-.31-.4408-.11-.8383-.26-1.1926-.451-.3666-.179-.6529-.434-.8588-.765-.2182-.319-.3194-.736-.3034-1.252.017-.552.1878-1.027.5122-1.425.3121-.386.7656-.684 1.3603-.894.5824-.198 1.2874-.285 2.115-.259ZM61.0383 141.007c-.7521-.156-1.3799-.438-1.8832-.849-.5176-.401-.8742-.928-1.07-1.581-.2076-.655-.219-1.429-.0343-2.323l1.1119-5.376 1.2516.259-1.0864 5.252c-.2017.976-.1068 1.761.2848 2.357.3773.604 1.0067.998 1.8881 1.18.6581.136 1.2619.119 1.8114-.049.5353-.159.9904-.463 1.3652-.913.3606-.44.6138-1.013.7596-1.718l1.0062-4.865 1.2516.258-2.7049 13.08-1.2516-.259 1.316-6.363.1483.527c-.4323.609-1.0105 1.035-1.7347 1.278-.7266.254-1.5364.289-2.4296.105ZM52.6869 128.376c.8401.355 1.5177.863 2.0329 1.523.4995.667.8023 1.414.9085 2.241.1015.837-.0302 1.687-.3951 2.549-.3696.873-.8882 1.559-1.5558 2.059-.6675.499-1.4125.797-2.2347.892-.8223.096-1.659-.036-2.5102-.396-.8621-.364-1.5453-.875-2.0495-1.531-.5152-.66-.8203-1.401-.9155-2.223-.1061-.827.0256-1.677.3952-2.55.3649-.861.8834-1.548 1.5557-2.058.6565-.505 1.4038-.808 2.2418-.909.8333-.091 1.6756.043 2.5267.403Zm-.4421 1.044c-.6301-.266-1.2468-.364-1.8501-.293-.608.082-1.1577.318-1.6493.71-.5073.398-.9036.934-1.189 1.608-.29.685-.3989 1.343-.3268 1.972.0612.625.2765 1.179.6459 1.661.3647.492.8565.87 1.4755 1.131.619.262 1.2325.352 1.8405.27.6034-.071 1.1563-.3 1.6589-.687.5026-.386.8989-.922 1.189-1.608.2854-.674.3943-1.331.3268-1.972-.0722-.63-.2907-1.191-.6554-1.684-.3694-.482-.8581-.851-1.466-1.108ZM42.3347 122.75c.6755.458 1.182 1.026 1.5194 1.704.3307.688.4611 1.436.3913 2.244-.0865.811-.4196 1.643-.9993 2.497-.5796.854-1.2272 1.466-1.9428 1.837-.7223.38-1.4611.539-2.2164.476-.7553-.062-1.4757-.326-2.1612-.79-.745-.505-1.296-1.125-1.653-1.86-.3736-.731-.5237-1.514-.4503-2.349.0667-.824.3662-1.629.8987-2.413.5392-.794 1.1799-1.375 1.9221-1.742.7421-.366 1.5258-.517 2.351-.45.8153.059 1.5955.342 2.3405.846Zm5.949-.078-7.2692 10.708-1.0133-.687 1.5974-2.353 1.1659-1.493.9227-1.679 3.5386-5.213 1.0579.717Zm-6.5114 1.067c-.5563-.377-1.1373-.589-1.7429-.637-.6123-.038-1.2027.083-1.771.365-.5751.292-1.0682.74-1.4793 1.346-.4112.606-.6426 1.224-.6944 1.856-.0518.632.0533 1.225.3151 1.779.2619.554.671 1.02 1.2273 1.397s1.1456.588 1.7679.633c.6123.038 1.2026-.084 1.771-.366.5584-.288 1.0431-.735 1.4543-1.341.4111-.605.6509-1.226.7194-1.861.0517-.631-.0533-1.224-.3152-1.779-.2785-.551-.6959-1.015-1.2522-1.392ZM23.003 118.034c-.4918-.59-.8068-1.202-.9451-1.837-.1552-.636-.1059-1.27.1478-1.902.2461-.642.7196-1.255 1.4206-1.838l4.2199-3.512.8184.982-4.1231 3.431c-.7655.637-1.1807 1.31-1.2453 2.02-.0816.708.1658 1.407.7421 2.098.4303.517.9129.88 1.4478 1.091.518.209 1.0637.254 1.6371.136.5564-.12 1.1114-.41 1.6648-.87l3.8187-3.178.8184.981-7.2638 6.045-.7838-.94 1.9923-1.658-.2468.463c-.7178.207-1.4357.18-2.1535-.081-.727-.254-1.3825-.731-1.9665-1.431ZM24.3328 102.986c.4379.8.6535 1.619.6469 2.457-.0229.833-.2494 1.606-.6796 2.32-.4408.719-1.0718 1.303-1.8932 1.752-.832.454-1.6647.67-2.4982.647-.8335-.024-1.6021-.253-2.3059-.689-.7037-.436-1.2774-1.059-1.721-1.87-.4494-.821-.668-1.645-.6556-2.472.0066-.838.2279-1.608.6639-2.312.4302-.713 1.0612-1.297 1.8932-1.752.8214-.448 1.6541-.664 2.4982-.647.8277.013 1.6016.24 2.3216.681.7095.446 1.2861 1.075 1.7297 1.885Zm-.9952.544c-.3284-.6-.7509-1.06-1.2677-1.379-.5273-.314-1.1052-.47-1.7337-.468-.6447-.004-1.2883.17-1.9307.521-.6529.357-1.1467.804-1.4813 1.343-.3404.527-.5155 1.095-.5252 1.702-.0203.613.1308 1.214.4535 1.803.3226.59.7476 1.041 1.2749 1.355.5168.319 1.0923.483 1.7265.492.6342.009 1.2778-.164 1.9307-.521.6424-.351 1.1362-.799 1.4813-1.343.3347-.538.5121-1.114.5324-1.726.0098-.607-.1438-1.2-.4607-1.779ZM20.4695 95.1569l-8.0981 6.0331-.3383-1.177 7.5301-5.5324.1543.5363-9.3461-.7815-.3035-1.0552 7.5152-5.5845.1543.5363-9.33619-.7469-.32339-1.1244 10.07318.8349.3334 1.159-7.0484 5.3194-.1044-.3633 8.8045.7871.3334 1.1591ZM17.143 75.6893c.006.78-.0963 1.5188-.3069 2.2165-.2226.6977-.5004 1.2459-.8333 1.6444l-1.0124-.5682c.285-.3862.5332-.8801.7446-1.4818.1993-.6015.2964-1.2323.2913-1.8923-.0069-.8999-.15-1.5469-.429-1.9407-.2911-.3938-.6706-.5889-1.1386-.5853-.348.0027-.6171.1188-.8073.3483-.2023.2175-.3501.5067-.4433.8674-.1052.3608-.1921.7635-.2607 1.2081-.0685.4445-.1491.8891-.2417 1.3339-.0926.4327-.2275.8297-.4047 1.1911-.1893.3615-.445.6575-.7672.8879-.3223.2185-.7535.3299-1.2935.334-.51594.004-.97904-.1364-1.38926-.4213-.41021-.2848-.73145-.7024-.96372-1.2526-.24435-.5621-.36964-1.2452-.37586-2.0492-.00474-.6119.07453-1.2246.23779-1.8379.15126-.6131.35735-1.1187.61828-1.5168l1.03029.5501c-.28475.4222-.48526.8738-.60154 1.3547-.12828.481-.19057.9615-.18685 1.4415.00659.852.16146 1.4808.46461 1.8865.29105.3937.66457.5889 1.12056.5853.36-.0027.6411-.1129.8435-.3305.2022-.2295.3619-.5248.4791-.8857.1051-.3728.192-.7755.2607-1.208.0686-.4446.1552-.8833.2598-1.3161.0926-.4447.2275-.8478.4047-1.2091.1651-.3733.4088-.6692.7311-.8877.3103-.2304.7234-.3476 1.2393-.3515.552-.0043 1.0332.148 1.4436.4568.3983.297.7138.7386.9463 1.3248.2204.5743.3339 1.2755.3403 2.1034ZM8.44914 63.8038c.1268-.7575.38571-1.3956.77673-1.9144.38116-.5326.89443-.9093 1.53973-1.1302.6473-.2327 1.4208-.2741 2.3203-.1242l5.4153.9027-.211 1.2604-5.291-.8819c-.9824-.1638-1.7638-.0385-2.3442.3757-.5902.4004-.95958 1.0444-1.10817 1.9321-.11095.6627-.07191 1.2654.11712 1.8078.17918.5287.50045.9715.96385 1.3286.4536.3432 1.0355.574 1.7457.6924l4.9004.8169-.211 1.2604-13.17428-2.196.211-1.2604 6.40958 1.0684-.52101.1686c-.62516-.4083-1.07264-.9696-1.34244-1.6836-.28165-.7161-.34718-1.5239-.19661-2.4233ZM20.7316 54.9725c-.3239.8526-.8065 1.5487-1.448 2.0883-.6484.5242-1.3838.855-2.2061.9923-.8336.1331-1.688.0338-2.5632-.2981-.8865-.3361-1.5917-.828-2.1158-1.4759-.5241-.6479-.849-1.3807-.9749-2.1985-.1258-.8177-.0246-1.6584.3035-2.5222.3323-.875.8171-1.5767 1.4543-2.1051.6414-.5397 1.3712-.8726 2.1893-.9987.8224-.1374 1.6768-.038 2.5632.2981.8752.3318 1.5805.8238 2.1158 1.4759.5283.6367.8589 1.3716.9917 2.2048.1215.829.0183 1.6753-.3098 2.5391Zm-1.0604-.402c.2429-.6394.3178-1.2591.2248-1.8591-.1042-.6042-.3611-1.1444-.7708-1.6205-.4165-.4916-.967-.8672-1.6515-1.1267-.6957-.2638-1.357-.3477-1.9839-.2517-.6227.0847-1.168.3207-1.636.708-.4793.3829-.8382.8885-1.0768 1.5167-.2387.6282-.3059 1.2444-.2016 1.8486.093.6.3422 1.1436.7475 1.631.4054.4874.9559.8629 1.6516 1.1267.6844.2595 1.3457.3434 1.9839.2517.6269-.096 1.18-.3354 1.6592-.7184.4681-.3872.8192-.8893 1.0536-1.5063ZM25.9574 44.393c-.4333.6915-.9828 1.2183-1.6486 1.5803-.676.3556-1.4193.5135-2.2298.4737-.8144-.0564-1.659-.3582-2.534-.9054-.875-.5472-1.5106-1.1713-1.907-1.8721-.4066-.7072-.5923-1.439-.5573-2.1956.035-.7565.2724-1.4856.712-2.1872.4779-.7627 1.0777-1.3358 1.7996-1.7194.718-.4002 1.4957-.579 2.3329-.5366.8271.036 1.6425.3054 2.4463.8081.8139.509 1.4177 1.1273 1.8116 1.8548.3938.7275.5725 1.5045.5361 2.331-.03.8163-.2839 1.6058-.7618 2.3684Zm.2943 5.9375L15.279 43.468l.6499-1.0372 2.4112 1.508 1.5356 1.109 1.7132.8592 5.3414 3.3406-.6786 1.0829Zm-1.3035-6.4625c.3568-.5695.5482-1.1574.5742-1.7639.0158-.6129-.1275-1.1979-.4298-1.755-.3125-.5634-.7791-1.0392-1.3997-1.4274-.6206-.3881-1.2478-.5963-1.8814-.6247-.6337-.0283-1.223.0986-1.7679.3805-.5448.282-.9957.7077-1.3525 1.2772-.3568.5694-.5463 1.1657-.5685 1.7887-.0158.6129.1275 1.1979.4298 1.7549.3087.547.7734 1.0145 1.394 1.4026.6206.3882 1.2497.6047 1.8871.6495.6337.0284 1.223-.0985 1.7678-.3805.5411-.2985.9901-.7325 1.3469-1.3019ZM29.9666 24.8641c.572-.5124 1.1728-.8491 1.8022-1.0101.6303-.178 1.2665-.1518 1.9086.0786.651.2224 1.2811.673 1.8902 1.3518l3.6666 4.086-.952.8527-3.5824-3.9923c-.6652-.7413-1.3539-1.1314-2.0659-1.1702-.7111-.0558-1.4019.2165-2.0723.817-.5005.4484-.8463.9434-1.0374 1.4851-.1902.5247-.2158 1.0712-.0767 1.6394.1399.5512.4503 1.0948.9312 1.6306l3.318 3.6976-.952.8527-6.3114-7.0334.9118-.8167 1.7311 1.9292-.4721-.2296c-.2333-.7093-.2324-1.4269.0027-2.1531.2272-.7351.6804-1.4068 1.3598-2.0153ZM44.9659 25.6769c-.7837.4664-1.5945.7116-2.4325.7355-.8338.0075-1.6155-.1906-2.3452-.5942-.7358-.4139-1.3434-1.0228-1.8227-1.8267-.4855-.8143-.7322-1.638-.74-2.4712-.0078-.8332.1931-1.6092.6029-2.3278.4097-.7187 1.0116-1.3143 1.8056-1.7869.8044-.4787 1.6204-.7269 2.448-.7447.838-.024 1.6166.1689 2.336.5787.7296.4036 1.3372 1.0125 1.8227 1.8267.4794.804.7261 1.6277.74 2.4712.0182.8271-.1797 1.6082-.5937 2.3433-.42.7248-1.0271 1.3235-1.8211 1.7961Zm-.5807-.974c.5877-.3499 1.0317-.7886 1.3317-1.3163.294-.5381.4285-1.1208.4036-1.7484-.0208-.644-.2186-1.2803-.5934-1.909-.3811-.6391-.847-1.1159-1.3978-1.4304-.5405-.3207-1.1144-.4748-1.7218-.4625-.6135.0021-1.209.175-1.7865.5186-.5774.3437-1.0131.7846-1.307 1.3226-.3001.5277-.4429 1.1084-.4283 1.7421.0146.6337.2124 1.27.5935 1.9091.3748.6287.8408 1.1055 1.3977 1.4303.5508.3146 1.133.4708 1.7465.4687.6074-.0123 1.1946-.1873 1.7618-.5248ZM52.6075 21.499l-6.3395-7.8646 1.1628-.3819 5.818 7.316-.5301.1741.424-9.3659 1.0432-.3426 5.8693 7.2991-.5302.1741.3899-9.35465 1.1116-.36506-.4497 10.09421-1.1458.3763-5.5864-6.8425.3591-.118-.4504 8.8251-1.1458.3763ZM72.1524 17.379c-.7793.033-1.5212-.0436-2.2258-.2299-.705-.1983-1.2625-.4569-1.6724-.7758l.5326-1.0315c.3959.2715.8982.5024 1.5068.6928.6081.1783 1.2419.2535 1.9013.2256.8992-.0382 1.5408-.2036 1.9247-.4961.3834-.3045.5652-.6906.5453-1.1582-.0148-.3476-.1402-.6126-.3761-.7947-.2245-.1947-.5186-.3323-.8824-.413-.3642-.0926-.7697-.1655-1.2163-.2186-.4467-.0531-.8939-.1182-1.3415-.1953-.4357-.0776-.8372-.1987-1.2046-.3633-.3678-.1765-.6725-.4218-.914-.7359-.2296-.3145-.3559-.7416-.3788-1.2811-.0219-.5155.1023-.98319.3727-1.40303s.6766-.75536 1.2184-1.00656c.5533-.2637 1.2316-.41259 2.0348-.44668.6115-.02595 1.2265.03203 1.8451.17393.6181.12991 1.1305.31835 1.5374.56532l-.5139 1.04874c-.4319-.26994-.8901-.45467-1.3748-.55421-.4852-.11153-.9676-.15712-1.4471-.13677-.8513.03612-1.4743.2127-1.8692.52973-.3834.30453-.5654.68463-.5461 1.14013.0153.3597.1352.6369.3597.8315.2364.1942.5371.3436.9018.4482.3763.0921.7817.165 1.2164.2186.4467.0531.8881.1245 1.3243.2141.4477.0771.8552.1979 1.2225.3625.3788.152.683.3854.9126.6999.241.3021.3725.7109.3944 1.2264.0235.5515-.112 1.0377-.4064 1.4585-.2829.4084-.7133.7389-1.2911.9917-.5663.2402-1.263.3779-2.0903.413ZM83.8085 8.25808c.7615.10023 1.4081.33664 1.94.70924.5453.36226.9393.86196 1.1821 1.49908.2547.6387.3224 1.4102.2032 2.3143l-.7178 5.4429-1.2671-.1668.7013-5.3179c.1302-.9875-.0215-1.7639-.4553-2.3294-.4204-.57577-1.0767-.92239-1.969-1.03984-.6662-.0877-1.2673-.02762-1.803.18023-.5223.19753-.954.53411-1.2951 1.00961-.3277.4652-.5386 1.0547-.6327 1.7686l-.6495 4.9253-1.2671-.1668 1.7462-13.24132 1.2671.16679-.8496 6.44223-.1863-.51473c.3869-.63897.9326-1.10575 1.6371-1.40032.7062-.30646 1.5113-.40019 2.4155-.28117ZM93.2445 20.257c-.8632-.2943-1.5753-.7526-2.1362-1.375-.5457-.6298-.901-1.3531-1.0657-2.17-.1609-.8283-.0901-1.6853.2125-2.571.3064-.8971.7748-1.6185 1.4051-2.1643.6302-.5458 1.3521-.8956 2.1654-1.0493.8134-.1538 1.6574-.0815 2.5319.2167.8859.302 1.6037.7623 2.1533 1.3808.5609.6223.9181 1.34 1.0715 2.153.1648.8169.0939 1.6739-.2125 2.571-.3026.8857-.771 1.6072-1.4051 2.1643-.6189.5497-1.3427.9051-2.1713 1.0663-.8247.1499-1.6744.0757-2.5489-.2225Zm.3666-1.0731c.6474.2208 1.2694.2744 1.8662.1609.6006-.1249 1.1321-.4001 1.5944-.8256.4777-.433.8348-.9959 1.0714-1.6886.2405-.704.3024-1.3676.1855-1.9907-.1055-.6191-.3596-1.1559-.7624-1.6102-.3989-.4656-.9164-.8069-1.5524-1.0237-.6361-.2169-1.2544-.2629-1.855-.1381-.5967.1135-1.1319.3811-1.6057.8028-.4737.4216-.8309.9845-1.0714 1.6886-.2366.6927-.2984 1.3562-.1854 1.9906.1168.6231.3747 1.1674.7736 1.6331.4028.4543.9165.7879 1.5412 1.0009ZM103.735 24.9606c-.707-.407-1.254-.9362-1.64-1.5876-.38-.6619-.565-1.3982-.555-2.2091.027-.8153.298-1.67.813-2.5641.516-.894 1.117-1.552 1.803-1.9739.693-.4323 1.418-.6449 2.176-.6381.757.0069 1.495.2168 2.213.6298.78.4488 1.375 1.0266 1.785 1.7331.426.7022.633 1.4721.621 2.3098-.006.8272-.245 1.6515-.719 2.4728-.479.8317-1.075 1.4577-1.789 1.878-.713.4203-1.483.6276-2.311.622-.818.0004-1.616-.2239-2.397-.6727Zm-5.9266.5145 6.4636-11.2124 1.061.6105-1.421 2.4639-1.053 1.5746-.797 1.7428-3.1459 5.458-1.1077-.6374Zm6.4156-1.5418c.582.3351 1.177.5044 1.785.5078.613-.007 1.193-.1718 1.739-.4944.552-.333 1.011-.8166 1.377-1.4508.365-.6341.551-1.2682.556-1.902.005-.6338-.143-1.2176-.445-1.7512-.302-.5336-.744-.968-1.326-1.3032-.583-.3351-1.186-.5022-1.81-.5012-.613.007-1.193.1718-1.739.4944-.536.3286-.987.81-1.352 1.4442-.366.6341-.559 1.2704-.581 1.9086-.005.6338.143 1.2176.445 1.7512.318.5292.768.9614 1.351 1.2966ZM123.51 28.289c.534.5526.892 1.1402 1.076 1.7628.201.6229.198 1.259-.009 1.9085-.199.658-.626 1.3034-1.283 1.9362l-3.954 3.809-.887-.9196 3.862-3.7216c.718-.691 1.083-1.3927 1.096-2.105.03-.712-.268-1.3918-.893-2.0393-.467-.4836-.974-.8109-1.523-.982-.532-.1709-1.079-.1766-1.643-.0172-.546.1598-1.078.4894-1.597.989l-3.578 3.4468-.887-.9195 6.805-6.5565.85.8806-1.866 1.7984.212-.4797c.701-.2587 1.419-.2838 2.154-.0753.743.2001 1.432.6282 2.065 1.2844ZM123.464 43.6143c-.492-.7674-.765-1.5692-.817-2.4053-.035-.8325.137-1.6197.516-2.3616.39-.7484.978-1.3751 1.767-1.8801.798-.5115 1.613-.7848 2.446-.8198.834-.0351 1.616.1403 2.349.526.732.3857 1.348.9674 1.847 1.7449.506.7876.782 1.5945.827 2.4205.052.8361-.115 1.6201-.501 2.3519-.379.7419-.968 1.3686-1.766 1.8801-.788.505-1.603.7783-2.447.8198-.826.0452-1.614-.1269-2.363-.5163-.739-.3958-1.358-.9825-1.858-1.7601Zm.955-.6118c.37.5756.823 1.0046 1.361 1.287.548.276 1.136.3913 1.763.3459.643-.0418 1.273-.2601 1.889-.6551.627-.4014 1.088-.8823 1.384-1.4427.303-.5503.438-1.1285.405-1.7347-.023-.6126-.215-1.2017-.578-1.7672-.363-.5655-.819-.9862-1.367-1.2622-.538-.2824-1.123-.406-1.757-.3707-.633.0353-1.263.2536-1.889.6551-.617.3949-1.078.8758-1.384 1.4427-.296.5604-.433 1.1469-.411 1.7595.033.6062.228 1.187.584 1.7424ZM127.865 51.1102l7.645-6.5964.422 1.149-7.115 6.057-.192-.5238 9.378.1107.379 1.0308-7.096 6.1076-.193-.5238 9.366.0769.403 1.0984-10.107-.112-.416-1.1322 6.65-5.8098.13.3549-8.839-.1551-.415-1.1322Z"/>
</svg>
