<svg xmlns="http://www.w3.org/2000/svg" width="166" height="166" fill="none">
  <path fill="#000" d="M109.857 75.4298c.124-.5381-.211-1.0751-.749-1.1993l-8.769-2.0246c-.5386-.1242-1.0756.2113-1.1998.7494-.1243.5382.2113 1.0751.7494 1.1994l7.7954 1.7996-1.8 7.7949c-.124.5382.211 1.0751.749 1.1993.539.1243 1.075-.2112 1.2-.7494l2.024-8.7693ZM58.5299 107.848l50.8831-31.7951-1.06-1.6961-50.8829 31.7952 1.0598 1.696ZM148.689 88.8033c.045-.7786.195-1.5092.451-2.1915.268-.6817.581-1.2104.94-1.5863l.973.6333c-.31.3667-.59.8433-.841 1.4298-.238.5872-.376 1.2102-.414 1.8691-.052.8985.048 1.5534.3 1.9647.265.412.631.6316 1.098.6586.348.0201.624-.078.829-.2946.216-.2038.382-.4826.499-.8365.128-.3531.242-.7493.339-1.1883.098-.4391.207-.8775.329-1.3152.121-.4258.281-.8131.482-1.1621.212-.3483.487-.6269.824-.8358.336-.1969.773-.2797 1.312-.2485.515.0299.968.2004 1.359.5115.39.3111.684.7488.879 1.313.207.577.288 1.2668.241 2.0694-.035.611-.155 1.2171-.358 1.8184-.191.6019-.43 1.0929-.716 1.473l-.992-.6164c.312-.4026.541-.8401.689-1.3123.159-.4716.253-.947.281-1.4262.049-.8506-.064-1.4882-.34-1.9128-.265-.412-.625-.6312-1.08-.6576-.359-.0208-.647.0707-.863.2745-.217.2159-.396.5-.536.8524-.13.3652-.243.7613-.34 1.1884-.097.4391-.212.8712-.345 1.2962-.122.4377-.283.831-.483 1.18-.19.3617-.452.641-.788.8379-.325.2095-.745.2994-1.26.2696-.551-.032-1.021-.2155-1.41-.5505-.378-.3224-.664-.7837-.858-1.3839-.182-.5876-.249-1.2946-.201-2.1213ZM156.708 101.14c-.161.75-.448 1.376-.863 1.876-.405.515-.934.867-1.589 1.058-.657.203-1.432.209-2.323.017l-5.368-1.151.268-1.25 5.245 1.125c.974.209 1.76.12 2.358-.267.608-.373 1.006-.999 1.195-1.879.141-.657.13-1.2608-.034-1.8115-.155-.5364-.456-.9937-.903-1.3718-.437-.3639-1.008-.6213-1.712-.7723l-4.857-1.0423.268-1.2495 13.059 2.8019-.268 1.2495-6.354-1.3632.528-.1444c.606.4368 1.028 1.0182 1.264 1.744.249.7284.278 1.5386.086 2.4306ZM144.038 109.692c.346-.844.846-1.528 1.501-2.05.662-.507 1.406-.818 2.231-.934.837-.111 1.688.011 2.554.366.877.359 1.569.87 2.076 1.531.507.662.813 1.403.918 2.224.104.821-.019 1.659-.369 2.514-.355.866-.858 1.555-1.509 2.066-.655.523-1.393.836-2.214.941-.825.116-1.677-.006-2.554-.366-.866-.355-1.558-.865-2.076-1.531-.512-.651-.823-1.394-.934-2.231-.1-.832.025-1.675.376-2.53Zm1.049.43c-.259.632-.35 1.25-.273 1.852.088.607.331 1.154.728 1.641.404.502.944.893 1.621 1.17.689.282 1.348.384 1.977.304.624-.068 1.176-.29 1.653-.665.489-.37.861-.866 1.116-1.488.255-.621.338-1.236.25-1.843-.078-.602-.313-1.152-.705-1.65-.392-.498-.933-.888-1.621-1.17-.678-.278-1.336-.379-1.977-.304-.629.079-1.188.304-1.677.674-.478.375-.842.868-1.092 1.479ZM138.584 120.298c.435-.69.987-1.214 1.654-1.574.677-.353 1.42-.508 2.23-.465.814.059 1.658.364 2.53.915.873.551 1.506 1.177 1.9 1.88.404.709.587 1.442.549 2.198-.037.757-.277 1.485-.719 2.186-.48.761-1.082 1.332-1.805 1.713-.719.397-1.497.573-2.334.528-.827-.04-1.641-.312-2.443-.818-.812-.513-1.413-1.133-1.804-1.863-.391-.729-.567-1.507-.528-2.333.033-.817.29-1.606.77-2.367Zm-.273-5.94 10.945 6.907-.654 1.035-2.405-1.518-1.531-1.115-1.71-.866-5.328-3.362.683-1.081Zm1.28 6.47c-.359.568-.552 1.155-.58 1.762-.018.613.123 1.198.423 1.757.311.565.775 1.042 1.394 1.433.62.391 1.246.601 1.879.632.633.031 1.223-.094 1.769-.374.545-.28.998-.704 1.356-1.272.359-.568.55-1.164.575-1.787.018-.613-.123-1.199-.424-1.757-.306-.549-.769-1.018-1.388-1.409-.619-.39-1.247-.609-1.884-.657-.634-.03-1.223.094-1.769.374-.542.297-.992.729-1.351 1.298ZM134.814 139.885c-.557.529-1.147.884-1.772 1.063-.624.196-1.261.188-1.909-.023-.657-.204-1.299-.636-1.928-1.297l-3.782-3.979.926-.88 3.696 3.887c.686.722 1.385 1.092 2.098 1.11.712.036 1.394-.257 2.047-.877.487-.463.818-.968.993-1.515.175-.53.185-1.077.029-1.642-.155-.547-.481-1.081-.977-1.603l-3.423-3.601.926-.88 6.511 6.849-.887.843-1.786-1.878.478.215c.254.703.274 1.421.06 2.154-.206.741-.639 1.426-1.3 2.054ZM119.632 139.736c.758-.507 1.555-.793 2.39-.861.833-.05 1.623.108 2.372.473.756.376 1.394.953 1.914 1.731.526.789.815 1.599.865 2.431.051.832-.11 1.617-.483 2.356-.372.739-.942 1.365-1.711 1.878-.778.52-1.58.81-2.406.871-.835.067-1.622-.086-2.361-.458-.75-.366-1.387-.943-1.914-1.731-.52-.779-.808-1.589-.865-2.431-.061-.825.097-1.616.472-2.371.383-.746.958-1.375 1.727-1.888Zm.629.943c-.569.379-.989.841-1.262 1.383-.266.553-.37 1.142-.313 1.768.054.642.284 1.267.69 1.876.413.619.903 1.071 1.469 1.357.556.293 1.137.417 1.742.373.613-.033 1.199-.237 1.757-.61.559-.373.972-.836 1.238-1.388.272-.543.385-1.13.338-1.763-.047-.632-.277-1.257-.69-1.876-.407-.609-.896-1.061-1.469-1.357-.566-.286-1.155-.412-1.768-.378-.605.043-1.183.248-1.732.615ZM112.033 144.379l6.909 7.367-1.13.468-6.349-6.859.516-.213.278 9.373-1.014.42-6.399-6.838.516-.214.311 9.359-1.081.448-.307-10.101 1.114-.462 6.082 6.404-.349.145-.211-8.835 1.114-.462ZM92.8469 150.134c.7717-.114 1.5175-.115 2.2376-.003.7218.124 1.3031.324 1.7439.598l-.4229 1.082c-.4219-.229-.9454-.407-1.5704-.533-.6234-.114-1.2615-.124-1.9145-.027-.8904.131-1.5113.362-1.8628.693-.3498.342-.4905.745-.4223 1.208.0508.345.2029.595.4565.752.2434.17.5502.276.9204.319.3719.054.7827.085 1.2325.091.4497.007.9013.025 1.3545.055.4414.032.8533.111 1.2357.237.3841.137.7126.349.9855.637.2609.289.4308.7.5095 1.235.0753.51.0002.988-.2252 1.434-.2254.445-.5946.821-1.1074 1.127-.523.32-1.1822.538-1.9776.656-.6054.089-1.2232.095-1.8531.018-.6282-.065-1.1575-.199-1.5877-.403l.4024-1.096c.4575.224.9324.36 1.4248.408.4941.061.9786.056 1.4535-.014.8429-.124 1.4443-.364 1.8041-.72.3498-.343.4914-.74.4249-1.191-.0525-.356-.2005-.619-.4439-.79-.2553-.168-.5698-.286-.9435-.352-.3837-.053-.7946-.083-1.2324-.091-.4498-.007-.8962-.032-1.3394-.076-.4532-.03-.8711-.108-1.2535-.233-.3925-.112-.7192-.313-.9802-.602-.2711-.275-.4442-.668-.5195-1.179-.0805-.546.0038-1.044.253-1.493.239-.435.6328-.809 1.1813-1.12.5383-.298 1.217-.507 2.0362-.627ZM82.194 160.489c-.768-.006-1.4388-.161-2.0125-.465-.5857-.293-1.0383-.74-1.3577-1.343-.3313-.602-.4935-1.36-.4864-2.272l.0424-5.489 1.2779.009-.0414 5.364c-.0077.996.2385 1.748.7386 2.256.488.52 1.182.783 2.082.79.672.005 1.261-.128 1.7671-.4.494-.26.881-.648 1.161-1.161.2679-.502.4046-1.113.4102-1.833l.0383-4.968 1.278.01-.1031 13.355-1.278-.01.0502-6.497.2482.488c-.3052.681-.7894 1.212-1.4523 1.59-.663.391-1.4505.583-2.3625.576ZM71.3784 149.841c.8972.164 1.6691.512 2.3158 1.045.6327.543 1.0909 1.206 1.3745 1.99.2815.795.3381 1.653.1697 2.574-.1705.933-.5271 1.715-1.0697 2.348-.5427.633-1.2049 1.085-1.9865 1.357-.7817.272-1.6269.325-2.5359.159-.9207-.169-1.6985-.518-2.3334-1.049-.6467-.533-1.106-1.19-1.3778-1.972-.2837-.784-.3402-1.642-.1697-2.574.1683-.921.5249-1.704 1.0697-2.348.5309-.635 1.1941-1.093 1.9897-1.375.7935-.27 1.6447-.321 2.5536-.155Zm-.2039 1.115c-.6729-.123-1.296-.084-1.8693.116-.5756.212-1.0605.562-1.4549 1.051-.4084.499-.6784 1.109-.81 1.829-.1339.731-.097 1.397.1107 1.996.1958.597.5264 1.09.9919 1.481.4632.401 1.0254.663 1.6864.784.6611.12 1.2794.075 1.8549-.137.5733-.2 1.0631-.544 1.4693-1.031.4062-.487.6762-1.096.81-1.828.1317-.72.0948-1.385-.1107-1.996-.2076-.599-.5431-1.1-1.0063-1.502-.4655-.39-1.0228-.644-1.672-.763ZM59.8818 146.687c.765.284 1.3923.715 1.8817 1.293.4852.59.7904 1.285.9154 2.087.1096.808-.0151 1.696-.3741 2.664-.3589.967-.8416 1.716-1.4479 2.247-.6104.541-1.2898.871-2.038.991-.7482.119-1.5104.035-2.2868-.253-.8438-.313-1.5267-.784-2.0486-1.413-.5373-.621-.8699-1.346-.9978-2.175-.1321-.816-.0333-1.669.2965-2.558.3339-.9.8173-1.617 1.4503-2.15.633-.533 1.358-.866 2.1749-.998.8058-.136 1.6305-.048 2.4744.265Zm5.7568-1.493-4.5016 12.134-1.1476-.426.9892-2.666.7756-1.729.4949-1.851 2.1913-5.907 1.1982.445Zm-6.0669 2.588c-.6301-.234-1.2448-.302-1.8442-.205-.6035.109-1.1476.368-1.6321.777-.4887.421-.8604.974-1.115 1.66-.2546.687-.3317 1.343-.2311 1.969.1005.626.344 1.177.7305 1.653.3865.476.8948.831 1.5249 1.065.6301.233 1.2525.298 1.8673.193.6036-.109 1.1476-.368 1.6322-.777.4733-.413.8372-.963 1.0918-1.649.2546-.686.3394-1.346.2543-1.979-.1005-.626-.3441-1.177-.7306-1.653-.4019-.469-.9179-.821-1.548-1.054ZM39.9277 146.989c-.6308-.438-1.0973-.945-1.3993-1.52-.3187-.572-.44-1.196-.3639-1.874.0663-.684.3595-1.401.8798-2.15l3.1316-4.509 1.0498.729-3.0598 4.405c-.5681.818-.789 1.578-.6625 2.279.1098.705.5344 1.314 1.2737 1.827.552.383 1.1137.605 1.6851.666.5547.064 1.0926-.038 1.6137-.304.5043-.263.9619-.691 1.3726-1.282l2.8339-4.081 1.0497.729-5.3905 7.762-1.0054-.698 1.4785-2.129-.1146.512c-.6366.391-1.3355.556-2.0966.495-.7681-.051-1.5267-.337-2.2758-.857ZM37.0145 132.119c.6496.64 1.0919 1.362 1.3268 2.166.218.805.2239 1.611.0176 2.418-.2147.816-.6506 1.558-1.3077 2.224-.6655.676-1.4005 1.122-2.2051 1.34-.8046.218-1.6065.22-2.4058.005-.7992-.215-1.5279-.647-2.1861-1.295-.6667-.657-1.1132-1.384-1.3396-2.18-.235-.804-.2451-1.606-.0302-2.405.2062-.807.6421-1.549 1.3076-2.224.6571-.666 1.3921-1.113 2.2052-1.34.796-.226 1.6022-.232 2.4184-.017.8078.223 1.5407.659 2.1989 1.308Zm-.7961.807c-.4872-.48-1.0241-.798-1.6108-.955-.5951-.149-1.1932-.132-1.7944.051-.6182.182-1.1842.534-1.6981 1.056-.5223.53-.866 1.101-1.0313 1.713-.1738.603-.178 1.197-.0125 1.782.157.592.4749 1.125.9535 1.596.4787.472 1.0156.782 1.6107.93.5867.157 1.1849.149 1.7946-.025.6097-.174 1.1757-.526 1.698-1.056.5139-.522.8577-1.093 1.0314-1.713.1652-.612.1694-1.215.0123-1.808-.1655-.584-.4833-1.108-.9534-1.571ZM30.9419 125.662l-5.7901 8.275-.6908-1.01 5.4083-7.622.3149.461-9.1164 2.198-.6197-.907 5.3778-7.665.3149.46-9.0961 2.228-.6603-.966 9.8233-2.376.6807.996-5.018 7.267-.2133-.312 8.6042-2.022.6806.995ZM21.3518 108.085c.2713.731.4268 1.46.4663 2.188.0283.732-.0461 1.342-.2234 1.83l-1.1455-.19c.1365-.46.2016-1.009.1954-1.646-.0174-.634-.1409-1.26-.3705-1.879-.313-.843-.6678-1.403-1.0643-1.678-.4078-.271-.831-.326-1.2698-.163-.3263.121-.5398.322-.6405.602-.1162.274-.1566.596-.1214.967.0239.375.0794.783.1663 1.225.087.441.1626.886.2271 1.336.0602.438.0686.858.025 1.258-.0548.404-.1944.769-.4189 1.096-.2286.315-.5961.567-1.1024.754-.4838.18-.967.205-1.4498.077-.4827-.128-.9269-.411-1.3327-.849-.4212-.446-.7716-1.045-1.0513-1.799-.2128-.574-.347-1.177-.4023-1.809-.0666-.628-.045-1.174.0647-1.637l1.1561.167c-.1239.494-.1587.987-.1042 1.478.0432.496.1482.969.3152 1.419.2964.799.6561 1.338 1.0793 1.616.4078.271.8254.327 1.253.169.3375-.126.5643-.325.6805-.598.1119-.285.1616-.617.1489-.996-.0282-.387-.0836-.795-.1664-1.225-.0869-.441-.1549-.883-.2039-1.326-.0644-.449-.0748-.874-.0313-1.274.0281-.408.1565-.769.3852-1.084.2132-.322.5617-.573 1.0455-.753.5175-.192 1.0218-.212 1.5129-.062.4756.144.9226.452 1.3409.924.4029.465.7483 1.085 1.0363 1.862ZM9.07056 100.022c-.15255-.7524-.13901-1.4408.0406-2.0649.16547-.6335.51005-1.1686 1.03374-1.6053.5213-.4484 1.2289-.7632 2.1227-.9443l5.3807-1.0902.2538 1.2525-5.2571 1.0652c-.9762.1978-1.6612.5937-2.0551 1.1877-.408.5847-.5226 1.3181-.3438 2.2003.1335.658.3855 1.207.7561 1.646.3565.43.815.729 1.3756.897.5464.159 1.1724.167 1.8781.024l4.869-.987.2539 1.253-13.09004 2.652-.25385-1.253 6.36859-1.29-.4263.344c-.7299-.159-1.3486-.523-1.8561-1.094-.5192-.568-.86938-1.299-1.05054-2.193ZM17.2548 87.2585c.0246.9117-.1571 1.7389-.5452 2.4816-.4004.7311-.9547 1.3163-1.6631 1.7556-.7204.4396-1.5484.6721-2.4841.6973-.9477.0256-1.787-.1618-2.5181-.5622-.7311-.4004-1.31029-.9549-1.7376-1.6636-.4273-.7087-.65344-1.5249-.6784-2.4486-.02529-.9357.15626-1.7689.54466-2.4996.38807-.7428.93647-1.3278 1.64518-1.7551.70836-.4393 1.53646-.6717 2.48406-.6973.9357-.0253 1.775.1621 2.5181.5621.7308.3884 1.316.9428 1.7556 1.6632.4276.7207.6539 1.5429.6789 2.4666Zm-1.1336.0306c-.0185-.6837-.1848-1.2855-.499-1.8052-.3261-.5193-.7691-.9215-1.329-1.2065-.5723-.2967-1.2242-.4351-1.956-.4153-.7437.0201-1.3873.1935-1.9306.5203-.54372.3148-.95838.7402-1.244 1.2761-.29762.5362-.43735 1.1402-.4192 1.812.01816.6717.19031 1.2673.51647 1.7867.31415.5197.75133.928 1.31153 1.225.5603.297 1.2123.4354 1.956.4153.7317-.0198 1.3753-.1932 1.9306-.5203.5434-.3268.9639-.7583 1.2615-1.2946.2856-.5359.4195-1.1337.4017-1.7935ZM17.95 75.2661c-.1192.8072-.411 1.5102-.8754 2.109-.4763.597-1.0936 1.0399-1.8519 1.3285-.7684.2751-1.6632.3375-2.6842.1872-1.021-.1502-1.8537-.4668-2.498-.9498-.65626-.4847-1.1202-1.0806-1.39183-1.7877-.27163-.7071-.34698-1.4702-.22604-2.2893.13146-.8903.45072-1.656.95779-2.297.49694-.6546 1.13728-1.1305 1.92108-1.4275.772-.2988 1.6269-.3792 2.5648-.2412.9497.1398 1.751.4639 2.4037.9724.6527.5084 1.1284 1.1485 1.4268 1.9202.3003.7598.3847 1.5848.2532 2.4752Zm2.6533 5.321L7.79917 78.7028l.17878-1.2109 2.81375.4141 1.8514.3998 1.914.0997 6.2328.9173-.1866 1.2643ZM16.815 75.19c.0981-.6648.0373-1.2802-.1823-1.8462-.2316-.5678-.5976-1.0461-1.0982-1.4352-.5124-.3907-1.1307-.6394-1.8549-.746-.7242-.1066-1.3822-.0457-1.9738.1826-.5917.2283-1.0805.5809-1.4663 1.0578-.38577.4769-.62775 1.0477-.72591 1.7125-.09815.6648-.03233 1.287.19747 1.8667.23156.5677.59764 1.0461 1.09814 1.4352.5023.3771 1.1156.619 1.8398.7255.7242.1066 1.3872.0526 1.989-.1621.5917-.2283 1.0804-.5809 1.4662-1.0578.3757-.4905.6126-1.0682.7108-1.733ZM13.5559 55.6515c.2992-.7073.6991-1.2678 1.1998-1.6814.4944-.4294 1.081-.6764 1.7598-.7411.6835-.0757 1.4453.064 2.2853.4192l5.0564 2.1384-.4979 1.177-4.9404-2.0893c-.9173-.3879-1.7063-.448-2.3668-.1801-.667.2521-1.1758.7927-1.5264 1.6215-.2618.6189-.3638 1.2142-.3059 1.7859.0514.556.261 1.0615.6287 1.5167.3614.4395.8736.7994 1.5368 1.0799l4.5756 1.935-.4979 1.177-8.7037-3.6808.4769-1.1273 2.3873 1.0096-.5248-.0069c-.5131-.5427-.8179-1.1928-.9144-1.9502-.1076-.7621.0162-1.5631.3716-2.4031ZM27.505 49.7591c-.4953.7659-1.113 1.3453-1.8531 1.7385-.7437.3765-1.5319.5457-2.3646.5074-.8428-.0447-1.6572-.3212-2.4433-.8294-.7961-.5147-1.3824-1.1438-1.759-1.8874-.3765-.7436-.5406-1.5285-.4922-2.3546.0483-.8261.3234-1.6271.8252-2.403.5083-.7859 1.1292-1.3704 1.8628-1.7535.7402-.3931 1.5233-.5656 2.3495-.5172.8328.0382 1.6472.3147 2.4433.8294.786.5082 1.3723 1.1373 1.759 1.8874.383.7335.5522 1.5217.5074 2.3643-.0549.8362-.3333 1.6423-.835 2.4181Zm-.9523-.6156c.3714-.5744.5745-1.1647.6093-1.7709.0248-.6128-.1132-1.195-.4138-1.7466-.3042-.5682-.7637-1.051-1.3784-1.4485-.6248-.4039-1.2537-.6247-1.8867-.6625-.6264-.0478-1.209.0686-1.7477.3491-.5487.2739-1.0055.6931-1.3705 1.2573-.3649.5643-.5597 1.1528-.5844 1.7656-.0348.6062.0948 1.1902.3889 1.7519.2942.5617.7536 1.0445 1.3784 1.4485.6147.3974 1.2436.6182 1.8867.6625.633.0377 1.2238-.0805 1.7726-.3544.5386-.2805.9872-.6978 1.3456-1.252ZM32.5631 42.5066l-9.277-3.9939.8497-.881 8.5596 3.7524-.3873.4016-3.9988-8.4813.7622-.7904 8.5972 3.7135-.3874.4016-4.0238-8.4554.8122-.8421 4.3163 9.1375-.8372.868-8.1339-3.4418.2624-.2721 3.723 8.0154-.8372.868ZM47.6584 29.6061c-.6597.4162-1.3414.7188-2.0453.9075-.7104.1787-1.3226.2316-1.8369.1588l-.0509-1.1598c.4785.0386 1.0291-.0109 1.6518-.1484.6163-.1477 1.2035-.3976 1.7617-.7499.7611-.4803 1.2355-.9428 1.423-1.3875.1812-.4549.1469-.8802-.1029-1.2759-.1858-.2943-.4263-.4618-.7216-.5025-.2915-.0572-.6152-.0304-.9709.0806-.3621.1008-.7501.2392-1.164.4152-.4139.1761-.8342.342-1.261.4978-.4166.1494-.8251.244-1.2256.2839-.407.0298-.7933-.0315-1.1591-.1838-.3556-.1587-.6775-.4664-.9658-.9231-.2754-.4363-.4002-.9038-.3744-1.4025.0258-.4988.2112-.9918.5563-1.4792.3489-.5039.8633-.9704 1.5432-1.3995.5176-.3266 1.08-.5822 1.6873-.7667.6008-.1947 1.1391-.2861 1.6149-.2742l.0758 1.1654c-.5089-.0194-.9984.0483-1.4684.203-.4764.1445-.9175.3448-1.3235.601-.7205.4547-1.1732.9177-1.3581 1.3892-.1812.4548-.1501.8751.0933 1.2607.1922.3044.434.4852.7256.5425.3017.0508.6368.0309 1.0053-.0597.3722-.1072.7603-.2457 1.164-.4153.4139-.1761.8324-.3337 1.2554-.4729.4267-.1558.8403-.2536 1.2409-.2935.4043-.0565.7842-.0054 1.1398.1533.3594.1422.6768.4315.9522.8678.2946.4668.4189.9559.3728 1.4675-.0423.4949-.2513.9957-.6268 1.5023-.3719.4901-.9079.956-1.6081 1.3979ZM53.2032 15.8037c.7051-.3044 1.3815-.433 2.0293-.3859.654.0313 1.2487.2582 1.784.6806.5464.4176 1.0003 1.0451 1.3619 1.8823l2.1766 5.0401-1.1733.5066-2.1267-4.9244c-.3948-.9144-.9235-1.5031-1.5861-1.766-.6563-.2787-1.3975-.2397-2.2238.1171-.617.2663-1.1021.6261-1.4554 1.0792-.347.4374-.545.9477-.5938 1.5308-.0425.5673.0789 1.1815.3644 1.8425l1.9696 4.5608-1.1733.5066-5.2952-12.2615 1.1733-.5065 2.5763 5.9655-.4241-.3463c.0043-.7469.2332-1.4274.6869-2.0415.449-.6252 1.0921-1.1185 1.9294-1.48ZM67.1818 21.228c-.8871.2116-1.734.204-2.5408-.023-.7978-.2414-1.4846-.6636-2.0602-1.2664-.5785-.6146-.9764-1.377-1.1936-2.2875-.2201-.9221-.2094-1.782.032-2.5798.2413-.7978.6649-1.4787 1.2705-2.0427.6056-.5639 1.3578-.9531 2.2566-1.1675.9104-.2173 1.7632-.211 2.5582.0188.8068.2269 1.4921.6433 2.0561 1.2489.5757.6029.9736 1.3653 1.1936 2.2874.2173.9105.2067 1.7704-.032 2.5799-.2297.795-.6518 1.4817-1.2663 2.0601-.6173.5668-1.3754.9574-2.2741 1.1718Zm-.2633-1.103c.6654-.1588 1.22-.4453 1.6639-.8596.4412-.4261.7436-.9423.9073-1.5489.1725-.621.1738-1.2875.0039-1.9995-.1727-.7237-.4749-1.3178-.9065-1.7823-.4199-.4673-.9215-.7856-1.5047-.9548-.586-.181-1.2059-.1935-1.8595-.0375-.6537.1559-1.2011.4469-1.6422.8729-.444.4144-.7536.9262-.929 1.5355-.1753.6094-.1766 1.2759-.0039 1.9996.1699.712.4721 1.3061.9065 1.7822.4316.4646.9404.7873 1.5264.9682.5832.1693 1.1958.1773 1.8378.0242ZM78.8082 19.4474c-.8144.0503-1.5625-.0898-2.2442-.4204-.6824-.3425-1.2431-.8549-1.682-1.5371-.4277-.695-.6734-1.5575-.7371-2.5875-.0637-1.03.0743-1.9102.4139-2.6406.3388-.7423.8261-1.3194 1.4619-1.7314.6358-.412 1.3669-.64357 2.1934-.69465.8982-.05551 1.7133.0985 2.4451.46205.7431.3508 1.3408.879 1.7932 1.5844.4516.6935.7067 1.5133.7652 2.4595.0592.9582-.0925 1.8091-.4553 2.5529-.3628.7438-.891 1.3416-1.5844 1.7932-.6815.4509-1.4714.7041-2.3697.7596Zm-4.6588 3.6964-.7985-12.9173 1.2217-.0755.1754 2.8386-.0091 1.8941.2974 1.8933.3887 6.288-1.2756.0788Zm4.499-4.8227c.6708-.0414 1.2604-.2282 1.7688-.5602.5078-.3439.9003-.801 1.1777-1.3712.2766-.5822.3923-1.2386.3471-1.9692-.0451-.7306-.2404-1.3617-.5859-1.8934-.3455-.5317-.7913-.937-1.3376-1.2158-.5462-.2789-1.1547-.3976-1.8254-.3561-.6707.0414-1.266.2345-1.7857.5792-.5077.344-.9003.8011-1.1776 1.3713-.2654.5694-.3755 1.2195-.3303 1.9501.0451.7306.2348 1.3681.5691 1.9125.3454.5317.7913.937 1.3375 1.2158.5575.2661 1.1716.3785 1.8423.337ZM97.5281 11.0836c.7539.1467 1.3848.4224 1.8929.8269.5221.395.885.918 1.088 1.5688.215.6532.236 1.4273.061 2.3225l-1.049 5.3888-1.2544-.2442 1.0252-5.2651c.1904-.9776.0864-1.762-.312-2.353-.3843-.6005-1.0181-.9867-1.9016-1.1587-.6596-.1284-1.2631-.1053-1.8106.0693-.5334.1651-.9849.4745-1.3544.9283-.3555.4443-.602 1.0197-.7396 1.7265l-.9496 4.8764-1.2544-.2442 1.8062-9.2758 1.2014.2339-.4954 2.5442-.1014-.5149c.4252-.614.9984-1.0465 1.7196-1.2973.7236-.2626 1.5329-.3067 2.4281-.1324ZM106.118 23.4859c-.851-.3268-1.546-.8117-2.083-1.4549-.522-.65-.85-1.3864-.984-2.209-.129-.8339-.027-1.6877.309-2.5616.339-.885.834-1.5884 1.485-2.1101.65-.5217 1.384-.844 2.202-.967.819-.1229 1.659-.0188 2.522.3122.874.3354 1.574.8225 2.1 1.4613.537.6432.867 1.3739.99 2.1923.134.8226.031 1.6765-.309 2.5615-.335.8739-.83 1.5772-1.484 2.1101-.639.526-1.376.854-2.21.9838-.829.1186-1.675.0124-2.538-.3186Zm.406-1.0587c.639.2451 1.258.3222 1.859.2313.605-.1022 1.146-.3571 1.624-.765.493-.4147.871-.9638 1.134-1.6472.266-.6946.353-1.3554.259-1.9826-.082-.6228-.316-1.1688-.701-1.6381-.381-.4804-.886-.841-1.513-1.0818-.628-.2407-1.244-.3101-1.848-.208-.601.091-1.146.3382-1.635.7417-.489.4036-.867.9527-1.133 1.6472-.263.6834-.349 1.3443-.26 1.9826.093.6271.331 1.1809.712 1.6614.385.4692.886.8221 1.502 1.0585ZM114.465 27.0457l2.03-9.8932 1.035.6532-1.939 9.1419-.472-.2978 7.496-5.6357.928.586-1.893 9.1706-.472-.2977 7.465-5.6549.989.6244-8.073 6.0796-1.02-.6436 1.721-8.6621.32.2018-7.095 5.2711-1.02-.6436ZM130.179 39.2443c-.542-.5615-.977-1.1676-1.304-1.8185-.319-.6593-.495-1.248-.528-1.7662l1.125-.2851c.06.4763.22 1.0053.481 1.5871.269.5735.633 1.0978 1.091 1.5728.625.6478 1.174 1.0185 1.648 1.1119.482.0852.892-.0347 1.229-.3595.25-.2416.365-.511.345-.8084-.003-.2971-.095-.6085-.275-.9342-.173-.3341-.387-.6859-.643-1.0555-.257-.3696-.504-.7474-.744-1.1337-.23-.3775-.406-.7584-.526-1.1424-.112-.3924-.13-.7831-.055-1.1721.083-.3804.319-.758.708-1.1328.371-.3581.804-.5751 1.297-.651.494-.0759 1.014.0057 1.562.2447.564.2394 1.125.6485 1.683 1.2272.425.4405.79.9393 1.094 1.4964.312.5488.511 1.0573.596 1.5256l-1.126.3105c-.085-.5022-.25-.9677-.497-1.3965-.238-.4371-.524-.8284-.857-1.1739-.591-.6133-1.137-.9626-1.636-1.0481-.482-.0851-.887.0306-1.216.3471-.259.2499-.387.5233-.384.8204.012.3057.099.6298.263.9722.18.3427.394.6945.642 1.0554.257.3696.496.7473.718 1.1332.239.3863.419.7714.539 1.1555.138.3843.165.7667.081 1.1471-.066.3806-.285.75-.656 1.1082-.398.3831-.851.604-1.362.6626-.493.059-1.026-.0441-1.598-.3091-.556-.2646-1.121-.695-1.695-1.2909ZM144.718 41.7377c.443.6276.708 1.2631.794 1.9067.104.6465.004 1.275-.3 1.8855-.296.6204-.817 1.1934-1.563 1.719l-4.486 3.1639-.737-1.0443 4.384-3.0914c.814-.574 1.281-1.2121 1.403-1.9144.138-.6994-.052-1.4169-.571-2.1523-.388-.5491-.839-.9501-1.355-1.2029-.5-.2499-1.04-.3389-1.621-.267-.564.0747-1.14.3195-1.728.7345l-4.06 2.8631-.737-1.0443 10.915-7.6973.737 1.0444-5.311 3.7448.252-.486c.732-.149 1.445-.0645 2.14.2535.704.3111 1.318.8392 1.844 1.5845ZM142.357 56.6758c-.39-.8246-.556-1.655-.5-2.4911.072-.8304.344-1.5891.816-2.2763.483-.6923 1.147-1.2382 1.994-1.6378.857-.4047 1.701-.5709 2.531-.4985.831.0725 1.584.3471 2.261.824.676.4769 1.211 1.1331 1.606 1.9686.4.8464.569 1.6822.507 2.5074-.056.8361-.323 1.5923-.8 2.2686-.471.6872-1.136 1.2331-1.993 1.6378-.847.3996-1.69.5657-2.532.4985-.825-.0616-1.584-.3337-2.276-.8163-.682-.4877-1.22-1.1493-1.614-1.9849Zm1.025-.4841c.292.6185.687 1.1025 1.183 1.4518.508.3443 1.075.5342 1.703.5698.643.0414 1.296-.0942 1.957-.4067.673-.3176 1.193-.7353 1.559-1.2531.371-.5069.579-1.0632.625-1.6687.057-.6106-.059-1.2198-.346-1.8274-.286-.6077-.684-1.0836-1.191-1.4279-.497-.3493-1.062-.5473-1.694-.5937-.632-.0465-1.285.0891-1.958.4067-.662.3125-1.181.7302-1.558 1.2531-.366.5178-.577 1.082-.634 1.6926-.046.6055.072 1.2067.354 1.8035ZM146.468 67.6959c-.216-.7868-.233-1.5477-.049-2.2827.195-.7382.581-1.3921 1.159-1.9616.592-.5612 1.386-.9786 2.381-1.2523.995-.2737 1.885-.3193 2.67-.1368.796.1793 1.461.5379 1.994 1.0756.534.5377.911 1.2057 1.13 2.004.239.8678.256 1.6971.05 2.4879-.191.7992-.585 1.4926-1.183 2.0801-.586.5843-1.336 1.0022-2.25 1.2536-.925.2546-1.789.2806-2.592.0782-.802-.2025-1.496-.5967-2.08-1.1827-.581-.5745-.991-1.2956-1.23-2.1633Zm-4.574-3.8012 12.479-3.432.324 1.1802-2.742.7542-1.856.3797-1.792.6795-6.074 1.6707-.339-1.2323Zm5.644 3.4137c.178.6479.482 1.1866.911 1.6162.441.4263.969.7167 1.584.8711.626.1513 1.293.1299 1.998-.0642.706-.1942 1.284-.5148 1.733-.962.45-.4472.755-.9667.916-1.5586.16-.5918.152-1.2117-.027-1.8596-.178-.6479-.489-1.1908-.933-1.6288-.441-.4263-.969-.7167-1.584-.8712-.612-.1428-1.27-.1172-1.976.0769s-1.291.5106-1.755.9494c-.45.4472-.755.9667-.916 1.5586-.146.6002-.13 1.2242.049 1.8722Z"/>
</svg>
