<svg xmlns="http://www.w3.org/2000/svg" width="188" height="142" fill="none">
  <path fill="#F58B3D" fill-rule="evenodd" d="M173.641 113.595c2.406 16.38-55.949 27.064-106.176 19.608-50.2271-7.456-73.26896-36.5726-49.3014-52.0869C42.1311 65.6017 171.234 97.2159 173.641 113.595Z" clip-rule="evenodd" opacity=".504511"/>
  <path fill="#F58B3D" fill-rule="evenodd" d="M101.453 45.3416c.908-.6316 2.317-.2292 3.231.1437.352.1437 1.252.6036 1.92 1.1212-.089-.3587-.167-.7206-.236-1.0854-.282-1.5-.477-3.0286-.57-4.5481-.025-.3965.007-.8393.039-1.2879v-.0008c.011-.1517.022-.3042.031-.4558-.037-.0357-.061-.0853-.072-.1522-.004.0278-.006.05-.008.0671-.002.0277-.004.0415-.008.0425-.005.0012-.014-.0105-.031-.0341-.006-.0091-.014-.02-.023-.0327-.676-.9195-1.243-1.956-1.321-3.0953-.066-.9659.806-2.794 2.042-1.5285.553.5652.409 4.5345-.421 4.7775.221 1.3154.501 2.6285.85 3.9248.052-.0084.106-.0091.159-.0026-.005-.3222-.006-.6739.008-.7949.125-1.0418 1.081-3.1568 2.603-2.7463 1.169.3158.452 1.6149.054 2.1834-.64.9155-1.365 1.3118-2.283 1.7879-.018.1968-.157.3112-.322.3483.615 2.0936 1.422 4.1354 2.478 6.0643l.028-.1227c.135-.5855.291-1.2679.39-1.4113.518-.7504 1.664-1.6668 2.721-1.2229 2.22.9338-.19 3.6174-2.08 3.9093-.078.0988-.161.1784-.25.2239.368.5822.76 1.1524 1.18 1.7078.63.8354 1.307 1.668 2.016 2.496.022-.6476.303-2.0909.382-2.246.485-.9417 1.882-1.9108 3.015-1.2417 1.275.7544.119 2.1795-.608 2.8246-.298.2645-1.772 1.2338-2.291 1.2381 1.714 1.9522 3.606 3.8709 5.53 5.7204-.159-.828-.367-3.1079-.344-3.3609.119-1.3063 1.062-3.3956 2.919-2.8863 1.802.493 1.005 2.6632.388 3.6979-.374.6262-.89 1.2624-1.513 1.6991-.112.0787-.259.143-.405.2071-.177.0772-.353.1544-.468.2567-.103.091-.134.1956-.165.2992-.033.1094-.066.2178-.182.3086 1.04.9951 2.087 1.9694 3.119 2.9168.487.447.983.8855 1.483 1.3184.274-.1034.665.0327.645.3861-.003.0512-.016.0955-.034.136.379.3215.761.6408 1.146.9565-.009-.092-.006-.2219.012-.4008-.277.3588-.266-.1639-.257-.5626.003-.1408.006-.2659-.005-.3314-.04-.2562-.093-.5097-.146-.763-.112-.5409-.224-1.0799-.218-1.6382.012-1.185.836-3.1713 2.57-2.4655 1.594.6474 1.014 2.4035.413 3.5046-.381.6968-.902 1.3189-1.447 1.9144-.097.1063-.205.2502-.311.3929-.159.2116-.315.4199-.43.4976 1.48 1.2085 2.995 2.3816 4.511 3.5547v.0007c.679.5251 1.358 1.0506 2.033 1.5791.029-.1161.054-.2312.074-.3386-.042.0433-.099.0636-.173.0595-.019-.0888-.048-.207-.082-.349-.417-1.7328-1.688-7.011 1.753-5.9881 2.521.7516.741 5.3475-1.139 6.9552 1.141.8976 2.271 1.8069 3.375 2.7432.799.6774 1.574 1.3779 2.32 2.1021-.386-.9377-.749-2.1512-.511-3.117.348-1.4056 1.976-2.7326 3.565-1.9329 1.981 1.0012.457 2.369-.972 3.6514-.73.6548-1.435 1.2874-1.636 1.8376 2.37 2.375 4.394 5.0135 5.746 8.019 1.471 3.2685 2.836 7.6603 2.081 11.3169.139-1.6079-.457-3.6266-.876-5.0446-.057-.193-.111-.3749-.159-.5431-.629-2.1991-1.523-4.3386-2.7-6.3412-1.887-3.2075-4.379-5.9301-7.256-8.402-.656.208-1.367.593-1.957.9119-.361.1956-.677.3664-.905.456-1.101.4328-3.214 1.053-3.916-.31-.689-1.3401 1.071-2.0897 2.162-2.3902 1.054-.2897 2.004-.2547 2.988-.0171-1.523-1.2303-3.083-2.4215-4.643-3.6124v-.0002c-.287-.2193-.574-.4382-.861-.6575-.396.2962-.834.7244-1.299 1.1791-1.476 1.4428-3.224 3.1522-4.785 1.7556-2.357-2.1076 2.15-4.2497 4.07-4.0825.236.0205.464.0658.686.1273-1.958-1.5143-3.886-3.06-5.709-4.7144-.327.0545-.848.493-1.473 1.0201-1.406 1.1842-3.342 2.8145-4.8 1.5309-1.053-.9267-.692-2.3699.325-3.1951 1.021-.8288 2.502-.8273 3.761-.5483.544.1201 1.046.3493 1.514.6286.02.0009.039.0019.058.0028-1.794-1.6451-3.599-3.3271-5.337-5.0666-.031.0089-.062.0182-.093.0275-.105.1172-.281.1601-.442.1341-.089.0279-.18.0565-.273.0856-1.377.4329-3.146.9895-4.519.7496-1.01-.1768-1.927-.925-1.071-1.8462.694-.7492 2.58-.6417 3.5-.4642.449.0867.938.3379 1.428.59.206.1058.412.2118.616.3059.053-.0972.145-.1596.25-.1896-1.716-1.7481-3.354-3.5564-4.84-5.4434-.45.0634-.948.2436-1.463.4292-1.238.4468-2.566.9262-3.52-.1065-1.407-1.5246 1.24-2.4145 2.498-2.2697.425.0489.844.1585 1.249.3036-1.081-1.5536-1.907-3.2142-2.487-4.9584-.006.0026-.011.0052-.016.0079v.0002c-.008.004-.017.0083-.027.0124.009-.0045.017-.0088.025-.0134.005-.0033.011-.0066.017-.01-.058-.1744-.114-.3495-.166-.5256-.099-.0498-.191-.0865-.235-.1015.572.3591-1.84.5349-2.291.5678-.999.0727-2.337.0998-3.07-.6457-.615-.6263-.579-1.5513.174-2.0753Zm45.975 52.7539c-.043.5297-.148 1.0151-.344 1.4151.147-.4556.26-.929.344-1.4151Z" clip-rule="evenodd"/>
  <path fill="#F1F447" fill-rule="evenodd" d="M56.1109 11.4996c-.6627-.4564-1.6912-.1648-2.3589.1051-.2571.1041-.9146.4369-1.4021.8113.0646-.2594.1222-.5211.1725-.7849.2069-1.0848.3493-2.19012.4184-3.28898.0178-.28661-.0052-.60681-.0285-.93121v-.00026c-.0079-.10983-.0157-.22013-.022-.32978.0267-.02593.0448-.06174.0524-.11023.0026.02011.0041.03624.0055.04856.002.01997.0028.02997.0065.03078.0034.00084.0097-.00764.022-.02466.0047-.0066.0105-.01449.0173-.02361.4935-.66526.9083-1.41483.9656-2.23862.0485-.69867-.5873-2.02025-1.4903-1.10475-.4041.40887-.3009 3.27901.3055 3.45465-.1626.95112-.3668 1.9007-.6224 2.83823-.0382-.00608-.0772-.0066-.1157-.00184.0037-.23304.0042-.48736-.0063-.57481-.0906-.75326-.7876-2.28231-1.8986-1.98487-.8538.22861-.3312 1.16773-.0408 1.57874.4671.66174.996.94813 1.6658 1.29206.0133.1422.1152.2249.2351.2517-.4493 1.5141-1.0395 2.9909-1.8116 4.3859l-.0205-.0886c-.0979-.4233-.2118-.9168-.2841-1.0205-.3775-.5423-1.2141-1.2046-1.986-.8832-1.6213.6758.1369 2.6155 1.5168 2.8259.0574.0715.1179.129.1825.1619-.2684.4211-.5551.8335-.8619 1.2352-.4604.6043-.9547 1.2067-1.4731 1.8055-.0158-.4682-.2202-1.5117-.2784-1.6238-.3535-.6808-1.3728-1.381-2.2005-.8969-.9311.5459-.0877 1.5761.4428 2.0423.2173.1912 1.293.8915 1.6726.8945-1.2526 1.4123-2.6351 2.8003-4.0407 4.1382.1168-.5988.2697-2.2474.253-2.4304-.0867-.9445-.7743-2.4549-2.1303-2.0861-1.316.3572-.7348 1.9262-.2849 2.6741.2725.4528.6493.9127 1.1041 1.2281.082.057.1891.1032.2959.1497.1289.0557.2574.1115.3415.1854.0749.0657.0979.1413.1204.2163.0241.0791.0479.1575.1325.2231-.7596.7198-1.5244 1.4249-2.2783 2.1102-.3558.3233-.7179.6407-1.0837.9538-.2001-.0745-.4852.0239-.4705.2793.0021.0372.0118.0691.0243.0984-.277.2326-.5559.4635-.8371.692.0066-.0665.0047-.1604-.0081-.2898.2021.2595.1938-.1186.1875-.4067-.0021-.102-.0042-.1925.0034-.2397.0298-.1854.0686-.3686.1071-.5519.0822-.391.1642-.7811.1602-1.1847-.0084-.8567-.609-2.2928-1.8755-1.7819-1.1644.4687-.7415 1.7385-.3027 2.5344.2775.5037.6577.9533 1.0552 1.3839.0707.0767.1495.1809.2273.2838.1154.153.2293.3036.3137.3598-1.0814.8743-2.188 1.723-3.2948 2.5718h-.0002l-.0003.0002c-.4959.3803-.9916.7604-1.4851 1.1428-.0212-.0838-.039-.167-.0542-.2449.0309.0314.0728.0462.1267.0434.0144-.0644.0351-.1499.0602-.2526.3053-1.2532 1.2354-5.0704-1.2775-4.3294-1.8412.5443-.5438 3.8671.8285 5.029-.8335.6493-1.6593 1.3072-2.4655 1.9846-.5836.4899-1.1497.997-1.6946 1.5208.2823-.6782.548-1.5558.3742-2.2542-.253-1.016-1.4412-1.9751-2.6019-1.3963-1.4472.7248-.3347 1.713.7085 2.6399.5326.4732 1.0471.9305 1.1937 1.3284-1.7315 1.718-3.2104 3.6267-4.1988 5.8003-1.0751 2.364-2.0738 5.5401-1.5239 8.184-.1011-1.1625.3349-2.6227.6412-3.6481.0419-.1396.0812-.2711.1163-.3929.4603-1.5903 1.1138-3.1377 1.9745-4.586 1.3788-2.3199 3.1997-4.2895 5.3014-6.0781.4782.1501.9977.4284 1.4279.6589.2636.1413.494.2647.6606.3295.8036.3126 2.3466.7604 2.8592-.2254.5041-.9696-.7808-1.511-1.577-1.7278-.7696-.2092-1.4634-.1835-2.1816-.0114 1.1125-.89 2.252-1.7521 3.3913-2.6138.2097-.1584.4192-.3169.6284-.4756.2896.214.609.5235.9484.8521 1.0769 1.0428 2.3526 2.2783 3.4932 1.2677 1.7213-1.5248-1.5682-3.0722-2.9701-2.9504-.1723.0148-.3388.0476-.5011.0922 1.4304-1.0959 2.8383-2.2141 4.1703-3.411.2388.0393.619.3562 1.0753.737h.0003c1.0261.8559 2.4388 2.0342 3.5039 1.1054.7688-.6703.5064-1.7137-.2362-2.3102-.7454-.599-1.8265-.5973-2.7459-.395-.3972.0869-.7637.2528-1.1054.4548-.0147.0008-.0286.0015-.0425.0022 1.3105-1.1902 2.6289-2.4071 3.8991-3.6655.022.0064.0448.0131.0675.0198.0768.0848.2053.1158.3229.0969.0644.0198.1301.0403.1971.0613l.0016.0005c1.0052.3126 2.2974.7146 3.2994.5404.7376-.128 1.4072-.6693.7832-1.3353-.5072-.5414-1.8842-.463-2.5558-.3344-.3278.0629-.6847.2448-1.0426.427-.1506.0768-.3012.1535-.4501.2216-.0385-.0702-.1058-.1155-.1825-.1372 1.2539-1.2646 2.4508-2.5726 3.5363-3.9376.3281.0457.6923.1757 1.0678.3098.9036.3226 1.8735.6688 2.57-.0781 1.0282-1.103-.9042-1.7456-1.823-1.6405-.3102.0355-.6163.115-.9117.2199.79-1.1237 1.3935-2.3248 1.818-3.5861.0039.0019.0078.0038.0115.0057.006.0031.012.0061.0194.009-.0066-.0031-.0121-.0064-.0176-.0096-.0042-.0024-.0084-.0048-.0128-.0072.0424-.1261.083-.2529.1217-.3801.0718-.0361.1388-.0627.171-.0736-.4176.2599 1.3435.3862 1.6732.4098.7292.0522 1.7058.0714 2.2413-.4679.4493-.453.4234-1.1219-.1262-1.5006ZM22.4906 49.5532c.0322.3531.1278.6753.3163.9393-.1383-.3017-.2419-.616-.3163-.9393Z" clip-rule="evenodd" opacity=".2"/>
  <g fill-rule="evenodd" clip-rule="evenodd" opacity=".7">
    <path fill="#B45661" d="M127.731 73.7965c3.574-.1687 7.995 1.7302 8.377 5.2663.277 2.5691.191 5.1311.62 7.6967.342 2.0502 1.067 4.0184 2.056 5.8861.951 1.7959 2.924 3.3247 3.437 5.2434.327 1.2226.144 2.942-.307 4.138-.548 1.454-.257 1.339.836 2.559 2.141 2.391 4.069 4.843 5.432 7.698 1.964 4.113 3.252 8.92 2.523 13.422-.093.571-.203 2.623-1.068 2.767-.966.16-.514-1.013-.463-1.392.329-2.419.621-4.533.225-6.989-1.53-9.477-9.001-15.72-13.865-23.7633-.268-.4148-.832-1.4025-1.225-2.054-.619-1.0289-1.242-2.9861-2.081-3.7491-1.58-1.4369-.128 1.4521.18 2.0035.389.6977.818 1.4392 1.217 2.0504 1.825 2.8336 3.862 5.9265 5.746 8.8475-8.151 1.69-13.892-7.2284-16.08-13.0918-1.803-4.8307-3.959-16.1253 4.44-16.5387Z" opacity=".7"/>
    <path fill="#E7502F" d="M175.642 64.8255c-5.975.4315-9.812 4.0201-11.597 9.0392-.963 2.7048-1.074 5.4834-1.608 8.2632-.805 4.1819-2.536 7.3513-5.92 10.3307-1.047.9227-1.82 1.8701-2.369 2.8837-1.089 1.012-2.038 2.1572-2.735 3.5574-.89 1.7883-1.142 3.9333-.115 5.7163.277.479.966 1.441 1.681 1.878-2.675 5.185-4.146 10.864-3.981 16.536.101 3.423.284 6.848.499 10.267.057.918.386 2.435.879.895.452-1.409-.114-3.62-.167-5.091-.255-7.168-.473-13.685 2.769-20.381.341-.702.701-1.399 1.076-2.089.023-.012.043-.026.064-.04.014.01.027.021.041.031.024-.039.057-.085.095-.137.108-.101.202-.229.292-.371.287-.363.612-.789.614-1.023 0-.001-.001-.004-.001-.006 2.007-2.982 4.306-5.7988 6.654-8.5613-.017.0203 2.548-3.1577 2.151-1.4003-.191.8471-2.078 2.4597-2.84 3.3569-1.685 1.9957-3.664 4.5247-5.309 6.9697-.221.116-.534.684-.76 1.107-.125.215-.241.431-.356.619 5.828 1.752 10.361-1.777 13.452-5.882.004-.005.008-.01.011-.015.941-1.134 1.904-2.2604 3.108-3.1571 2.008-1.4964 4.16-1.7604 6.528-2.4967 6.458-2.008 9.203-9.6245 10.075-15.2758.984-6.3758-3.828-16.1525-12.231-15.5239Z" opacity=".7"/>
    <path fill="#E7502F" d="M163.838 46.9709c-6.133 5.8089-9.096 13.8662-11.442 21.4409-2.621 8.46-4.352 17.0506-4.418 25.8465-.044 5.7787-.217 11.5937.154 17.3667.132 2.05.356 4.103.713 6.131.03.167.829 4.695 1.593 3.64.434-.6-.819-4.697-.914-5.38-.533-3.844-.656-7.715-.631-11.587.043-6.3741-.163-12.7155.547-19.0662.105-.9484.189-1.9442.437-2.8718.263-.9863-.072-.5557.784-.9462.831-.3794 1.859-.3253 2.722-.8014 3.423-1.8888 5.174-6.7407 6.537-9.9242 1.558-3.6402 2.506-7.5223 3.263-11.3534.555-2.8146.952-5.6123 1.177-8.4634.071-.8985.075-1.8381.269-2.7216.053-.2383.315-.6598.305-.8709-.02-.4468-.316-.7094-.34-1.0847-.257.2102-.509.4256-.756.6457ZM130.396 124.367c0 9.607 8.557 17.395 19.114 17.395 10.556 0 19.114-7.788 19.114-17.395" opacity=".7"/>
    <path fill="#B45661" d="M162.609 109.137c4.731-.317 10.014 3.156 12.296 6.77 1.839 2.914 1.529 6.741.393 9.837-.761 2.073-2.421 5.028-5.19 5.057-3.465.036-3.632-3.861-3.699-6.139-.089-3.029-.51-5.667-3.132-7.732-.324-.255-.664-.493-1.003-.732-.302-.211-.603-.423-.894-.646-.046-.036-.093-.071-.14-.107-.927-.709-1.901-1.454-2.019-2.624-.172-1.694.879-1.999 2.483-1.684.052.01.193.059.384.125.819.282 2.568.886 2.237.165-.125-.272-.579-.487-1.154-.649-1.485-.147-3.257-.317-3.767-.215-5.497 1.097-7.638 8.027-8.206 12.43-.061.475-.111.952-.154 1.43h-1.01c.07-1.154.162-2.305.374-3.445.811-4.361 3.344-10.767 8.9-11.475.205-.026.959-.031 1.872.018.433-.22.918-.353 1.429-.384Z" opacity=".7"/>
  </g>
  <g fill-rule="evenodd" clip-rule="evenodd" opacity=".5">
    <path fill="#B45661" d="M46.6658 42.0274c1.1003-1.4278 3.1423-5.054 4.6909-5.5642.9976-.3286.7067 3.0705.719 3.7187.0479 2.5077-.2202 4.9994-.5515 7.4858-.597 4.4848-2.5484 8.4784-5.2252 12.2952-1.3773 1.9639-2.9931 3.9519-5.2308 5.1771-1.0298.5645-2.269.6589-3.2863 1.1452-1.1848.566-.5396.1085-1.0735 1.2317-.7413 1.5598-.9785 3.5721-1.3215 5.2363-1.575 7.64-5.3884 48.0268-4.7272 55.7978.0586.689-.9966.853-1.0495.012-.2799-4.458 2.1431-35.3342 3.3659-45.4314 1.2226-10.0975 2.4597-19.0181 3.7001-22.5113 1.505-4.2383 4.2229-9.3349 6.4854-13.2873 1.0511-1.836 2.1966-3.6091 3.5042-5.3056Z" opacity=".5"/>
    <path fill="#F1F447" d="M54.8328 91.5503c2.8632-1.9129 5.9625 1.6973 3.3714 3.6105-1.4323 1.0575-2.9297.6815-3.7726-.1999-.5472.6071-1.0594 1.2419-1.5516 1.7778-1.4996 1.6339-2.9166 3.3063-4.2711 5.0183-2.8138 3.556-5.225 7.313-7.7463 11-2.488 3.64-4.956 7.299-7.2113 11.031-1.9103 3.162-4.4567 6.882-5.1108 10.349.9924-7.352 4.7582-14.419 9.2424-20.9 4.4478-6.428 9.5521-13.4481 16.439-18.5209-.701-.9381-.7203-2.277.6109-3.1658Z" opacity=".5"/>
    <path fill="#B45661" d="M.50095 73.6204c1.60224.285 4.22031 3.5835 5.54105 4.8402 1.56961 1.4936 2.99362 3.0853 4.3359 4.7533 2.8897 3.5899 5.4741 7.4067 7.6716 11.387 3.5825 6.4891 6.4528 13.1501 8.5357 20.2151 1.2752 4.325 2.1008 8.808 2.5899 13.26.0924.84 1.0596 7.312-.3341 7.487-1.2535.157-.8662-4.915-.9267-5.605-.6836-7.784-2.7315-15.357-5.5798-22.693-.6205-1.598-1.1968-3.556-2.1892-4.994-.7145-1.036-.0051-.675-1.2608-1.067-1.0782-.337-2.3067-.254-3.4108-.667-2.3986-.8947-4.3192-2.6325-6.00277-4.3806-3.2717-3.3972-5.86437-7.0722-7.21582-11.4252-.74967-2.4133-1.438593-4.8409-1.820903-7.329-.098896-.6432-.965267-3.9655.066743-3.7818Z" opacity=".5"/>
    <path fill="#E7502F" d="M6.82389 18.7402C12.8592 28.2653 17.8188 38.7285 21.0212 49.3261c1.9405 6.421 3.2973 13.01 4.6455 19.5511 2.0874 10.1285 4.0619 20.2559 4.6236 30.5643.565 10.3675 1.6823 22.3265-2.0481 32.3125 1.8635-10.139.0892-20.93-.225-31.132-.15-4.8698-.5849-9.6922-1.1557-14.5339-.5538-4.6965-1.4585-9.3707-2.3008-14.0303-.4103-2.2694-.8413-4.5352-1.2801-6.7999-.1312-.6757-.1864-2.6806-.6575-3.1422-.4739-.4646-2.8924-.6541-3.6517-.995-1.529-.6865-2.9673-1.6618-4.2401-2.6924-2.4401-1.9756-4.5629-4.5569-6.23832-7.1015-3.87657-5.8875-5.42641-13.0727-5.34807-19.8914.01503-1.3239 2.3546-15.5798 1.415-15.7762.05658-.0603.11007-.1225.16053-.1873.71136 1.0839 1.40942 2.1752 2.10345 3.2683Z" opacity=".5"/>
    <path fill="#E7502F" d="M71.9652 53.0936c.0932-.1222.6994-.9722.3941-.9178.6213-.1108-.8547.9374.6936.2942-.7353.632-.3108 1.4526-.3011 2.303.0159 1.3809-.2378 2.7501-.5235 4.1011-.4516 2.1358-1.1243 4.2121-2.1007 6.1985-2.128 4.3288-5.7413 8.4959-10.031 11.2023-2.1178 1.3361-4.1931 1.7912-6.6083 2.4062-1.5257.3887-1.6467 1.1068-2.4566 2.4541-1.6857 2.806-3.3415 5.6018-4.8285 8.5024-1.7753 3.4639-3.4987 6.9314-5.1245 10.4564-5.4768 11.872-9.9344 24.172-12.2752 36.902-.0573-7.501 1.8496-15.227 4.2549-22.378 1.7522-5.209 4.0331-10.231 6.4661-15.2015.5894-1.2043 1.4828-2.7534 1.7333-4.083.1752-.9317-.3608-1.8274-.6061-2.8089-.9568-3.8213-.8882-8.1025-.0482-11.9444.9264-4.2364 3.605-6.2027 8.1364-6.8027 1.6571-.2197 3.7636-.1392 5.2831-.7823 1.6556-.7001 2.3385-3.0019 3.28-4.4792 2.5286-3.9691 5.5329-7.7754 8.9827-11.1195.9551-.9259 1.9823-1.7804 3.0721-2.5722.6873-.4997 2.1392-1.1152 2.6074-1.7307Z" opacity=".5"/>
    <path fill="#F1F447" d="M19.859 130.259c-.1166-.719.4961-1.365 1.2951-1.365h16.0815c.7989 0 1.4116.646 1.2951 1.365l-1.243 7.67c-.3788 2.339-2.5835 4.071-5.1807 4.071h-5.8243c-2.5972 0-4.8019-1.732-5.1808-4.071l-1.2429-7.67Z" opacity=".5"/>
  </g>
  <path fill="#F58B3D" fill-rule="evenodd" d="M6.65576 132.816c0 5.072.43986 9.184 6.34384 9.184 5.9039 0 6.3437-4.112 6.3437-9.184" clip-rule="evenodd"/>
  <path fill="#F58B3D" fill-rule="evenodd" d="M14.7557 129.651c-.2164.34-.4093.688-.5798 1.04-.006-.726.0381-1.457.1586-2.198.2059-1.271.5204-2.534.816-3.795.2124-.907.1989-2.534 1.005-3.257.2211-.156.2743.15.2743.283.0028.028-.0006-.542-.2152-.443-1.2753.599-1.6885 2.484-2.0968 3.428-.5957 1.377-1.1026 2.785-1.3113 4.218-.0527.362-.0814.724-.088 1.086-.0434-.097-.0841-.194-.1292-.291-.736-1.571-1.7294-3.104-2.96828-4.518-.30496-.347-4.13938-3.78-4.43955-3.254.02962.076.09162.139.18617.189.00555.006.00571.003.00249-.006.22518.332.86548.843 1.06492 1.133.50192.73.89201 1.505 1.28843 2.264.83754 1.606 1.61449 3.228 2.36772 4.854.1753.378.3581.755.5446 1.13-1.92236-2.523-4.48689-4.814-8.01715-6.125 1.20574.558 1.99626 1.608 2.81055 2.412.98208.97 2.01647 1.914 3.0004 2.883 1.16058 1.143 2.5261 2.347 3.6424 3.611 1.0813 2.066 2.132 4.134 2.7806 6.306-.2657-.75-.0208-1.787-.0663-2.575-.0361-.626-.1166-1.248-.2269-1.869.1364.28.2539.56.3071.821-.0486-.437-.1046-.871-.1647-1.303.1544-.405.306-.782.4084-1.093.5249-1.594 1.1499-3.161 2.0011-4.688.7876-1.413 1.691-2.808 2.6754-4.16.4592-.631.9247-1.259 1.3874-1.888.3027-.412.591-1.072 1.0125-1.466-2.7249 2.267-5.702 4.55-7.4309 7.271ZM180.049 26.1535c-.781-2.3712-2.615-4.2271-4.519-5.9275-3.706-3.3104-5.7-5.3572-7.021-10.1998-.777-2.84801-1.567-5.86602-4.031-7.93229-1.794-1.504704-4.882-2.768912-7.281-1.691446-3.691 2.004906-4.683 6.119306-4.31 9.803536.461 4.5663 2.805 7.3819 7.308 9.0637 2.537.9473 4.223 2.1972 5.601 4.3751 1.101 1.7414 1.743 3.9222 3.128 5.5008 2.07 2.3602 4.659 3.4091 7.852 3.0171-2.99-5.0065-6.484-10.0603-10.698-14.2757-.394-.4237-2.721-2.0459-2.252-2.7681.517-.7953 2.906 2.1921 2.889 2.174 1.224 1.2792 2.358 2.6386 3.47 4.0111-.002.0012-.006.0021-.009.0033 1.146 1.4085 2.282 2.8375 3.397 4.2843.451.6122.89 1.2319 1.31 1.8674.617.9324 1.595 3.5788 2.604 4.1521.216.1225.415.1911.602.2192.688 1.0258 1.358 2.0597 1.995 3.1058 1.663 2.7321 3.091 5.6168 3.746 8.7014.192.9004.056 4.2681.732 4.9181 1.235 1.1888.873-1.1006.799-1.7916-.613-5.7219-2.871-10.5967-6.148-15.4071 1.007-1.1967 1.152-4.2427.836-5.2034ZM137.761 28.9183c1.302-1.3956 4.431-1.6324 6.345-1.539 2.368.1155 4.8.6402 7.053 1.2745 3.711 1.0447 7.317 2.9514 10.586 4.7969.394.2223 5.246 2.878 4.817 3.3441-.426.4618-5.19-2.6929-6.251-3.2366-2.266-1.1605-4.344-2.533-6.841-3.2995-2.586-.7937-5.32-1.108-8.04-1.0864-.349.0029-1.487-.2185-1.511.2514-.025.4594 1.859.2197 2.191.2226 1.372.0114 2.752.1289 4.104.3453 2.534.4053 4.916 1.2216 7.086 2.474-.605 1.2813-2.057 1.872-3.58 1.5513-1.316-.2772-2.598-.9608-3.887-1.1583-.887-.1361-1.776-.0551-2.637.1725-2.27.6002-3.579 1.8302-6.075.9746-1.957-.6706-5.229-3.0803-3.36-5.0874ZM132.164 6.42945c-2.891-.19184-6.118 1.90731-7.512 4.09175-1.124 1.7613-.935 4.074-.241 5.9452.465 1.2527 1.48 3.0388 3.172 3.0562 2.116.0218 2.218-2.3334 2.259-3.7103.055-1.8305.312-3.4251 1.914-4.6729.198-.1539.405-.2981.613-.4423.184-.128.368-.2559.545-.3907.029-.0215.057-.0431.086-.0647.566-.42871 1.161-.87894 1.234-1.58555.105-1.02402-.537-1.2083-1.517-1.01806-.032.00613-.118.03546-.235.07532-.5.17083-1.569.53538-1.367.0996.076-.1642.354-.29432.705-.3918.908-.08886 1.991-.19196 2.302-.13037 3.358.66336 4.666 4.85176 5.013 7.51286.04.3014.071.6037.098.9065h.616c-.043-.7111-.099-1.4211-.231-2.1244-.495-2.6359-2.043-6.50736-5.438-6.9352-.125-.01594-.586-.01863-1.143.01084-.265-.13305-.561-.2135-.873-.23199Z" clip-rule="evenodd"/>
</svg>
