<svg xmlns="http://www.w3.org/2000/svg" width="68" height="76" fill="none">
  <path fill="#000" d="M47.1463 31.6202c.0432-.2727-.1429-.5288-.4156-.572l-4.4446-.704c-.2727-.0432-.5289.1429-.5721.4156-.0432.2728.1429.5289.4157.5721l3.9507.6257-.6257 3.9508c-.0432.2727.1429.5289.4156.5721.2727.0432.5289-.1429.5721-.4157l.7039-4.4446ZM24.2939 48.4045l22.6525-16.458-.5878-.809-22.6525 16.458.5878.809ZM58.6659 40.5006c.063-.5598.2002-1.0807.4115-1.5629.2199-.4812.4664-.8504.7396-1.1076l.6769.4943c-.2377.2525-.4584.5853-.6619.9986-.1949.4142-.319.8582-.3724 1.3319-.0727.6459-.0261 1.122.14 1.4284.1747.3073.43.4798.7659.5174.2498.0279.4528-.0322.6091-.1804.1638-.1387.2948-.3333.3928-.584.1066-.2497.2037-.531.2912-.8438.0876-.3129.1838-.6248.2886-.9357.1038-.3024.2348-.5755.3931-.8194.1669-.243.3759-.4332.6269-.5708.25-.129.5688-.1719.9563-.1285.3704.0414.6904.1819.9599.4214.2696.2394.4639.5664.5829.9809.1267.424.1575.9245.0925 1.5016-.0494.4392-.1592.8717-.3292 1.2974-.1615.4267-.3529.7715-.5744 1.0345l-.6913-.4828c.2406-.2783.4234-.5849.5484-.9198.1335-.3338.2197-.673.2585-1.0175.0688-.6115.0121-1.0757-.1703-1.3926-.1747-.3073-.4257-.4793-.753-.5159-.2583-.0289-.4695.0259-.6334.1646-.1648.1472-.3048.3452-.4201.5939-.1075.2583-.2046.5396-.2912.8439-.0876.3129-.1876.62-.3.9213-.1048.311-.2364.5884-.3946.8323-.1507.2535-.351.4447-.601.5737-.2424.1386-.5487.1872-.9191.1458-.3962-.0444-.7281-.1949-.9957-.4516-.26-.2471-.4481-.5908-.5642-1.0311-.1085-.4307-.1292-.9432-.0623-1.5375ZM63.3463 50.1166c-.207.5146-.4888.9246-.8453 1.2301-.3516.3168-.7723.5032-1.262.5595-.493.0642-1.0453-.0259-1.6569-.2704l-3.6816-1.472.3445-.8562 3.5972 1.4381c.6679.267 1.2388.2993 1.7127.0967.4787-.1913.8393-.5884 1.082-1.1914.1812-.4503.2472-.8813.198-1.2929-.0444-.4005-.2024-.7623-.4741-1.0856-.2668-.312-.6416-.5645-1.1245-.7576l-3.3316-1.3319.3446-.8563 8.9567 3.5809-.3446.8563-4.3576-1.7422.3939-.0386c.3778.3844.6065.8492.686 1.3944.0877.5483.0085 1.1281-.2374 1.7391ZM53.4711 53.3089c.4168-.51.9069-.8768 1.4701-1.1004.5646-.2114 1.1447-.2707 1.7403-.1778.6024.0984 1.1659.3606 1.6907.7867.5315.4316.9032.9287 1.1149 1.4914.2117.5626.2674 1.1382.1671 1.7266-.1003.5883-.3616 1.1409-.7839 1.6576-.4278.5234-.9206.8936-1.4784 1.1105-.5633.2236-1.14.2856-1.7301.186-.5957-.0929-1.1592-.3552-1.6908-.7868-.5247-.4261-.8964-.9232-1.1148-1.4913-.2172-.556-.2763-1.1342-.1772-1.7348.1057-.5951.3698-1.151.7921-1.6677Zm.6358.5163c-.3126.3825-.5055.7897-.5786 1.2215-.0664.4373-.0134.8655.159 1.2846.1736.4312.4656.8134.876 1.1467.4172.3387.8518.5465 1.3039.6233.4466.0835.8746.0459 1.2841-.1128.4163-.1532.778-.4177 1.0851-.7935.3071-.3758.4939-.7823.5602-1.2196.0732-.4319.0263-.8607-.1406-1.2865-.1669-.4258-.4589-.808-.8761-1.1467-.4104-.3333-.845-.541-1.3038-.6233-.4521-.0768-.8862-.0386-1.3025.1146-.4095.1587-.7651.4226-1.0667.7917ZM47.4506 58.7618c.4907-.3265 1.0092-.5102 1.5555-.551.5512-.0337 1.0881.0827 1.6107.3491.5203.2784.9878.7272 1.4026 1.3465.4147.6193.649 1.2181.7026 1.7966.0585.5857-.0359 1.1222-.2832 1.6095-.2473.4873-.6199.8966-1.1178 1.2279-.5411.3601-1.1065.5594-1.6962.5978-.592.0505-1.1578-.0623-1.6973-.3383-.5347-.2688-.9926-.6876-1.3736-1.2565-.3858-.576-.6008-1.1617-.6448-1.757-.0441-.5953.0683-1.1594.3373-1.6923.2617-.5281.6631-.9722 1.2042-1.3323Zm1.5657-3.9932 5.2015 7.766-.7359.4898-1.1431-1.7066-.6838-1.1845-.8751-1.0729-2.532-3.7804.7684-.5114Zm-1.0558 4.6377c-.404.2688-.7045.5989-.9014.9902-.1921.3985-.271.8257-.2367 1.2818.0391.4633.2057.9145.4999 1.3538.2942.4392.646.762 1.0555.9684.4094.2064.8356.2976 1.2785.2736.4428-.0241.8663-.1705 1.2703-.4394.4041-.2689.7057-.6049.905-1.0082.1921-.3985.271-.8258.2367-1.2819-.0414-.4512-.2093-.8965-.5035-1.3357-.2942-.4393-.6448-.7681-1.0519-.9865-.4094-.2064-.8356-.2976-1.2784-.2735-.4453.036-.8699.1885-1.274.4574ZM38.6036 69.3223c-.5481.0848-1.0444.052-1.4889-.0985-.4517-.1406-.8265-.407-1.1244-.7994-.3065-.3911-.5105-.912-.6118-1.5628l-.6102-3.9178.9121-.1412.5962 3.8279c.1107.7108.3739 1.2181.7897 1.5221.4085.3139.9339.4212 1.5763.3218.4796-.0743.8839-.2377 1.213-.4903.3218-.2427.5525-.5635.6921-.9622.1324-.3888.1586-.8401.0786-1.3539l-.5522-3.5453.9122-.1411 1.0503 6.7437-.8736.1352-.2881-1.8497.1953.3249c-.138.5213-.4213.9553-.8497 1.3023-.427.3555-.966.5836-1.6169.6843ZM30.7224 62.4809c.6517.0957 1.2175.3278 1.6975.6961.4701.3757.8171.8428 1.0412 1.4013.2227.567.2847 1.1849.1858 1.8537-.1002.6773-.3383 1.2511-.7145 1.7214-.3762.4703-.8431.8134-1.4007 1.0293-.5576.2159-1.1665.2754-1.8267.1784-.6688-.0983-1.2389-.331-1.7103-.6981-.4799-.3683-.8277-.8311-1.0431-1.3884-.2241-.5585-.286-1.1764-.1858-1.8537.0989-.6687.337-1.2425.7145-1.7214.3676-.4715.8351-.8189 1.4025-1.0422.5662-.2146 1.1794-.2734 1.8396-.1764Zm-.1198.8102c-.4887-.0718-.9376-.0283-1.3466.1306-.4102.1675-.7517.4327-1.0244.7955-.2825.3702-.4624.8168-.5398 1.3398-.0786.5316-.0356 1.0109.129 1.438.1561.4259.4069.7737.7525 1.0435.3443.2783.7566.4528 1.2367.5233.4802.0706.9254.0221 1.3357-.1453.4089-.1589.7541-.4192 1.0353-.7808.2813-.3617.4612-.8082.5398-1.3398.0774-.523.0344-1.0023-.129-1.438-.1646-.4272-.4191-.7799-.7634-1.0582-.3456-.2698-.7542-.4393-1.2258-.5086ZM25.0311 61.3169l-.9959 7.2194-.7777-.4202.9657-6.6742.3546.1916-5.1404 4.4186-.6977-.3769.9315-6.6927.3545.1916-5.1175 4.431-.7435-.4017 5.5366-4.7661.7663.414-.8314 6.3182-.2402-.1297 4.8688-4.1369.7663.414ZM14.1091 52.7163c.3304.4562.5797.9335.748 1.4317.1611.5033.2271.9416.1979 1.315l-.835.0882c.0062-.3461-.0545-.7401-.182-1.1822-.1346-.437-.3417-.8486-.6213-1.2346-.3812-.5265-.7366-.8473-1.0662-.9625-.3365-.1102-.642-.0666-.9164.1308-.204.1468-.314.3274-.33.5418-.0281.2124.006.4441.1022.6952.0892.2561.2067.5292.3526.8193.1459.2901.2847.5852.4165.8854.1268.2932.2136.5831.2606.8696.0399.2915.0132.5723-.0801.8424-.0985.263-.306.5084-.6226.7362-.3025.2176-.6343.3283-.9955.3319-.3612.0036-.72553-.1079-1.09303-.3346-.37961-.2287-.73971-.5782-1.08029-1.0485-.25925-.358-.46926-.7514-.63002-1.1802-.16779-.4238-.25818-.8072-.27116-1.1502l.83786-.1064c.00907.3672.08011.7164.21309 1.0478.12595.3365.29059.6451.49392.9259.36092.4983.71573.8036 1.06443.9157.3366.1102.6385.0691.9059-.1233.211-.1518.3306-.334.3587-.5464.023-.2194-.0066-.4597-.0887-.7209-.0943-.2631-.2118-.5362-.3526-.8193-.1459-.2901-.2787-.5843-.3983-.8825-.1319-.3002-.2212-.5936-.2682-.8801-.0591-.2884-.0394-.5642.059-.8272.0863-.265.2807-.5063.5832-.7239.3236-.2329.6711-.3441 1.0425-.3337.3592.0085.7302.1366 1.113.3843.3706.2459.7313.6109 1.082 1.0953ZM4.16247 48.7561c-.19345-.5199-.26112-1.0123-.20299-1.4773.04697-.4701.23288-.89.5577-1.2596.3218-.3777.7916-.6808 1.40939-.9092l3.71892-1.3751.32193.8651-3.63358 1.3435c-.67469.2495-1.11926.6079-1.33371 1.0753-.22561.4622-.22505.9979.00165 1.6071.16928.4549.41087.8183.72479 1.0903.30277.2669.66369.4292 1.08275.4867.40791.0525.85573-.0114 1.34346-.1918l3.36532-1.2443.3219.865-9.04733 3.3453-.32193-.8651 4.40175-1.6275-.26574.2923c-.53891-.0317-1.02155-.2229-1.44793-.5734-.4345-.3476-.76662-.83-.99635-1.4473ZM9.30905 39.8036c.03568.6577-.07928 1.2585-.34489 1.8022-.27472.5356-.66349.9688-1.16631 1.2997-.51147.3313-1.10471.5152-1.77973.5515-.68368.0369-1.29335-.0821-1.82903-.357-.53568-.2749-.96472-.6641-1.28713-1.1674-.3224-.5034-.50168-1.0883-.53783-1.7546-.03662-.6751.07811-1.2801.34418-1.8152.2656-.5438.65004-.9767 1.15333-1.299.50281-.3308 1.09606-.5147 1.77973-.5515.67502-.0364 1.2847.0826 1.82903.357.53521.2663.96858.6552 1.30011 1.1668.32288.512.50239 1.1012.53854 1.7675Zm-.81781.0441c-.02676-.4933-.15865-.9245-.39566-1.2936-.24566-.3686-.57341-.6504-.98323-.8453-.41895-.2031-.89238-.2904-1.42028-.2619-.53655.0289-.99777.1666-1.38365.4131-.38635.2378-.67738.5529-.87307.9453-.20435.3929-.29338.8317-.26709 1.3163.02629.4846.16226.9112.40793 1.2799.237.3691.56066.6554.97095.859.4103.2035.88372.2908 1.42028.2619.5279-.0284.98912-.1661 1.38365-.413.38589-.2465.681-.5662.88535-.9591.1957-.3924.28064-.8266.25482-1.3026ZM10.0741 31.7089c-.14377.5716-.40411 1.0559-.78103 1.453-.38534.3951-.86092.6693-1.42677.8227-.57213.1428-1.21975.1239-1.94284-.0568-.7231-.1807-1.29886-.4675-1.72729-.8604-.43683-.395-.72744-.8563-.87182-1.3837-.14437-.5274-.14363-1.081.00224-1.661.15856-.6304.44314-1.1578.85374-1.5822.40431-.435.89886-.7312 1.48363-.8888.57636-.1597 1.19666-.1566 1.8609.0094.67265.1681 1.22528.4581 1.65788.8699.43261.4119.72843.9057.88746 1.4814.1611.5673.1624 1.1662.0039 1.7965Zm1.5243 4.0123-9.06811-2.2661.21563-.8573 1.99272.4979 1.30208.4192 1.36859.2081 4.41429 1.1031-.2252.8951Zm-2.33473-4.1478c.11838-.4707.11899-.9172.0018-1.3395-.12559-.4245-.35429-.7943-.68609-1.1095-.34022-.3172-.76677-.54-1.27967-.6681-.51289-.1282-.9902-.1314-1.43194-.0095s-.81842.3404-1.13005.6556c-.31163.3152-.52664.7081-.64503 1.1788-.11839.4706-.11584.9224.00764 1.3553.12559.4244.35429.7942.68609 1.1094.33392.3068.75733.5242 1.27022.6524.5129.1282.99336.1366 1.44139.0252.44174-.1218.81842-.3404 1.13005-.6555.30534-.3257.5172-.7239.63559-1.1946ZM9.49727 17.9983c.34943-.4307.73953-.7396 1.17033-.9267.4294-.1993.8866-.2539 1.3714-.1637.4903.0835.9918.3319 1.5047.7452l3.0871 2.4882-.5815.7168-3.0163-2.4311c-.56-.4513-1.0964-.6499-1.6092-.5956-.514.0421-.9757.3155-1.3852.8203-.30576.3769-.49569.7693-.56981 1.177-.0754.3956-.03081.7878.13377 1.1764.1633.3765.44734.7279.85224 1.0542l2.7936 2.2516-.5815.7168-5.31389-4.2829.55691-.6865 1.45753 1.1747-.36337-.1092c-.24813-.4782-.33002-.9895-.24566-1.5337.07762-.5496.3239-1.0802.73885-1.5918ZM19.8282 17.8418c-.547.3669-1.1225.5755-1.7264.6258-.6016.0382-1.1738-.0737-1.7167-.3357-.5477-.2692-1.0107-.6839-1.3889-1.2442-.3831-.5674-.5942-1.1511-.6332-1.7511-.0391-.5999.0749-1.1669.3419-1.7007.267-.5339.6775-.9867 1.2318-1.3585.5614-.3765 1.1404-.5875 1.7372-.633.6039-.0502 1.1737.058 1.7093.3249.5429.262 1.0059.6767 1.389 1.2442.3782.5603.5893 1.144.6332 1.7511.0462.5951-.0653 1.1656-.3346 1.7115-.2742.5387-.6884.994-1.2426 1.3657Zm-.4583-.6788c.4103-.2752.7132-.6088.9086-1.0008.1906-.3991.2644-.8243.2212-1.2754-.0407-.4631-.209-.9138-.5048-1.3519-.3007-.4454-.6561-.7705-1.0663-.9754-.403-.2097-.8235-.2982-1.2614-.2653-.4428.0256-.8657.1737-1.2688.444-.403.2704-.6999.6051-.8905 1.0043-.1954.392-.2752.816-.2393 1.2719.036.4559.2043.9066.5049 1.3519.2958.4382.6513.7633 1.0663.9754.4102.2049.8367.2945 1.2795.2689.4379-.0329.8548-.1821 1.2506-.4476ZM24.9337 14.8097l-4.1162-6.02626.8592-.20782 3.7719 5.60128-.3917.0947.8401-6.71671.7708-.18643 3.8098 5.59214-.3917.0947.8149-6.71063.8213-.19865-.9002 7.23948-.8466.2048-3.6322-5.2472.2654-.06417-.8282 6.32597-.8466.2048ZM38.7915 13.8561c-.5508-.1178-1.0556-.3056-1.5144-.5632-.4568-.2661-.7996-.5477-1.0282-.8448l.56-.6246c.2274.2613.5366.5136.9275.7567.3928.2347.8222.4019 1.2883.5016.6356.1359 1.1143.1364 1.4359.0013.3234-.1435.5207-.3805.5919-.7109.0529-.2457.0134-.4536-.1184-.6236-.1216-.1766-.3022-.326-.5418-.4482-.2379-.1306-.5081-.2549-.8107-.3728-.3027-.1179-.6035-.2443-.9024-.3792-.2906-.133-.5493-.2902-.7761-.4717-.2251-.18996-.3935-.41653-.5053-.67974-.1033-.26138-.1139-.58271-.0318-.96398.0784-.36431.2503-.66876.5157-.91332.2655-.24456.6104-.40563 1.0349-.48322.4348-.08426.9361-.06565 1.504.0558.4322.09245.8516.24421 1.2583.45527.4085.2026.7326.427.9721.67322l-.55.64011c-.2529-.26679-.5397-.4788-.8604-.63603-.319-.16571-.6479-.28482-.9869-.35733-.6018-.12871-1.0695-.11797-1.4032.03221-.3235.14352-.5199.37626-.5892.69822-.0547.25417-.0213.46959.1002.64626.1301.17847.3131.33726.5491.47637.2463.13245.5165.25672.8107.37286.3026.1179.5983.2476.8869.3891.299.1348.562.293.7888.4745.2372.1748.4075.3929.5108.6543.1136.2547.1312.5642.0527.9285-.0839.3898-.267.7051-.5494.946-.272.2343-.633.3875-1.083.4597-.4396.0655-.9518.0357-1.5366-.0894ZM48.9315 10.1516c.4918.2565.8719.5768 1.1401.9609.2799.3805.4229.8167.429 1.3086.0139.4959-.1322 1.0355-.4383 1.6187l-1.8424 3.511-.8184-.4267 1.8001-3.4304c.3342-.637.4245-1.2007.2709-1.6913-.1419-.4943-.5011-.8917-1.0774-1.1922-.4304-.2243-.8533-.3324-1.2687-.3242-.4036.0046-.7804.1258-1.1303.3636-.3383.2342-.6282.5815-.8698 1.042l-1.6672 3.1771-.8184-.4267 4.4821-8.54144.8184.42671-2.1806 4.15563.0017-.395c.4217-.33725.9083-.51848 1.4598-.54369.5556-.03289 1.1254.10292 1.7094.40739ZM51.1599 20.2557c-.4682-.4633-.7862-.9852-.9541-1.5659-.1555-.5806-.1576-1.1619-.0063-1.7437.1575-.5879.4747-1.1214.9517-1.6003.4832-.4851 1.0161-.8052 1.5986-.9603.5826-.1551 1.1627-.1541 1.7402.0028.5776.157 1.1035.4702 1.5779.9396.4805.4755.8016 1.0005.9633 1.575.1678.5807.173 1.1588.0155 1.7345-.1514.5818-.4686 1.1153-.9518 1.6004-.477.479-1.0099.7991-1.5986.9603-.5764.1611-1.1595.1633-1.7493.0063-.5837-.163-1.1128-.4793-1.5871-.9487Zm.5779-.5803c.3512.3475.7387.5786 1.1627.6933.43.1086.8627.0978 1.2981-.0322.4476-.1301.8579-.3825 1.231-.7571.3792-.3807.6294-.7915.7505-1.2325.1274-.4349.1319-.8632.0138-1.2849-.1121-.4279-.3406-.8125-.6856-1.1539-.3449-.3414-.7325-.5663-1.1625-.6749-.424-.1147-.8567-.1101-1.2982.0139s-.8519.3763-1.231.757c-.3731.3746-.6233.7854-.7506 1.2326-.1211.4409-.1257.8753-.0136 1.3032.1181.4218.3466.8003.6854 1.1355ZM55.9845 26.6486c-.2796-.5188-.4141-1.0514-.4034-1.5978.0183-.5505.185-1.0724.5001-1.5655.3268-.4896.8187-.9104 1.4758-1.2623.657-.3518 1.2767-.5264 1.8591-.5237.59-.0013 1.1165.1444 1.5795.4371.463.2928.8363.7024 1.1201 1.2288.3084.5722.454 1.1529.4369 1.7421-.0054.5927-.1712 1.1436-.4975 1.6526-.3186.5048-.7796.9189-1.3832 1.2421-.6112.3273-1.2159.4841-1.8141.4702-.5983-.0139-1.1506-.1802-1.6571-.4988-.5024-.311-.9078-.7526-1.2162-1.3248Zm-3.8375-1.9413 8.2398-4.4126.4194.7781-1.8107.9697-1.2464.5643-1.1531.765-4.0111 2.148-.4379-.8125Zm4.5287 1.4974c.2302.4273.5313.7576.9033.991.3796.2293.7985.349 1.2569.3591.466.0061.932-.1157 1.398-.3653.4661-.2495.8214-.5676 1.0659-.9542.2445-.3865.3757-.8009.3934-1.2429.0177-.4421-.0886-.8767-.3189-1.3039-.2303-.4273-.5372-.7593-.9209-.9963-.3796-.2293-.7986-.349-1.2569-.3591-.4543-.0025-.9144.121-1.3805.3706-.466.2496-.8272.5659-1.0835.9489-.2445.3865-.3756.8009-.3933 1.2429-.006.4456.1062.882.3365 1.3092Z"/>
</svg>
