<svg aria-hidden="true" style="position: absolute; width: 0; height: 0; overflow: hidden;" version="1.1" xmlns="http://www.w3.org/2000/svg" xmlns:xlink="http://www.w3.org/1999/xlink">
<defs>
<symbol id="icon-thank-you" viewBox="0 0 42 32"><path fill="#f58b3d" d="M39.13 25.599c.542 3.691-12.608 6.099-23.927 4.419S-1.308 21.776 4.093 18.28c5.401-3.496 34.495 3.628 35.037 7.319z" opacity=".505" style="fill:var(--color1, #f58b3d)"/><path fill="#f58b3d" d="M22.863 10.218c.205-.142.522-.052.728.032.165.074.307.158.438.257l-.006-.004a7.862 7.862 0 0 1-.18-1.245l-.001-.025c-.006-.089.002-.189.009-.29l.007-.103a.054.054 0 0 1-.016-.034l-.002.015c0 .006-.001.009-.002.01s-.003-.002-.007-.008l-.005-.007c-.152-.207-.28-.441-.298-.697-.015-.218.182-.63.46-.345.125.128.092 1.022-.095 1.077.05.296.113.592.192.884a.123.123 0 0 1 .036-.001h-.001l-.001-.068.003-.117v.005c.028-.235.244-.711.587-.619.263.071.102.364.012.492-.144.206-.308.296-.514.403-.004.044-.035.07-.073.078.139.472.32.932.558 1.367l.006-.028c.03-.132.066-.286.088-.318.117-.169.375-.376.613-.276.5.21-.043.815-.469.881a.202.202 0 0 1-.055.05h-.001c.083.131.171.26.266.385.142.188.295.376.454.562.005-.146.068-.471.086-.506.109-.212.424-.431.679-.28.287.17.027.491-.137.637-.067.059-.399.278-.516.279.386.44.813.872 1.246 1.289a6.914 6.914 0 0 1-.078-.757c.027-.295.239-.765.658-.651.406.111.226.6.087.833a1.27 1.27 0 0 1-.341.383c-.025.018-.058.032-.091.047a.384.384 0 0 0-.105.058c-.023.02-.03.044-.037.067a.122.122 0 0 1-.041.07c.234.224.47.444.703.657.11.101.222.2.334.297.062-.023.15.007.145.087a.079.079 0 0 1-.008.031v-.001l.258.215-.001-.031c0-.021.001-.042.004-.062v.002c-.062.081-.06-.037-.058-.127a.565.565 0 0 0-.001-.075c-.009-.058-.021-.115-.033-.172-.025-.122-.05-.243-.049-.369.003-.267.188-.714.579-.556.359.146.229.542.093.79a2.29 2.29 0 0 1-.326.432 1.068 1.068 0 0 0-.07.089c-.036.048-.071.095-.097.112.237.195.568.458.902.716l.114.085.458.356c.007-.026.012-.052.017-.076a.046.046 0 0 1-.034.014h-.006l-.018-.079c-.094-.39-.38-1.58.395-1.349.568.169.167 1.205-.257 1.567.257.202.512.407.761.618.19.161.36.316.525.476l-.003-.003c-.087-.211-.169-.485-.115-.702.078-.317.445-.616.803-.436.446.226.103.534-.219.823-.165.147-.323.29-.369.414.534.535.99 1.13 1.295 1.807.331.736.639 1.726.469 2.55.031-.362-.103-.817-.197-1.137l-.036-.123a6.137 6.137 0 0 0-.624-1.457l.016.029c-.425-.723-.987-1.336-1.635-1.894-.148.047-.308.134-.441.206a2.17 2.17 0 0 1-.204.103c-.248.098-.724.237-.882-.07-.155-.302.241-.471.487-.539.238-.065.452-.057.673-.004a48.735 48.735 0 0 0-1.046-.814l-.194-.148a3.27 3.27 0 0 0-.293.266c-.333.325-.727.71-1.078.395-.531-.475.485-.958.917-.92a.8.8 0 0 1 .155.029c-.441-.341-.876-.69-1.287-1.062-.074.012-.191.111-.332.23-.317.267-.753.634-1.082.345-.237-.209-.156-.534.073-.72s.564-.187.848-.124c.123.027.236.079.341.142h.013c-.404-.371-.811-.75-1.203-1.142l-.021.006a.11.11 0 0 1-.1.03h.001l-.062.019c-.31.098-.709.223-1.018.169-.228-.04-.434-.208-.241-.416.156-.169.581-.145.789-.105.101.019.211.076.322.133.046.024.093.048.139.069a.09.09 0 0 1 .056-.043h.001a14.957 14.957 0 0 1-1.091-1.227c-.101.014-.214.055-.33.097-.279.101-.578.209-.793-.024-.317-.343.279-.544.563-.512.096.011.19.036.281.069a4.257 4.257 0 0 1-.551-1.087l-.009-.031-.003.001h-.001l.004-.002a2.346 2.346 0 0 1-.037-.119.616.616 0 0 0-.05-.022l-.003-.001c.129.081-.415.121-.516.128-.225.016-.527.023-.692-.146-.139-.141-.13-.35.039-.468zm10.36 11.888a.885.885 0 0 1-.078.319c.033-.103.059-.21.078-.319z" style="fill:var(--color1, #f58b3d)"/><path fill="#f1f447" d="M12.645 2.592c.124.085.13.236.028.338-.121.121-.341.117-.505.105-.074-.005-.471-.034-.377-.092l-.002.001a.243.243 0 0 0-.036.016l-.027.086.003.002.004.002h.001l-.008-.004-.007.022a3.102 3.102 0 0 1-.403.786.924.924 0 0 1 .206-.05c.207-.024.642.121.411.37-.157.168-.375.09-.579.018-.085-.03-.167-.059-.241-.07a10.87 10.87 0 0 1-.797.887.067.067 0 0 1 .041.031c.033-.015.067-.033.101-.05a.947.947 0 0 1 .235-.096c.151-.029.462-.047.576.075.141.15-.01.272-.176.301-.226.039-.517-.051-.744-.122l-.044-.014a.083.083 0 0 1-.073-.022l-.015-.005.004-.004c-.28.275-.567.545-.883.83l.01-.001-.004.002a.817.817 0 0 1 .253-.104c.207-.046.451-.046.619.089s.226.37.053.521c-.24.209-.558-.056-.79-.249-.103-.086-.188-.157-.242-.166-.3.27-.617.522-.94.768l-.004.001a.617.617 0 0 1 .118-.022c.316-.028 1.057.321.669.665-.257.228-.545-.051-.787-.286a2.167 2.167 0 0 0-.214-.192l-.142.107c-.257.194-.514.388-.764.589a.944.944 0 0 1 .492.003c.18.049.469.171.355.389-.116.222-.463.121-.644.051-.037-.015-.089-.043-.149-.074-.097-.052-.214-.115-.322-.149-.473.403-.884.847-1.195 1.37l.011-.02c-.19.317-.342.66-.456 1.054l-.026.088c-.069.231-.167.56-.144.822-.124-.596.101-1.312.343-1.845.223-.49.556-.92.946-1.307-.033-.09-.149-.193-.269-.299-.235-.209-.486-.432-.16-.595.262-.13.529.086.586.315.039.158-.021.355-.084.508.123-.118.25-.232.382-.343.181-.153.368-.301.556-.447-.309-.262-.602-1.011-.187-1.133.566-.167.356.693.288.976l-.014.057a.036.036 0 0 1-.029-.01l.001.007.011.049.335-.258.088-.065c.244-.187.486-.377.655-.515a.443.443 0 0 1-.071-.081.754.754 0 0 0-.051-.064 1.621 1.621 0 0 1-.238-.312c-.099-.179-.194-.465.068-.571.285-.115.421.208.423.402.001.091-.018.179-.036.267a2.708 2.708 0 0 0-.024.124c-.002.011-.001.031-.001.054.001.065.003.15-.042.092v-.002a.315.315 0 0 1 .003.044l-.001.023.189-.156a.054.054 0 0 1-.005-.022c-.003-.058.061-.08.106-.063.082-.071.164-.142.244-.215.17-.154.342-.313.513-.476-.019-.015-.024-.032-.03-.05v-.001a.096.096 0 0 0-.027-.048c-.019-.016-.048-.029-.077-.042a.382.382 0 0 1-.067-.034.9.9 0 0 1-.249-.277c-.101-.169-.232-.522.064-.603.306-.083.46.257.48.47.004.041-.031.412-.057.548.317-.302.628-.614.911-.933-.086-.001-.328-.158-.377-.201-.12-.105-.31-.337-.1-.46.186-.109.416.049.496.202.013.025.059.26.063.366a8.59 8.59 0 0 0 .332-.407c.069-.091.134-.184.194-.278h-.001a.125.125 0 0 1-.04-.036c-.311-.048-.707-.485-.342-.637.174-.073.362.077.448.199.016.023.042.135.064.23l.005.02-.013.025c.171-.308.31-.635.421-1.014-.027-.006-.05-.025-.053-.057-.151-.077-.27-.142-.375-.291-.065-.093-.183-.304.009-.356.25-.067.407.277.428.447v-.004c.002.029.002.058.002.087l-.001.046.012-.001.015.001c.058-.211.104-.425.14-.64-.137-.039-.16-.686-.069-.779.203-.206.347.092.336.249-.013.186-.107.354-.218.505l-.004.005-.005.006-.002-.007-.001-.011a.04.04 0 0 1-.012.025l.005.074c.005.073.011.145.007.21a6.15 6.15 0 0 1-.094.741 2.804 2.804 0 0 1-.039.177l-.004.003c.096-.071.2-.132.32-.186.151-.061.382-.127.531-.024zm-7.577 8.575.001.007c.017.073.042.144.07.204a.419.419 0 0 1-.071-.212z" opacity=".2" style="fill:var(--color2, #f1f447)"/><path fill="#b45661" d="M28.784 16.63c.805-.038 1.802.39 1.888 1.187.062.579.043 1.156.14 1.734.077.462.24.906.463 1.327.214.405.659.749.775 1.182.074.276.032.663-.069.933-.123.328-.058.302.188.577.482.539.917 1.091 1.224 1.735.443.927.733 2.01.569 3.025-.021.129-.046.591-.241.624-.218.036-.116-.228-.104-.314.074-.545.14-1.022.051-1.575-.345-2.136-2.028-3.543-3.125-5.355-.06-.094-.188-.316-.276-.463-.14-.232-.28-.673-.469-.845-.356-.324-.029.327.041.452.088.157.184.325.274.462.411.639.87 1.336 1.295 1.994-1.837.381-3.131-1.629-3.624-2.95-.406-1.088-.892-3.634 1.001-3.727z" opacity=".49" style="fill:var(--color3, #b45661)"/><path fill="#e7502f" d="M39.581 14.609c-1.346.097-2.211.906-2.613 2.037-.217.61-.242 1.236-.362 1.862-.181.942-.572 1.657-1.334 2.328-.236.208-.41.421-.534.65a2.785 2.785 0 0 0-.616.802c-.201.403-.257.886-.026 1.288.062.108.218.325.379.423-.603 1.168-.934 2.448-.897 3.726.023.771.064 1.543.112 2.314.013.207.087.549.198.202.102-.318-.026-.816-.038-1.147-.057-1.615-.107-3.084.624-4.593.077-.158.158-.315.242-.471l.014-.009.009.007.021-.031a.438.438 0 0 0 .066-.084c.065-.082.138-.178.138-.231v-.001c.452-.672.97-1.307 1.499-1.929-.004.005.574-.712.485-.316-.043.191-.468.554-.64.756-.38.45-.826 1.02-1.196 1.571-.05.026-.12.154-.171.249-.028.048-.054.097-.08.14 1.313.395 2.335-.4 3.031-1.326l.002-.003c.212-.256.429-.509.7-.711.453-.337.937-.397 1.471-.563 1.455-.453 2.074-2.169 2.27-3.442.222-1.437-.863-3.64-2.756-3.498z" opacity=".49" style="fill:var(--color4, #e7502f)"/><path fill="#e7502f" d="M36.921 10.585c-1.382 1.309-2.05 3.125-2.578 4.832-.591 1.906-.981 3.842-.996 5.824-.01 1.302-.049 2.613.035 3.914.03.462.08.925.161 1.382.007.038.187 1.058.359.82.098-.135-.185-1.058-.206-1.212-.12-.866-.148-1.739-.142-2.611.01-1.436-.037-2.866.123-4.297.024-.214.043-.438.098-.647.059-.222-.016-.125.177-.213.187-.086.419-.073.613-.181.771-.425 1.166-1.519 1.473-2.236.351-.82.565-1.695.735-2.558.113-.532.206-1.184.261-1.848l.004-.06c.016-.202.017-.414.061-.613.012-.054.071-.149.069-.196-.005-.101-.071-.16-.077-.245a4.406 4.406 0 0 0-.175.15l.005-.004zm-7.536 17.441c0 2.165 1.928 3.92 4.307 3.92s4.307-1.755 4.307-3.92z" opacity=".49" style="fill:var(--color4, #e7502f)"/><path fill="#b45661" d="M36.644 24.594c1.066-.071 2.257.711 2.771 1.526.414.657.345 1.519.089 2.217-.172.467-.546 1.133-1.17 1.14-.781.008-.818-.87-.834-1.383-.02-.683-.115-1.277-.706-1.742-.073-.057-.15-.111-.226-.165a4.642 4.642 0 0 1-.215-.156l.014.01-.032-.024c-.209-.16-.428-.328-.455-.591-.039-.382.198-.45.56-.38a.895.895 0 0 1 .087.028c.185.064.579.2.504.037-.028-.061-.13-.11-.26-.146-.335-.033-.734-.071-.849-.048-1.239.247-1.721 1.809-1.849 2.801a8.795 8.795 0 0 0-.035.322h-.228c.016-.26.036-.519.084-.776.183-.983.754-2.426 2.006-2.586.046-.006.216-.007.422.004a.816.816 0 0 1 .322-.087z" opacity=".49" style="fill:var(--color3, #b45661)"/><path fill="#b45661" d="M10.516 9.471c.248-.322.708-1.139 1.057-1.254.225-.074.159.692.162.838.011.565-.05 1.127-.124 1.687-.135 1.01-.574 1.911-1.177 2.771-.31.443-.674.891-1.179 1.167-.232.127-.512.149-.741.258-.267.128-.122.025-.242.278-.167.352-.22.805-.298 1.18-.355 1.722-1.214 10.823-1.065 12.574.013.155-.225.192-.237.003-.063-1.005.483-7.963.759-10.238s.554-4.286.834-5.073c.339-.955.952-2.104 1.462-2.994.237-.414.495-.814.79-1.196z" opacity=".25" style="fill:var(--color3, #b45661)"/><path fill="#f1f447" d="M12.357 20.631c.645-.431 1.344.383.76.814-.323.238-.66.154-.85-.045-.123.137-.239.28-.35.401-.314.342-.629.71-.931 1.089l-.032.041c-.634.801-1.177 1.648-1.746 2.479a52.653 52.653 0 0 0-1.625 2.486c-.43.713-1.004 1.551-1.152 2.332.224-1.657 1.072-3.249 2.083-4.71 1.002-1.449 2.153-3.031 3.705-4.174-.158-.212-.162-.513.137-.714z" opacity=".25" style="fill:var(--color2, #f1f447)"/><path fill="#b45661" d="M.113 16.59c.361.064.951.808 1.249 1.091.354.337.675.695.977 1.071.611.751 1.183 1.59 1.682 2.476l.046.09a22.642 22.642 0 0 1 1.924 4.555c.287.975.473 1.985.584 2.988.021.189.239 1.648-.075 1.687-.283.035-.195-1.108-.209-1.263-.154-1.754-.615-3.461-1.257-5.114-.14-.36-.27-.801-.493-1.125-.161-.233-.001-.152-.284-.24-.243-.076-.52-.057-.769-.15-.541-.202-.974-.593-1.353-.987-.737-.766-1.321-1.594-1.626-2.575-.169-.544-.324-1.091-.41-1.652-.023-.145-.218-.894.015-.852z" opacity=".25" style="fill:var(--color3, #b45661)"/><path fill="#e7502f" d="M1.538 4.223c1.36 2.146 2.478 4.504 3.199 6.893.437 1.447.743 2.932 1.047 4.406.47 2.283.915 4.565 1.042 6.888.127 2.336.379 5.031-.462 7.282.42-2.285.02-4.717-.051-7.016a37.82 37.82 0 0 0-.261-3.275c-.125-1.058-.329-2.112-.518-3.162-.092-.512-.19-1.022-.288-1.532-.03-.152-.042-.604-.148-.708s-.652-.147-.823-.224a4.435 4.435 0 0 1-.955-.607c-.55-.445-1.028-1.027-1.406-1.6C1.04 10.241.691 8.622.709 7.085c.003-.298.531-3.511.319-3.555a.47.47 0 0 0 .036-.042c.16.244.318.49.474.736z" opacity=".25" style="fill:var(--color4, #e7502f)"/><path fill="#e7502f" d="M16.217 11.965c.021-.028.158-.219.089-.207.14-.025-.192.211.156.066-.166.142-.07.327-.068.519.004.311-.054.62-.118.924a5.95 5.95 0 0 1-.473 1.397 6.42 6.42 0 0 1-2.261 2.524c-.477.301-.945.404-1.489.542-.344.088-.371.249-.553.553-.38.632-.753 1.262-1.088 1.916-.4.78-.788 1.562-1.155 2.356-1.234 2.675-2.239 5.447-2.766 8.316-.013-1.69.417-3.431.959-5.043.395-1.174.909-2.306 1.457-3.426.133-.271.334-.62.391-.92.039-.21-.081-.412-.137-.633-.216-.861-.2-1.826-.011-2.692.209-.955.812-1.398 1.834-1.533.373-.05.848-.031 1.191-.176.373-.158.527-.677.739-1.009a13.903 13.903 0 0 1 2.024-2.506c.21-.203.436-.393.674-.567l.018-.013c.155-.113.482-.251.588-.39z" opacity=".25" style="fill:var(--color4, #e7502f)"/><path fill="#f1f447" d="M4.475 29.354c-.026-.162.112-.308.292-.308h3.624c.18 0 .318.146.292.308l-.28 1.728c-.086.527-.582.917-1.168.917H5.923c-.585 0-1.082-.39-1.168-.917l-.28-1.728z" opacity=".25" style="fill:var(--color2, #f1f447)"/><path fill="#f58b3d" d="M1.5 29.93c0 1.143.099 2.07 1.43 2.07s1.429-.927 1.429-2.07z" style="fill:var(--color1, #f58b3d)"/><path fill="#f58b3d" d="M3.325 29.217a2.472 2.472 0 0 0-.131.234 2.968 2.968 0 0 1 .036-.495c.046-.286.117-.571.184-.855.048-.204.045-.571.226-.734.05-.035.062.034.062.064.001.006 0-.122-.048-.1-.288.135-.381.56-.473.773-.134.31-.249.628-.295.951a1.957 1.957 0 0 0-.02.243v.002l-.029-.066a4.38 4.38 0 0 0-.673-1.023l.004.005c-.069-.078-.933-.852-1.001-.733a.091.091 0 0 0 .042.043v-.001c.051.075.195.19.24.255.113.165.201.339.29.51.118.212.297.571.467.935l.067.159.123.255c-.433-.569-1.011-1.085-1.807-1.38.272.126.45.362.633.544.221.219.455.431.676.65.262.258.569.529.821.814.244.466.48.932.626 1.421-.06-.169-.005-.403-.015-.58a3.527 3.527 0 0 0-.055-.443l.003.022a.794.794 0 0 1 .069.185 7.706 7.706 0 0 0-.044-.351l.007.058c.035-.091.069-.176.092-.246.118-.359.259-.712.451-1.056.205-.364.405-.67.621-.963l-.018.025c.103-.142.208-.284.313-.425.068-.093.133-.242.228-.33-.614.511-1.285 1.025-1.675 1.639zM40.574 5.894c-.176-.534-.589-.953-1.018-1.336-.835-.746-1.285-1.207-1.582-2.299-.175-.642-.353-1.322-.908-1.788-.404-.339-1.1-.624-1.641-.381-.832.452-1.055 1.379-.971 2.209.104 1.029.632 1.664 1.647 2.043.572.213.952.495 1.262.986.248.392.393.884.705 1.239.466.532 1.05.768 1.769.68-.674-1.128-1.461-2.267-2.411-3.217-.089-.096-.613-.461-.508-.624.117-.179.655.494.651.49.276.288.531.595.782.904l-.002.001c.189.228.44.543.687.86l.079.106c.102.138.201.278.295.421.139.21.359.807.587.936a.406.406 0 0 0 .136.05c.111.159.259.387.403.619l.047.081c.375.616.697 1.266.844 1.961.043.203.013.962.165 1.108.278.268.197-.248.18-.404-.138-1.289-.647-2.388-1.385-3.472.227-.27.26-.956.188-1.173zm-9.529.623c.293-.314.999-.368 1.43-.347.534.026 1.082.144 1.589.287.836.235 1.649.665 2.386 1.081.089.05 1.182.649 1.086.754s-1.17-.607-1.409-.729c-.511-.261-.979-.571-1.542-.744a6.047 6.047 0 0 0-1.812-.245c-.079.001-.335-.049-.34.057-.006.104.419.05.494.05.309.003.62.029.925.078a4.618 4.618 0 0 1 1.597.558c-.136.288-.464.422-.807.349-.297-.062-.585-.216-.876-.261-.2-.031-.4-.013-.594.039-.512.135-.807.412-1.369.22-.441-.151-1.178-.694-.757-1.147zm-1.262-5.068c-.651-.043-1.379.43-1.693.922-.253.397-.211.918-.054 1.34.105.282.334.685.715.689.477.005.5-.526.509-.836.012-.413.07-.772.431-1.053.045-.034.091-.067.138-.1.041-.029.083-.058.123-.088l.019-.015c.128-.097.262-.198.278-.357.024-.231-.121-.272-.342-.229-.007.001-.027.008-.053.017-.113.039-.354.121-.308.023.017-.037.08-.066.159-.088.205-.02.449-.043.519-.029.757.149 1.052 1.093 1.13 1.693.009.068.016.136.022.204h.139c-.01-.16-.022-.32-.052-.479-.112-.594-.46-1.467-1.225-1.563a2.208 2.208 0 0 0-.258.002.494.494 0 0 0-.195-.052h-.001z" style="fill:var(--color1, #f58b3d)"/></symbol>
<symbol id="icon-error-icon" viewBox="0 0 32 32">
<path d="M0 16c0-8.838 7.162-16 16-16s16 7.162 16 16c0 8.837-7.163 16-16 16s-16-7.163-16-16zM10.938 13.006l2.944 2.938-2.944 2.994c-0.581 0.588-0.581 1.538 0 2.069 0.588 0.637 1.537 0.637 2.069 0l2.938-2.888 2.994 2.888c0.588 0.637 1.538 0.637 2.069 0 0.637-0.531 0.637-1.481 0-2.069l-2.888-2.994 2.888-2.938c0.637-0.531 0.637-1.481 0-2.069-0.531-0.581-1.481-0.581-2.069 0l-2.994 2.944-2.938-2.944c-0.531-0.581-1.481-0.581-2.069 0-0.581 0.588-0.581 1.537 0 2.069z"></path>
</symbol>
<symbol id="icon-correct-icon" viewBox="0 0 32 32">
<path d="M0 16c0-8.838 7.162-16 16-16s16 7.162 16 16c0 8.837-7.163 16-16 16s-16-7.163-16-16zM23.237 13.238c0.681-0.681 0.681-1.794 0-2.475s-1.794-0.681-2.475 0l-6.763 6.762-2.763-2.762c-0.681-0.681-1.794-0.681-2.475 0s-0.681 1.794 0 2.475l4 4c0.681 0.681 1.794 0.681 2.475 0l8-8z"></path>
</symbol>
<symbol id="icon-tel-icon" viewBox="0 0 32 32">
<path d="M26.332 6.267l-3.347-3.344c-0.409-0.409-0.955-0.638-1.534-0.638s-1.125 0.226-1.534 0.638l-3.605 3.598c-0.409 0.409-0.638 0.958-0.638 1.537 0 0.581 0.226 1.125 0.638 1.537l2.816 2.819c-0.642 1.495-1.563 2.852-2.715 4-1.153 1.16-2.502 2.074-3.998 2.721l-2.816-2.819c-0.409-0.408-0.955-0.638-1.534-0.638-0.285-0.001-0.568 0.055-0.831 0.164s-0.502 0.271-0.703 0.473l-3.608 3.598c-0.409 0.408-0.638 0.958-0.638 1.537 0 0.581 0.226 1.125 0.638 1.537l3.344 3.344c0.698 0.698 1.659 1.097 2.646 1.097 0.204 0 0.402-0.016 0.603-0.050 4.161-0.685 8.291-2.9 11.625-6.232 3.331-3.337 5.544-7.466 6.235-11.63 0.198-1.182-0.198-2.398-1.047-3.249zM25.15 9.143c-0.613 3.705-2.605 7.401-5.607 10.402s-6.694 4.993-10.4 5.606c-0.465 0.078-0.943-0.078-1.282-0.415l-3.284-3.284 3.482-3.485 3.793 3.799 0.679-0.251c2.058-0.757 3.928-1.952 5.478-3.503s2.745-3.42 3.501-5.479l0.251-0.679-3.797-3.793 3.482-3.485 3.284 3.284c0.339 0.339 0.497 0.817 0.418 1.282z"></path>
</symbol>
<symbol id="icon-hero-button" viewBox="0 0 32 32">
<path d="M11.079 18.921c-0.090 0.056-0.118 0.175-0.061 0.266s0.175 0.118 0.266 0.061l-0.204-0.327zM21.177 12.999c0.024-0.104-0.041-0.207-0.144-0.231l-1.69-0.39c-0.104-0.024-0.207 0.041-0.231 0.144s0.041 0.207 0.144 0.231l1.503 0.347-0.347 1.503c-0.024 0.104 0.041 0.207 0.144 0.231s0.207-0.041 0.231-0.144l0.39-1.69zM11.283 19.248l9.809-6.129-0.204-0.327-9.809 6.129 0.204 0.327z"></path>
<path d="M28.663 17.119c0.009-0.15 0.038-0.291 0.087-0.422 0.052-0.131 0.112-0.233 0.181-0.306l0.188 0.122c-0.060 0.071-0.114 0.163-0.162 0.276-0.046 0.113-0.072 0.233-0.080 0.36-0.010 0.173 0.009 0.299 0.058 0.379 0.051 0.079 0.122 0.122 0.212 0.127 0.067 0.004 0.12-0.015 0.16-0.057 0.042-0.039 0.074-0.093 0.096-0.161 0.025-0.068 0.047-0.144 0.065-0.229s0.040-0.169 0.063-0.254c0.023-0.082 0.054-0.157 0.093-0.224 0.041-0.067 0.094-0.121 0.159-0.161 0.065-0.038 0.149-0.054 0.253-0.048 0.099 0.006 0.187 0.039 0.262 0.099s0.132 0.144 0.169 0.253c0.040 0.111 0.056 0.244 0.046 0.399-0.007 0.118-0.030 0.235-0.069 0.351-0.037 0.116-0.083 0.211-0.138 0.284l-0.191-0.119c0.060-0.078 0.104-0.162 0.133-0.253 0.031-0.091 0.049-0.183 0.054-0.275 0.009-0.164-0.012-0.287-0.066-0.369-0.051-0.079-0.12-0.122-0.208-0.127-0.069-0.004-0.125 0.014-0.166 0.053-0.042 0.042-0.076 0.096-0.103 0.164-0.025 0.070-0.047 0.147-0.066 0.229-0.019 0.085-0.041 0.168-0.067 0.25-0.024 0.084-0.055 0.16-0.093 0.227-0.037 0.070-0.087 0.124-0.152 0.162-0.063 0.040-0.144 0.058-0.243 0.052-0.106-0.006-0.197-0.042-0.272-0.106-0.073-0.062-0.128-0.151-0.165-0.267-0.035-0.113-0.048-0.25-0.039-0.409z"></path>
<path d="M30.209 19.497c-0.031 0.145-0.086 0.265-0.166 0.362-0.078 0.099-0.18 0.167-0.306 0.204-0.127 0.039-0.276 0.040-0.448 0.003l-1.035-0.222 0.052-0.241 1.011 0.217c0.188 0.040 0.339 0.023 0.455-0.051 0.117-0.072 0.194-0.193 0.23-0.362 0.027-0.127 0.025-0.243-0.007-0.349-0.030-0.103-0.088-0.192-0.174-0.264-0.084-0.070-0.194-0.12-0.33-0.149l-0.936-0.201 0.052-0.241 2.517 0.54-0.052 0.241-1.225-0.263 0.102-0.028c0.117 0.084 0.198 0.196 0.244 0.336 0.048 0.14 0.054 0.297 0.017 0.469z"></path>
<path d="M27.766 21.145c0.067-0.163 0.163-0.295 0.289-0.395 0.128-0.098 0.271-0.158 0.43-0.18 0.161-0.021 0.325 0.002 0.492 0.071 0.169 0.069 0.302 0.168 0.4 0.295s0.157 0.27 0.177 0.429c0.020 0.158-0.004 0.32-0.071 0.485-0.068 0.167-0.165 0.3-0.291 0.398-0.126 0.101-0.269 0.161-0.427 0.181-0.159 0.022-0.323-0.001-0.492-0.071-0.167-0.068-0.3-0.167-0.4-0.295-0.099-0.125-0.159-0.269-0.18-0.43-0.019-0.16 0.005-0.323 0.072-0.488zM27.969 21.228c-0.050 0.122-0.067 0.241-0.053 0.357 0.017 0.117 0.064 0.222 0.14 0.316 0.078 0.097 0.182 0.172 0.312 0.226 0.133 0.054 0.26 0.074 0.381 0.059 0.12-0.013 0.227-0.056 0.319-0.128 0.094-0.071 0.166-0.167 0.215-0.287s0.065-0.238 0.048-0.355c-0.015-0.116-0.060-0.222-0.136-0.318s-0.18-0.171-0.312-0.226c-0.131-0.054-0.258-0.073-0.381-0.059-0.121 0.015-0.229 0.059-0.323 0.13-0.092 0.072-0.162 0.167-0.21 0.285z"></path>
<path d="M26.715 23.19c0.084-0.133 0.19-0.234 0.319-0.303 0.131-0.068 0.274-0.098 0.43-0.090 0.157 0.011 0.32 0.070 0.488 0.176s0.29 0.227 0.366 0.362c0.078 0.137 0.113 0.278 0.106 0.424s-0.053 0.286-0.139 0.421c-0.093 0.147-0.209 0.257-0.348 0.33-0.139 0.077-0.289 0.11-0.45 0.102-0.159-0.008-0.316-0.060-0.471-0.158-0.157-0.099-0.272-0.218-0.348-0.359s-0.109-0.291-0.102-0.45c0.006-0.157 0.056-0.31 0.148-0.456zM26.662 22.045l2.11 1.331-0.126 0.2-0.464-0.293-0.295-0.215-0.33-0.167-1.027-0.648 0.132-0.208zM26.909 23.292c-0.069 0.11-0.106 0.223-0.112 0.34-0.003 0.118 0.024 0.231 0.082 0.339 0.060 0.109 0.149 0.201 0.269 0.276s0.24 0.116 0.362 0.122 0.236-0.018 0.341-0.072c0.105-0.054 0.192-0.136 0.261-0.245s0.106-0.224 0.111-0.344c0.003-0.118-0.024-0.231-0.082-0.339-0.059-0.106-0.148-0.196-0.268-0.272s-0.24-0.117-0.363-0.127c-0.122-0.006-0.236 0.018-0.341 0.072-0.104 0.057-0.191 0.141-0.26 0.25z"></path>
<path d="M25.988 26.966c-0.107 0.102-0.221 0.17-0.342 0.205-0.12 0.038-0.243 0.036-0.368-0.004-0.127-0.039-0.25-0.123-0.372-0.25l-0.729-0.767 0.178-0.17 0.712 0.749c0.132 0.139 0.267 0.21 0.404 0.214 0.137 0.007 0.269-0.050 0.395-0.169 0.094-0.089 0.158-0.187 0.191-0.292 0.034-0.102 0.036-0.208 0.006-0.317-0.030-0.105-0.093-0.208-0.188-0.309l-0.66-0.694 0.178-0.17 1.255 1.32-0.171 0.163-0.344-0.362 0.092 0.041c0.049 0.136 0.053 0.274 0.012 0.415-0.040 0.143-0.123 0.275-0.251 0.396z"></path>
<path d="M23.062 26.937c0.146-0.098 0.3-0.153 0.461-0.166 0.161-0.010 0.313 0.021 0.457 0.091 0.146 0.072 0.269 0.184 0.369 0.334 0.101 0.152 0.157 0.308 0.167 0.469s-0.021 0.312-0.093 0.454c-0.072 0.142-0.182 0.263-0.33 0.362-0.15 0.1-0.305 0.156-0.464 0.168-0.161 0.013-0.313-0.017-0.455-0.088-0.145-0.071-0.267-0.182-0.369-0.334-0.1-0.15-0.156-0.306-0.167-0.469-0.012-0.159 0.019-0.312 0.091-0.457 0.074-0.144 0.185-0.265 0.333-0.364zM23.183 27.119c-0.11 0.073-0.191 0.162-0.243 0.267-0.051 0.107-0.071 0.22-0.060 0.341 0.010 0.124 0.055 0.244 0.133 0.362 0.080 0.119 0.174 0.206 0.283 0.262 0.107 0.056 0.219 0.080 0.336 0.072 0.118-0.006 0.231-0.046 0.339-0.118s0.187-0.161 0.239-0.268c0.052-0.105 0.074-0.218 0.065-0.34s-0.053-0.242-0.133-0.362c-0.078-0.117-0.173-0.205-0.283-0.262-0.109-0.055-0.223-0.079-0.341-0.073-0.117 0.008-0.228 0.048-0.334 0.119z"></path>
<path d="M21.597 27.832l1.332 1.42-0.218 0.090-1.224-1.322 0.099-0.041 0.054 1.807-0.195 0.081-1.234-1.318 0.099-0.041 0.060 1.804-0.208 0.086-0.059-1.947 0.215-0.089 1.172 1.235-0.067 0.028-0.041-1.703 0.215-0.089z"></path>
<path d="M17.898 28.942c0.149-0.022 0.293-0.022 0.431-0.001 0.139 0.024 0.251 0.062 0.336 0.115l-0.082 0.209c-0.081-0.044-0.182-0.078-0.303-0.103-0.12-0.022-0.243-0.024-0.369-0.005-0.172 0.025-0.291 0.070-0.359 0.134-0.067 0.066-0.095 0.144-0.081 0.233 0.010 0.067 0.039 0.115 0.088 0.145 0.047 0.033 0.106 0.053 0.177 0.061 0.072 0.010 0.151 0.016 0.238 0.018s0.174 0.005 0.261 0.011c0.085 0.006 0.165 0.021 0.238 0.046 0.074 0.026 0.137 0.067 0.19 0.123 0.050 0.056 0.083 0.135 0.098 0.238 0.015 0.098 0 0.19-0.043 0.276s-0.115 0.158-0.213 0.217c-0.101 0.062-0.228 0.104-0.381 0.126-0.117 0.017-0.236 0.018-0.357 0.003-0.121-0.013-0.223-0.038-0.306-0.078l0.078-0.211c0.088 0.043 0.18 0.069 0.275 0.079 0.095 0.012 0.189 0.011 0.28-0.003 0.163-0.024 0.278-0.070 0.348-0.139 0.067-0.066 0.095-0.143 0.082-0.23-0.010-0.069-0.039-0.119-0.086-0.152-0.049-0.032-0.11-0.055-0.182-0.068-0.074-0.010-0.153-0.016-0.238-0.018-0.087-0.001-0.173-0.006-0.258-0.015-0.087-0.006-0.168-0.021-0.242-0.045-0.076-0.022-0.139-0.060-0.189-0.116-0.052-0.053-0.086-0.129-0.1-0.227-0.016-0.105 0.001-0.201 0.049-0.288 0.046-0.084 0.122-0.156 0.228-0.216 0.104-0.057 0.235-0.098 0.393-0.121z"></path>
<path d="M15.845 30.938c-0.148-0.001-0.277-0.031-0.388-0.090-0.113-0.056-0.2-0.143-0.262-0.259-0.064-0.116-0.095-0.262-0.094-0.438l0.008-1.058 0.246 0.002-0.008 1.034c-0.001 0.192 0.046 0.337 0.142 0.435 0.094 0.1 0.228 0.151 0.401 0.152 0.13 0.001 0.243-0.025 0.341-0.077 0.095-0.050 0.17-0.125 0.224-0.224 0.052-0.097 0.078-0.215 0.079-0.353l0.007-0.958 0.246 0.002-0.020 2.574-0.246-0.002 0.010-1.252 0.048 0.094c-0.059 0.131-0.152 0.234-0.28 0.306-0.128 0.075-0.28 0.112-0.455 0.111z"></path>
<path d="M13.76 28.885c0.173 0.032 0.322 0.099 0.446 0.201 0.122 0.105 0.21 0.232 0.265 0.384 0.054 0.153 0.065 0.319 0.033 0.496-0.033 0.18-0.102 0.331-0.206 0.453s-0.232 0.209-0.383 0.262c-0.151 0.052-0.314 0.063-0.489 0.031-0.177-0.033-0.327-0.1-0.45-0.202-0.125-0.103-0.213-0.229-0.266-0.38-0.055-0.151-0.066-0.317-0.033-0.496 0.032-0.178 0.101-0.328 0.206-0.453 0.102-0.122 0.23-0.211 0.384-0.265 0.153-0.052 0.317-0.062 0.492-0.030zM13.72 29.1c-0.13-0.024-0.25-0.016-0.36 0.022-0.111 0.041-0.204 0.108-0.28 0.203-0.079 0.096-0.131 0.214-0.156 0.353-0.026 0.141-0.019 0.269 0.021 0.385 0.038 0.115 0.101 0.21 0.191 0.285 0.089 0.077 0.198 0.128 0.325 0.151s0.247 0.014 0.358-0.026c0.111-0.039 0.205-0.105 0.283-0.199s0.13-0.211 0.156-0.352c0.025-0.139 0.018-0.267-0.021-0.385-0.040-0.115-0.105-0.212-0.194-0.29-0.090-0.075-0.197-0.124-0.322-0.147z"></path>
<path d="M11.543 28.277c0.147 0.055 0.268 0.138 0.363 0.249 0.094 0.114 0.152 0.248 0.176 0.402 0.021 0.156-0.003 0.327-0.072 0.514s-0.162 0.331-0.279 0.433c-0.118 0.104-0.249 0.168-0.393 0.191s-0.291 0.007-0.441-0.049c-0.163-0.060-0.294-0.151-0.395-0.272-0.104-0.12-0.168-0.259-0.192-0.419-0.025-0.157-0.006-0.322 0.057-0.493 0.064-0.174 0.158-0.312 0.28-0.414s0.262-0.167 0.419-0.192c0.155-0.026 0.314-0.009 0.477 0.051zM12.653 27.989l-0.868 2.339-0.221-0.082 0.191-0.514 0.149-0.333 0.095-0.357 0.422-1.139 0.231 0.086zM11.484 28.488c-0.121-0.045-0.24-0.058-0.355-0.040-0.116 0.021-0.221 0.071-0.315 0.15-0.094 0.081-0.166 0.188-0.215 0.32s-0.064 0.259-0.045 0.38 0.066 0.227 0.141 0.319c0.075 0.092 0.172 0.16 0.294 0.205s0.241 0.057 0.36 0.037c0.116-0.021 0.221-0.071 0.315-0.15 0.091-0.080 0.161-0.186 0.21-0.318s0.065-0.259 0.049-0.381c-0.019-0.121-0.066-0.227-0.141-0.319-0.077-0.090-0.177-0.158-0.298-0.203z"></path>
<path d="M7.697 28.335c-0.122-0.084-0.212-0.182-0.27-0.293-0.061-0.11-0.085-0.231-0.070-0.361 0.013-0.132 0.069-0.27 0.17-0.414l0.604-0.869 0.202 0.141-0.59 0.849c-0.109 0.158-0.152 0.304-0.128 0.439 0.021 0.136 0.103 0.253 0.246 0.352 0.106 0.074 0.215 0.117 0.325 0.128 0.107 0.012 0.211-0.007 0.311-0.059 0.097-0.051 0.185-0.133 0.265-0.247l0.546-0.787 0.202 0.141-1.039 1.496-0.194-0.135 0.285-0.41-0.022 0.099c-0.123 0.075-0.257 0.107-0.404 0.095-0.148-0.010-0.294-0.065-0.439-0.165z"></path>
<path d="M7.135 25.469c0.125 0.123 0.21 0.263 0.256 0.418 0.042 0.155 0.043 0.311 0.003 0.466-0.041 0.157-0.125 0.3-0.252 0.429-0.128 0.13-0.27 0.216-0.425 0.258s-0.31 0.042-0.464 0.001c-0.154-0.041-0.295-0.125-0.421-0.25-0.129-0.127-0.215-0.267-0.258-0.42-0.045-0.155-0.047-0.31-0.006-0.464 0.040-0.156 0.124-0.299 0.252-0.429 0.127-0.128 0.268-0.215 0.425-0.258 0.153-0.044 0.309-0.045 0.466-0.003 0.156 0.043 0.297 0.127 0.424 0.252zM6.982 25.624c-0.094-0.093-0.197-0.154-0.311-0.184-0.115-0.029-0.23-0.025-0.346 0.010-0.119 0.035-0.228 0.103-0.327 0.204-0.101 0.102-0.167 0.212-0.199 0.33-0.034 0.116-0.034 0.231-0.002 0.344 0.030 0.114 0.092 0.217 0.184 0.308s0.196 0.151 0.311 0.179c0.113 0.030 0.228 0.029 0.346-0.005s0.227-0.101 0.327-0.204c0.099-0.101 0.165-0.211 0.199-0.33 0.032-0.118 0.033-0.234 0.002-0.349-0.032-0.113-0.093-0.214-0.184-0.303z"></path>
<path d="M5.965 24.224l-1.116 1.595-0.133-0.195 1.043-1.469 0.061 0.089-1.757 0.424-0.119-0.175 1.037-1.478 0.061 0.089-1.753 0.43-0.127-0.186 1.894-0.458 0.131 0.192-0.967 1.401-0.041-0.060 1.659-0.39 0.131 0.192z"></path>
<path d="M4.116 20.836c0.052 0.141 0.082 0.281 0.090 0.422 0.005 0.141-0.009 0.259-0.043 0.353l-0.221-0.037c0.026-0.089 0.039-0.195 0.038-0.317-0.003-0.122-0.027-0.243-0.071-0.362-0.060-0.163-0.129-0.27-0.205-0.323-0.079-0.052-0.16-0.063-0.245-0.031-0.063 0.023-0.104 0.062-0.123 0.116-0.022 0.053-0.030 0.115-0.023 0.186 0.005 0.072 0.015 0.151 0.032 0.236s0.031 0.171 0.044 0.258c0.012 0.084 0.013 0.165 0.005 0.242-0.011 0.078-0.037 0.148-0.081 0.211-0.044 0.061-0.115 0.109-0.212 0.145-0.093 0.035-0.186 0.040-0.279 0.015s-0.179-0.079-0.257-0.164c-0.081-0.086-0.149-0.201-0.203-0.347-0.041-0.111-0.067-0.227-0.078-0.349-0.013-0.121-0.009-0.226 0.012-0.316l0.223 0.032c-0.024 0.095-0.031 0.19-0.020 0.285 0.008 0.096 0.029 0.187 0.061 0.274 0.057 0.154 0.126 0.258 0.208 0.312 0.079 0.052 0.159 0.063 0.242 0.033 0.065-0.024 0.109-0.063 0.131-0.115 0.022-0.055 0.031-0.119 0.029-0.192-0.005-0.075-0.016-0.153-0.032-0.236-0.017-0.085-0.030-0.17-0.039-0.256-0.012-0.087-0.014-0.168-0.006-0.246 0.005-0.079 0.030-0.148 0.074-0.209 0.041-0.062 0.108-0.11 0.202-0.145 0.1-0.037 0.197-0.041 0.292-0.012 0.092 0.028 0.178 0.087 0.259 0.178 0.078 0.090 0.144 0.209 0.2 0.359z"></path>
<path d="M1.749 19.281c-0.029-0.145-0.027-0.278 0.008-0.398 0.032-0.122 0.098-0.225 0.199-0.309 0.101-0.086 0.237-0.147 0.409-0.182l1.037-0.21 0.049 0.241-1.013 0.205c-0.188 0.038-0.32 0.114-0.396 0.229-0.079 0.113-0.101 0.254-0.066 0.424 0.026 0.127 0.074 0.233 0.146 0.317 0.069 0.083 0.157 0.141 0.265 0.173 0.105 0.031 0.226 0.032 0.362 0.005l0.939-0.19 0.049 0.242-2.523 0.511-0.049-0.242 1.228-0.249-0.082 0.066c-0.141-0.031-0.26-0.101-0.358-0.211-0.1-0.11-0.168-0.25-0.203-0.423z"></path>
<path d="M3.326 16.821c0.005 0.176-0.030 0.335-0.105 0.478-0.077 0.141-0.184 0.254-0.321 0.338-0.139 0.085-0.299 0.13-0.479 0.134-0.183 0.005-0.344-0.031-0.485-0.108s-0.253-0.184-0.335-0.321c-0.082-0.137-0.126-0.294-0.131-0.472-0.005-0.18 0.030-0.341 0.105-0.482 0.075-0.143 0.181-0.256 0.317-0.338 0.137-0.085 0.296-0.129 0.479-0.134 0.18-0.005 0.342 0.031 0.485 0.108 0.141 0.075 0.254 0.182 0.338 0.321 0.082 0.139 0.126 0.297 0.131 0.476zM3.108 16.827c-0.004-0.132-0.036-0.248-0.096-0.348-0.063-0.1-0.148-0.178-0.256-0.233-0.11-0.057-0.236-0.084-0.377-0.080-0.143 0.004-0.267 0.037-0.372 0.1-0.105 0.061-0.185 0.143-0.24 0.246-0.057 0.103-0.084 0.22-0.081 0.349s0.037 0.244 0.1 0.344c0.061 0.1 0.145 0.179 0.253 0.236s0.234 0.084 0.377 0.080c0.141-0.004 0.265-0.037 0.372-0.1 0.105-0.063 0.186-0.146 0.243-0.25 0.055-0.103 0.081-0.219 0.077-0.346z"></path>
<path d="M3.46 14.509c-0.023 0.156-0.079 0.291-0.169 0.407-0.092 0.115-0.211 0.2-0.357 0.256-0.148 0.053-0.321 0.065-0.517 0.036s-0.357-0.090-0.482-0.183c-0.127-0.093-0.216-0.208-0.268-0.345s-0.067-0.283-0.044-0.441c0.025-0.172 0.087-0.319 0.185-0.443 0.096-0.126 0.219-0.218 0.37-0.275 0.149-0.058 0.314-0.073 0.494-0.046 0.183 0.027 0.338 0.089 0.463 0.187s0.218 0.221 0.275 0.37c0.058 0.146 0.074 0.306 0.049 0.477zM3.972 15.535l-2.468-0.363 0.034-0.233 0.542 0.080 0.357 0.077 0.369 0.019 1.201 0.177-0.036 0.244zM3.241 14.494c0.019-0.128 0.007-0.247-0.035-0.356-0.045-0.109-0.115-0.202-0.212-0.277-0.099-0.075-0.218-0.123-0.358-0.144s-0.266-0.009-0.381 0.035c-0.114 0.044-0.208 0.112-0.283 0.204s-0.121 0.202-0.14 0.33c-0.019 0.128-0.006 0.248 0.038 0.36 0.045 0.109 0.115 0.202 0.212 0.277 0.097 0.073 0.215 0.119 0.355 0.14s0.267 0.010 0.383-0.031c0.114-0.044 0.208-0.112 0.283-0.204 0.072-0.095 0.118-0.206 0.137-0.334z"></path>
<path d="M2.613 10.728c0.058-0.136 0.135-0.244 0.231-0.324 0.095-0.083 0.208-0.13 0.339-0.143 0.132-0.015 0.279 0.012 0.441 0.081l0.975 0.412-0.096 0.227-0.952-0.403c-0.177-0.075-0.329-0.086-0.456-0.035-0.129 0.049-0.227 0.153-0.294 0.313-0.050 0.119-0.070 0.234-0.059 0.344 0.010 0.107 0.050 0.205 0.121 0.292 0.070 0.085 0.168 0.154 0.296 0.208l0.882 0.373-0.096 0.227-1.678-0.71 0.092-0.217 0.46 0.195-0.101-0.001c-0.099-0.105-0.158-0.23-0.176-0.376-0.021-0.147 0.003-0.301 0.072-0.463z"></path>
<path d="M5.302 9.592c-0.095 0.148-0.215 0.259-0.357 0.335-0.143 0.073-0.295 0.105-0.456 0.098-0.162-0.009-0.319-0.062-0.471-0.16-0.153-0.099-0.267-0.22-0.339-0.364s-0.104-0.295-0.095-0.454c0.009-0.159 0.062-0.314 0.159-0.463 0.098-0.152 0.218-0.264 0.359-0.338 0.143-0.076 0.294-0.109 0.453-0.1 0.161 0.007 0.318 0.061 0.471 0.16 0.152 0.098 0.265 0.219 0.339 0.364 0.074 0.141 0.106 0.293 0.098 0.456-0.011 0.161-0.064 0.317-0.161 0.466zM5.119 9.473c0.072-0.111 0.111-0.225 0.117-0.341 0.005-0.118-0.022-0.23-0.080-0.337-0.059-0.11-0.147-0.203-0.266-0.279-0.12-0.078-0.242-0.12-0.364-0.128-0.121-0.009-0.233 0.013-0.337 0.067-0.106 0.053-0.194 0.134-0.264 0.242s-0.108 0.222-0.113 0.34c-0.007 0.117 0.018 0.229 0.075 0.338s0.145 0.201 0.266 0.279c0.119 0.077 0.24 0.119 0.364 0.128 0.122 0.007 0.236-0.016 0.342-0.068 0.104-0.054 0.19-0.135 0.259-0.241z"></path>
<path d="M6.277 8.194l-1.788-0.77 0.164-0.17 1.65 0.723-0.075 0.077-0.771-1.635 0.147-0.152 1.657 0.716-0.075 0.077-0.776-1.63 0.157-0.162 0.832 1.761-0.161 0.167-1.568-0.663 0.051-0.052 0.718 1.545-0.161 0.167z"></path>
<path d="M9.187 5.707c-0.127 0.080-0.259 0.139-0.394 0.175-0.137 0.034-0.255 0.045-0.354 0.031l-0.010-0.224c0.092 0.007 0.198-0.002 0.318-0.029 0.119-0.028 0.232-0.077 0.34-0.145 0.147-0.093 0.238-0.182 0.274-0.267 0.035-0.088 0.028-0.17-0.020-0.246-0.036-0.057-0.082-0.089-0.139-0.097-0.056-0.011-0.119-0.006-0.187 0.016-0.070 0.019-0.145 0.046-0.224 0.080s-0.161 0.066-0.243 0.096c-0.080 0.029-0.159 0.047-0.236 0.055-0.078 0.006-0.153-0.006-0.223-0.035-0.069-0.031-0.131-0.090-0.186-0.178-0.053-0.084-0.077-0.174-0.072-0.27s0.041-0.191 0.107-0.285c0.067-0.097 0.166-0.187 0.297-0.27 0.1-0.063 0.208-0.112 0.325-0.148 0.116-0.038 0.22-0.055 0.311-0.053l0.015 0.225c-0.098-0.004-0.192 0.009-0.283 0.039-0.092 0.028-0.177 0.066-0.255 0.116-0.139 0.088-0.226 0.177-0.262 0.268-0.035 0.088-0.029 0.169 0.018 0.243 0.037 0.059 0.084 0.094 0.14 0.105 0.058 0.010 0.123 0.006 0.194-0.011 0.072-0.021 0.147-0.047 0.224-0.080 0.080-0.034 0.16-0.064 0.242-0.091 0.082-0.030 0.162-0.049 0.239-0.057 0.078-0.011 0.151-0.001 0.22 0.030 0.069 0.027 0.13 0.083 0.184 0.167 0.057 0.090 0.081 0.184 0.072 0.283-0.008 0.095-0.048 0.192-0.121 0.29-0.072 0.094-0.175 0.184-0.31 0.269z"></path>
<path d="M10.256 3.046c0.136-0.059 0.266-0.083 0.391-0.074 0.126 0.006 0.241 0.050 0.344 0.131 0.105 0.080 0.193 0.201 0.263 0.363l0.42 0.972-0.226 0.098-0.41-0.949c-0.076-0.176-0.178-0.29-0.306-0.34-0.127-0.054-0.269-0.046-0.429 0.023-0.119 0.051-0.212 0.121-0.281 0.208-0.067 0.084-0.105 0.183-0.114 0.295-0.008 0.109 0.015 0.228 0.070 0.355l0.38 0.879-0.226 0.098-1.021-2.364 0.226-0.098 0.497 1.15-0.082-0.067c0.001-0.144 0.045-0.275 0.132-0.394 0.087-0.121 0.211-0.216 0.372-0.285z"></path>
<path d="M12.951 4.092c-0.171 0.041-0.334 0.039-0.49-0.004-0.154-0.047-0.286-0.128-0.397-0.244-0.112-0.118-0.188-0.265-0.23-0.441-0.042-0.178-0.040-0.344 0.006-0.497s0.128-0.285 0.245-0.394c0.117-0.109 0.262-0.184 0.435-0.225 0.175-0.042 0.34-0.041 0.493 0.004 0.156 0.044 0.288 0.124 0.396 0.241 0.111 0.116 0.188 0.263 0.23 0.441 0.042 0.176 0.040 0.341-0.006 0.497-0.044 0.153-0.126 0.286-0.244 0.397-0.119 0.109-0.265 0.185-0.438 0.226zM12.9 3.88c0.128-0.031 0.235-0.086 0.321-0.166 0.085-0.082 0.143-0.182 0.175-0.299 0.033-0.12 0.034-0.248 0.001-0.385-0.033-0.139-0.092-0.254-0.175-0.344-0.081-0.090-0.178-0.151-0.29-0.184-0.113-0.035-0.232-0.037-0.358-0.007s-0.232 0.086-0.317 0.168c-0.086 0.080-0.145 0.179-0.179 0.296s-0.034 0.246-0.001 0.385c0.033 0.137 0.091 0.252 0.175 0.344 0.083 0.090 0.181 0.152 0.294 0.187 0.112 0.033 0.231 0.034 0.354 0.005z"></path>
<path d="M15.192 3.749c-0.157 0.010-0.301-0.017-0.433-0.081-0.132-0.066-0.24-0.165-0.324-0.296-0.082-0.134-0.13-0.3-0.142-0.499s0.014-0.368 0.080-0.509c0.065-0.143 0.159-0.254 0.282-0.334s0.264-0.124 0.423-0.134c0.173-0.011 0.33 0.019 0.471 0.089 0.143 0.068 0.258 0.169 0.346 0.305 0.087 0.134 0.136 0.292 0.147 0.474 0.011 0.185-0.018 0.349-0.088 0.492s-0.172 0.259-0.305 0.346c-0.131 0.087-0.284 0.136-0.457 0.146zM14.294 4.461l-0.154-2.49 0.236-0.015 0.034 0.547-0.002 0.365 0.057 0.365 0.075 1.212-0.246 0.015zM15.161 3.532c0.129-0.008 0.243-0.044 0.341-0.108 0.098-0.066 0.174-0.154 0.227-0.264 0.053-0.112 0.076-0.239 0.067-0.38s-0.046-0.263-0.113-0.365c-0.067-0.103-0.153-0.181-0.258-0.234s-0.223-0.077-0.352-0.069c-0.129 0.008-0.244 0.045-0.344 0.112-0.098 0.066-0.174 0.154-0.227 0.264-0.051 0.11-0.072 0.235-0.064 0.376s0.045 0.264 0.11 0.369c0.067 0.103 0.153 0.181 0.258 0.234 0.107 0.051 0.226 0.073 0.355 0.065z"></path>
<path d="M18.801 2.137c0.145 0.028 0.267 0.081 0.365 0.159 0.101 0.076 0.171 0.177 0.21 0.302 0.041 0.126 0.046 0.275 0.012 0.448l-0.202 1.039-0.242-0.047 0.198-1.015c0.037-0.188 0.017-0.34-0.060-0.454-0.074-0.116-0.196-0.19-0.367-0.223-0.127-0.025-0.244-0.020-0.349 0.013-0.103 0.032-0.19 0.091-0.261 0.179-0.069 0.086-0.116 0.197-0.143 0.333l-0.183 0.94-0.242-0.047 0.348-1.788 0.232 0.045-0.096 0.49-0.020-0.099c0.082-0.118 0.192-0.202 0.331-0.25 0.14-0.051 0.296-0.059 0.468-0.026z"></path>
<path d="M20.456 4.527c-0.164-0.063-0.298-0.156-0.402-0.28-0.101-0.125-0.164-0.267-0.19-0.426-0.025-0.161-0.005-0.325 0.060-0.494 0.065-0.171 0.161-0.306 0.286-0.407s0.267-0.163 0.424-0.186c0.158-0.024 0.32-0.004 0.486 0.060 0.168 0.065 0.303 0.159 0.405 0.282 0.104 0.124 0.167 0.265 0.191 0.423 0.026 0.159 0.006 0.323-0.060 0.494-0.065 0.168-0.16 0.304-0.286 0.407-0.123 0.101-0.265 0.165-0.426 0.19-0.16 0.023-0.323 0.002-0.489-0.061zM20.535 4.323c0.123 0.047 0.242 0.062 0.358 0.045 0.117-0.020 0.221-0.069 0.313-0.147 0.095-0.080 0.168-0.186 0.219-0.318 0.051-0.134 0.068-0.261 0.050-0.382-0.016-0.12-0.061-0.225-0.135-0.316-0.073-0.093-0.171-0.162-0.292-0.209s-0.24-0.060-0.356-0.040c-0.116 0.018-0.221 0.065-0.315 0.143s-0.167 0.184-0.218 0.318c-0.051 0.132-0.067 0.259-0.050 0.382 0.018 0.121 0.064 0.228 0.137 0.32 0.074 0.090 0.171 0.158 0.29 0.204z"></path>
<path d="M22.066 5.214l0.391-1.907 0.2 0.126-0.374 1.762-0.091-0.057 1.445-1.086 0.179 0.113-0.365 1.768-0.091-0.057 1.439-1.090 0.191 0.12-1.556 1.172-0.197-0.124 0.332-1.67 0.062 0.039-1.368 1.016-0.197-0.124z"></path>
<path d="M25.095 7.565c-0.104-0.108-0.188-0.225-0.251-0.351-0.061-0.127-0.095-0.241-0.102-0.34l0.217-0.055c0.012 0.092 0.042 0.194 0.093 0.306 0.052 0.111 0.122 0.212 0.21 0.303 0.12 0.125 0.226 0.196 0.318 0.214 0.093 0.016 0.172-0.007 0.237-0.069 0.048-0.047 0.070-0.098 0.067-0.156-0.001-0.057-0.018-0.117-0.053-0.18-0.033-0.064-0.075-0.132-0.124-0.203s-0.097-0.144-0.143-0.219c-0.044-0.073-0.078-0.146-0.101-0.22-0.022-0.076-0.025-0.151-0.011-0.226 0.016-0.073 0.061-0.146 0.136-0.218 0.072-0.069 0.155-0.111 0.25-0.125s0.195 0.001 0.301 0.047c0.109 0.046 0.217 0.125 0.324 0.237 0.082 0.085 0.152 0.181 0.211 0.288 0.060 0.106 0.099 0.204 0.115 0.294l-0.217 0.060c-0.016-0.097-0.048-0.187-0.096-0.269-0.046-0.084-0.101-0.16-0.165-0.226-0.114-0.118-0.219-0.186-0.315-0.202-0.093-0.016-0.171 0.006-0.234 0.067-0.050 0.048-0.075 0.101-0.074 0.158 0.002 0.059 0.019 0.121 0.051 0.187 0.035 0.066 0.076 0.134 0.124 0.203 0.050 0.071 0.096 0.144 0.138 0.218 0.046 0.074 0.081 0.149 0.104 0.223 0.027 0.074 0.032 0.148 0.016 0.221-0.013 0.073-0.055 0.145-0.126 0.214-0.077 0.074-0.164 0.116-0.263 0.128-0.095 0.011-0.198-0.008-0.308-0.060-0.107-0.051-0.216-0.134-0.327-0.249z"></path>
<path d="M27.897 8.046c0.085 0.121 0.136 0.243 0.153 0.368 0.020 0.125 0.001 0.246-0.058 0.363-0.057 0.12-0.157 0.23-0.301 0.331l-0.865 0.61-0.142-0.201 0.845-0.596c0.157-0.111 0.247-0.234 0.27-0.369 0.027-0.135-0.010-0.273-0.11-0.415-0.075-0.106-0.162-0.183-0.261-0.232-0.096-0.048-0.2-0.065-0.312-0.051-0.109 0.014-0.22 0.062-0.333 0.142l-0.783 0.552-0.142-0.201 2.104-1.484 0.142 0.201-1.024 0.722 0.049-0.094c0.141-0.029 0.279-0.012 0.413 0.049 0.136 0.060 0.254 0.162 0.355 0.305z"></path>
<path d="M27.442 10.925c-0.075-0.159-0.107-0.319-0.096-0.48 0.014-0.16 0.066-0.306 0.157-0.439 0.093-0.133 0.221-0.239 0.384-0.316 0.165-0.078 0.328-0.11 0.488-0.096s0.305 0.067 0.436 0.159c0.13 0.092 0.233 0.218 0.31 0.38 0.077 0.163 0.11 0.324 0.098 0.483-0.011 0.161-0.062 0.307-0.154 0.437-0.091 0.132-0.219 0.238-0.384 0.316-0.163 0.077-0.326 0.109-0.488 0.096-0.159-0.012-0.305-0.064-0.439-0.157-0.131-0.094-0.235-0.222-0.311-0.383zM27.64 10.832c0.056 0.119 0.132 0.213 0.228 0.28 0.098 0.066 0.207 0.103 0.328 0.11 0.124 0.008 0.25-0.018 0.377-0.078 0.13-0.061 0.23-0.142 0.301-0.242 0.072-0.098 0.112-0.205 0.12-0.322 0.011-0.118-0.011-0.235-0.067-0.352s-0.132-0.209-0.23-0.275c-0.096-0.067-0.205-0.105-0.327-0.114s-0.248 0.017-0.377 0.078c-0.128 0.060-0.228 0.141-0.3 0.242-0.071 0.1-0.111 0.209-0.122 0.326-0.009 0.117 0.014 0.233 0.068 0.348z"></path>
<path d="M28.235 13.050c-0.042-0.152-0.045-0.298-0.009-0.44 0.038-0.142 0.112-0.268 0.223-0.378 0.114-0.108 0.267-0.189 0.459-0.241s0.363-0.062 0.515-0.026c0.153 0.035 0.282 0.104 0.384 0.207s0.176 0.232 0.218 0.386c0.046 0.167 0.049 0.327 0.010 0.48-0.037 0.154-0.113 0.288-0.228 0.401-0.113 0.113-0.258 0.193-0.434 0.242-0.178 0.049-0.345 0.054-0.5 0.015s-0.288-0.115-0.401-0.228c-0.112-0.111-0.191-0.25-0.237-0.417zM27.353 12.317l2.406-0.662 0.062 0.227-0.529 0.145-0.358 0.073-0.345 0.131-1.171 0.322-0.065-0.238zM28.441 12.975c0.034 0.125 0.093 0.229 0.176 0.312 0.085 0.082 0.187 0.138 0.305 0.168 0.121 0.029 0.249 0.025 0.385-0.012s0.248-0.099 0.334-0.185c0.087-0.086 0.146-0.186 0.177-0.3s0.029-0.234-0.005-0.358c-0.034-0.125-0.094-0.23-0.18-0.314-0.085-0.082-0.187-0.138-0.305-0.168-0.118-0.028-0.245-0.023-0.381 0.015s-0.249 0.098-0.338 0.183c-0.087 0.086-0.146 0.186-0.177 0.3-0.028 0.116-0.025 0.236 0.009 0.361z"></path>
</symbol>
<symbol id="icon-arrow-right" viewBox="0 0 32 32">
<path d="M21.674 14.79l1.203 0.818-22.877 0.001v0.64l22.733-0.001-1.133 0.651 0.319 0.555 2.608-1.498-2.493-1.695-0.36 0.529z"></path>
</symbol>
<symbol id="icon-arrow-left" viewBox="0 0 32 32">
<path d="M7.703 17.067l-1.203-0.818 22.877-0.001v-0.64l-22.733 0.001 1.133-0.651-0.319-0.555-2.608 1.498 2.493 1.695 0.36-0.529z"></path>
</symbol>
<symbol id="icon-close-button" viewBox="0 0 32 32">
<path d="M16 13.738l-11.314-11.314-2.262 2.262 11.314 11.314-11.314 11.314 2.262 2.262 11.314-11.314 11.314 11.314 2.262-2.262-11.314-11.314 11.314-11.314-2.262-2.262-11.314 11.314z"></path>
</symbol>
<symbol id="icon-burger-icon" viewBox="0 0 32 32">
<path d="M4 5.333h24v2.667h-24v-2.667zM12 14.667h16v2.667h-16v-2.667zM4 24h24v2.667h-24v-2.667z"></path>
</symbol>
<symbol id="icon-facebook-icon" viewBox="0 0 32 32">
<path stroke-width="2.2857" stroke-miterlimit="4" stroke-linecap="round" stroke-linejoin="round" d="M24 2.667h-4c-1.768 0-3.464 0.702-4.714 1.953s-1.953 2.946-1.953 4.714v4h-4v5.333h4v10.667h5.333v-10.667h4l1.333-5.333h-5.333v-4c0-0.354 0.14-0.693 0.39-0.943s0.589-0.391 0.943-0.391h4v-5.333z"></path>
</symbol>
<symbol id="icon-instagram-icon" viewBox="0 0 32 32">
<path stroke-width="2.2857" stroke-miterlimit="4" stroke-linecap="round" stroke-linejoin="round" d="M22.666 2.667h-13.333c-3.682 0-6.667 2.985-6.667 6.667v13.333c0 3.682 2.985 6.667 6.667 6.667h13.333c3.682 0 6.667-2.985 6.667-6.667v-13.333c0-3.682-2.985-6.667-6.667-6.667z"></path>
<path stroke-width="2.2857" stroke-miterlimit="4" stroke-linecap="round" stroke-linejoin="round" d="M21.333 15.16c0.164 1.11-0.025 2.243-0.542 3.239s-1.334 1.803-2.336 2.308c-1.002 0.504-2.137 0.68-3.245 0.502s-2.131-0.701-2.924-1.494c-0.793-0.793-1.316-1.816-1.494-2.924s-0.003-2.243 0.502-3.245c0.504-1.002 1.312-1.82 2.307-2.336s2.129-0.706 3.239-0.542c1.132 0.168 2.18 0.695 2.989 1.504s1.337 1.857 1.504 2.989z"></path>
<path stroke-width="2.2857" stroke-miterlimit="4" stroke-linecap="round" stroke-linejoin="round" d="M23.334 8.667h0.013"></path>
</symbol>
<symbol id="icon-logo-desktop" viewBox="0 0 40 32">
<path d="M16.463 31.448v-5.12l-0.132-0.839v-8.563c0-1.971-0.559-3.487-1.677-4.546-1.089-1.059-2.722-1.589-4.899-1.589-1.501 0-2.928 0.25-4.281 0.75s-2.501 1.162-3.443 1.986l-1.412-2.339c1.177-1 2.589-1.766 4.237-2.295 1.648-0.559 3.384-0.839 5.208-0.839 3.001 0 5.311 0.75 6.93 2.251 1.648 1.471 2.472 3.722 2.472 6.753v14.389h-3.001zM8.474 31.669c-1.736 0-3.252-0.28-4.546-0.839-1.265-0.589-2.236-1.383-2.913-2.383-0.677-1.030-1.015-2.207-1.015-3.531 0-1.206 0.28-2.295 0.839-3.266 0.589-1 1.53-1.795 2.825-2.383 1.324-0.618 3.090-0.927 5.297-0.927h7.989v2.339h-7.901c-2.236 0-3.796 0.397-4.679 1.192-0.853 0.794-1.28 1.78-1.28 2.957 0 1.324 0.515 2.383 1.545 3.178s2.472 1.192 4.326 1.192c1.766 0 3.281-0.397 4.546-1.192 1.295-0.824 2.236-2.001 2.825-3.531l0.706 2.163c-0.589 1.53-1.618 2.751-3.090 3.663-1.442 0.912-3.266 1.368-5.473 1.368z"></path>
<path d="M29.44 31.669c-2.413 0-4.531-0.5-6.356-1.501-1.824-1.030-3.251-2.428-4.281-4.193-1.030-1.795-1.545-3.84-1.545-6.135s0.486-4.326 1.457-6.091c1-1.766 2.354-3.149 4.061-4.149 1.736-1.030 3.678-1.545 5.826-1.545 2.178 0 4.105 0.5 5.782 1.501 1.707 0.971 3.046 2.354 4.017 4.149 0.971 1.766 1.457 3.811 1.457 6.135 0 0.147-0.015 0.309-0.044 0.486 0 0.147 0 0.309 0 0.486h-20.171v-2.339h18.494l-1.236 0.927c0-1.677-0.368-3.163-1.103-4.458-0.706-1.324-1.677-2.354-2.913-3.090s-2.663-1.103-4.281-1.103c-1.589 0-3.016 0.368-4.281 1.103s-2.251 1.766-2.957 3.090c-0.706 1.324-1.059 2.84-1.059 4.546v0.486c0 1.766 0.383 3.325 1.148 4.679 0.794 1.324 1.883 2.369 3.266 3.134 1.412 0.736 3.016 1.103 4.811 1.103 1.412 0 2.722-0.25 3.928-0.75 1.236-0.5 2.295-1.265 3.178-2.295l1.766 2.030c-1.030 1.236-2.325 2.177-3.884 2.825-1.53 0.647-3.222 0.971-5.076 0.971z"></path>
<path d="M37.296 3.31h-15.448v-3.31h15.448v3.31z"></path>
</symbol>
<symbol id="icon-logo-mobile" viewBox="0 0 41 32">
<path d="M16.241 31.144v-4.916l-0.219-0.922v-8.384c0-1.785-0.527-3.16-1.58-4.126-1.024-0.995-2.575-1.492-4.653-1.492-1.375 0-2.721 0.234-4.038 0.702-1.317 0.439-2.429 1.039-3.336 1.8l-1.756-3.161c1.2-0.966 2.634-1.697 4.302-2.195 1.697-0.527 3.468-0.79 5.311-0.79 3.19 0 5.648 0.775 7.374 2.326s2.59 3.921 2.59 7.111v14.047h-3.994zM8.604 31.407c-1.727 0-3.248-0.293-4.565-0.878-1.288-0.585-2.283-1.39-2.985-2.414-0.702-1.053-1.054-2.239-1.054-3.556 0-1.258 0.293-2.4 0.878-3.424 0.615-1.024 1.595-1.844 2.941-2.458 1.375-0.615 3.219-0.922 5.531-0.922h7.375v3.029h-7.199c-2.107 0-3.526 0.351-4.258 1.053s-1.097 1.551-1.097 2.546c0 1.141 0.454 2.063 1.361 2.765 0.907 0.673 2.166 1.010 3.775 1.010 1.58 0 2.956-0.351 4.126-1.053 1.2-0.702 2.063-1.727 2.59-3.073l0.834 2.897c-0.556 1.375-1.536 2.473-2.941 3.292-1.405 0.79-3.175 1.185-5.311 1.185z"></path>
<path d="M29.718 31.407c-2.487 0-4.682-0.512-6.584-1.536-1.873-1.024-3.336-2.429-4.39-4.214-1.024-1.785-1.536-3.834-1.536-6.145s0.497-4.36 1.492-6.145c1.024-1.785 2.414-3.175 4.17-4.17 1.785-1.024 3.79-1.536 6.014-1.536 2.253 0 4.243 0.498 5.97 1.492s3.073 2.4 4.038 4.214c0.995 1.785 1.492 3.878 1.492 6.277 0 0.176-0.015 0.38-0.044 0.614 0 0.234-0.015 0.454-0.044 0.659h-19.797v-3.029h17.602l-1.712 1.053c0.029-1.492-0.278-2.824-0.922-3.995s-1.536-2.078-2.678-2.722c-1.112-0.673-2.414-1.010-3.907-1.010-1.463 0-2.765 0.337-3.907 1.010-1.141 0.644-2.034 1.566-2.678 2.765-0.644 1.171-0.966 2.517-0.966 4.038v0.702c0 1.551 0.351 2.941 1.053 4.17 0.732 1.2 1.741 2.136 3.029 2.809s2.765 1.010 4.433 1.010c1.375 0 2.619-0.234 3.731-0.702 1.141-0.468 2.136-1.171 2.985-2.107l2.327 2.721c-1.053 1.229-2.37 2.166-3.951 2.809-1.551 0.644-3.292 0.966-5.224 0.966z"></path>
<path d="M37.311 3.292h-15.364v-3.292h15.364v3.292z"></path>
</symbol>
</defs>
</svg>
