<svg aria-hidden="true" style="position: absolute; width: 0; height: 0; overflow: hidden;" version="1.1" xmlns="http://www.w3.org/2000/svg" xmlns:xlink="http://www.w3.org/1999/xlink">
<defs>
<symbol id="icon-thank-you" viewBox="0 0 42 32"><path fill="#f58b3d" d="M38.92 25.599c.539 3.691-12.54 6.099-23.798 4.419S-1.301 21.776 4.072 18.28c5.372-3.496 34.309 3.628 34.849 7.319z" opacity=".255" style="fill:var(--color1, #f58b3d)"/><path fill="#f58b3d" d="M22.74 10.218c.204-.142.519-.052.724.032.079.032.281.136.43.253a4.835 4.835 0 0 1-.053-.245 8.417 8.417 0 0 1-.128-1.025c-.005-.089.002-.189.009-.29l.007-.103a.057.057 0 0 1-.016-.034l-.002.015-.002.01c-.001.001-.003-.002-.007-.008a.03.03 0 0 0-.005-.007c-.151-.207-.279-.441-.296-.698-.015-.218.181-.63.458-.344.124.127.092 1.022-.094 1.077.05.296.112.592.191.884a.138.138 0 0 1 .035-.001 2.28 2.28 0 0 1 .002-.179c.028-.235.242-.711.583-.619.262.071.101.364.012.492-.144.206-.306.296-.512.403-.004.044-.035.07-.072.079.138.472.319.932.556 1.367l.006-.028c.03-.132.065-.286.087-.318.116-.169.373-.376.61-.276.498.21-.042.815-.466.881a.184.184 0 0 1-.056.05c.082.131.17.26.264.385.141.188.293.376.452.563.005-.146.068-.471.086-.506.109-.212.422-.431.676-.28.286.17.027.491-.136.637-.067.06-.397.278-.514.279.384.44.808.872 1.24 1.289a6.868 6.868 0 0 1-.077-.757c.027-.294.238-.765.654-.65.404.111.225.6.087.833a1.263 1.263 0 0 1-.339.383c-.025.018-.058.032-.091.047a.4.4 0 0 0-.105.058c-.023.021-.03.044-.037.067a.122.122 0 0 1-.041.07c.233.224.468.444.699.657.109.101.22.2.332.297.061-.023.149.007.144.087a.094.094 0 0 1-.007.031l.257.216a.492.492 0 0 1 .003-.09c-.062.081-.06-.037-.058-.127a.565.565 0 0 0-.001-.075c-.009-.058-.021-.115-.033-.172-.025-.122-.05-.243-.049-.369.003-.267.187-.715.576-.556.357.146.227.542.093.79a2.241 2.241 0 0 1-.324.431 1.068 1.068 0 0 0-.07.089c-.036.048-.07.095-.096.112.332.272.672.537 1.011.801l.455.356c.007-.026.012-.052.017-.076-.009.01-.022.014-.039.013l-.019-.079c-.093-.39-.378-1.58.393-1.349.565.169.166 1.205-.255 1.567.256.202.509.407.757.618.179.153.353.311.52.474-.087-.211-.168-.485-.114-.702.078-.317.443-.616.799-.436.444.226.102.534-.218.823-.163.148-.322.29-.367.414.531.535.985 1.13 1.288 1.807.33.736.636 1.726.466 2.55.031-.362-.102-.817-.196-1.137a10.709 10.709 0 0 1-.036-.122 6.16 6.16 0 0 0-.605-1.429c-.423-.723-.981-1.336-1.626-1.893-.147.047-.306.134-.439.205-.081.044-.152.083-.203.103-.247.097-.72.237-.878-.07-.155-.302.24-.471.484-.539a1.28 1.28 0 0 1 .67-.004 46.077 46.077 0 0 0-1.041-.814l-.193-.148a3.138 3.138 0 0 0-.291.266c-.331.325-.723.71-1.073.396-.528-.475.482-.958.912-.92a.873.873 0 0 1 .154.029c-.439-.341-.871-.69-1.28-1.062-.073.012-.19.111-.33.23-.315.267-.749.634-1.076.345-.236-.209-.155-.534.073-.72s.561-.186.843-.124c.122.027.234.079.339.142l.013.001c-.402-.371-.807-.75-1.196-1.142l-.021.006a.111.111 0 0 1-.099.03l-.061.019c-.309.098-.705.223-1.013.169-.226-.04-.432-.208-.24-.416.156-.169.579-.145.785-.105.101.02.21.076.32.133.046.024.093.048.138.069a.093.093 0 0 1 .056-.043 14.877 14.877 0 0 1-1.085-1.227c-.101.014-.213.055-.328.097-.277.101-.575.209-.789-.024-.316-.344.278-.544.56-.511a1.3 1.3 0 0 1 .28.068 4.339 4.339 0 0 1-.557-1.117l-.004.002-.006.003.005-.003a.008.008 0 0 1 .004-.002l-.037-.118a.503.503 0 0 0-.052-.023c.128.081-.413.121-.514.128-.224.016-.524.023-.688-.146-.138-.141-.13-.35.039-.468zm10.305 11.888a.906.906 0 0 1-.077.319c.033-.103.058-.209.077-.319z" style="fill:var(--color1, #f58b3d)"/><path fill="#f1f447" d="M12.577 2.591c-.149-.103-.379-.037-.529.024a1.546 1.546 0 0 0-.314.183c.014-.058.027-.117.039-.177.046-.244.078-.494.094-.741.004-.065-.001-.137-.006-.21l-.005-.074a.045.045 0 0 0 .012-.025.05.05 0 0 1 .001.011l.001.007.005-.006a.018.018 0 0 1 .004-.005c.111-.15.204-.319.216-.504.011-.157-.132-.455-.334-.249-.091.092-.067.739.069.779a6.531 6.531 0 0 1-.14.64c-.009-.001-.017-.002-.026 0a1.67 1.67 0 0 0-.001-.13c-.02-.17-.177-.514-.426-.447-.191.052-.074.263-.009.356.105.149.223.214.373.291.003.032.026.051.053.057a4.963 4.963 0 0 1-.406.988l-.005-.02c-.022-.095-.047-.207-.064-.23-.085-.122-.272-.271-.445-.199-.363.152.031.589.34.637a.124.124 0 0 0 .041.036c-.06.095-.124.188-.193.278a8.532 8.532 0 0 1-.33.407 2.003 2.003 0 0 0-.062-.366c-.079-.153-.308-.311-.493-.202-.209.123-.02.355.099.46.049.043.29.201.375.202a15.87 15.87 0 0 1-.906.933c.026-.135.06-.506.057-.548-.019-.213-.174-.553-.477-.47-.295.08-.165.434-.064.603a.91.91 0 0 0 .248.277c.018.013.042.023.066.034.029.013.058.025.077.042.017.015.022.032.027.049s.011.035.03.05c-.17.162-.342.321-.511.476-.08.073-.161.144-.243.215-.045-.017-.109.005-.105.063 0 .008.003.016.005.022l-.188.156a.385.385 0 0 0-.002-.065c.045.058.043-.027.042-.092 0-.023-.001-.043.001-.054a2.47 2.47 0 0 1 .024-.124c.018-.088.037-.176.036-.267-.002-.193-.137-.517-.42-.402-.261.106-.166.392-.068.571.062.114.147.215.236.312a.754.754 0 0 1 .051.064.413.413 0 0 0 .07.081c-.242.197-.49.388-.739.58l-.333.258a.691.691 0 0 1-.012-.055c.007.007.016.01.028.01l.013-.057c.068-.282.277-1.143-.286-.976-.413.123-.122.871.186 1.133-.187.146-.372.295-.553.447a7.3 7.3 0 0 0-.38.343c.063-.153.123-.351.084-.508-.057-.229-.323-.445-.583-.315-.324.163-.075.386.159.595.119.107.235.21.268.299-.388.387-.72.817-.941 1.307-.241.533-.465 1.248-.342 1.844-.023-.262.075-.591.144-.822l.026-.089c.103-.358.25-.707.443-1.033.309-.523.717-.967 1.188-1.37.107.034.224.097.32.148.059.032.111.06.148.074.18.07.526.171.641-.051.113-.218-.175-.341-.354-.389a.954.954 0 0 0-.489-.003c.249-.201.505-.395.76-.589l.141-.107c.065.048.136.118.213.192.241.235.527.513.783.286.386-.344-.351-.692-.666-.665a.584.584 0 0 0-.112.021c.321-.247.636-.499.935-.769.054.009.139.08.241.166.23.193.547.458.785.249.172-.151.114-.386-.053-.521s-.409-.135-.615-.089a.845.845 0 0 0-.248.103h-.009c.294-.268.589-.542.874-.826l.015.004c.017.019.046.026.072.022l.044.014c.225.07.515.161.74.122.165-.029.315-.151.176-.301-.114-.122-.422-.104-.573-.075-.073.014-.153.055-.234.096-.034.017-.068.035-.101.05a.067.067 0 0 0-.041-.031c.281-.285.549-.58.793-.887.074.01.155.04.239.07.203.073.42.151.576-.018.23-.249-.203-.393-.409-.37a.895.895 0 0 0-.204.05c.177-.253.312-.524.407-.808l.003.001.004.002-.004-.002-.003-.002c.009-.028.019-.057.027-.086l.038-.017c-.094.059.301.087.375.092.163.012.382.016.502-.105.101-.102.095-.253-.028-.338zm-7.536 8.576c.007.08.029.152.071.212a1.124 1.124 0 0 1-.071-.212z" opacity=".2" style="fill:var(--color2, #f1f447)"/><path fill="#b45661" d="M28.63 16.63c.801-.038 1.792.39 1.878 1.187.062.579.043 1.156.139 1.735.077.462.239.906.461 1.326.213.405.655.749.77 1.182.073.276.032.663-.069.933-.123.328-.058.302.187.577.48.539.912 1.091 1.218 1.735.44.927.729 2.01.565 3.025-.021.129-.045.591-.239.623-.217.036-.115-.228-.104-.314.074-.545.139-1.021.05-1.575-.343-2.136-2.017-3.543-3.108-5.355-.06-.093-.186-.316-.275-.463-.139-.232-.279-.673-.467-.845-.354-.324-.029.327.04.451.087.157.183.324.273.462.409.639.866 1.336 1.288 1.994-1.827.381-3.114-1.629-3.604-2.95-.404-1.089-.887-3.634.995-3.727z" opacity=".49" style="fill:var(--color3, #b45661)"/><path fill="#e7502f" d="M39.369 14.608c-1.339.097-2.199.906-2.599 2.037-.216.609-.24 1.236-.36 1.862-.18.942-.568 1.657-1.327 2.328a2.36 2.36 0 0 0-.531.65 2.776 2.776 0 0 0-.613.802c-.199.403-.256.886-.026 1.288.062.108.217.325.377.423-.6 1.168-.929 2.448-.892 3.726.023.771.064 1.543.112 2.314.013.207.087.549.197.201.101-.317-.026-.816-.038-1.147-.057-1.615-.106-3.084.621-4.593.076-.158.157-.315.241-.471l.014-.009.009.007.021-.031a.435.435 0 0 0 .065-.084c.064-.082.137-.178.138-.23v-.001c.45-.672.965-1.307 1.492-1.929-.004.005.571-.712.482-.316-.043.191-.466.554-.636.756-.378.45-.821 1.02-1.19 1.571-.05.026-.12.154-.17.25-.028.048-.054.097-.08.14 1.306.395 2.322-.401 3.015-1.326l.002-.003c.211-.256.427-.509.697-.712.45-.337.932-.397 1.463-.563 1.447-.453 2.063-2.169 2.258-3.443.221-1.437-.858-3.64-2.742-3.498z" opacity=".49" style="fill:var(--color4, #e7502f)"/><path fill="#e7502f" d="M36.723 10.585c-1.375 1.309-2.039 3.125-2.565 4.832-.587 1.907-.975 3.842-.99 5.825-.01 1.302-.048 2.613.035 3.913.029.462.08.925.16 1.382.007.038.186 1.058.357.82.097-.135-.184-1.059-.205-1.212-.119-.866-.147-1.739-.141-2.611.01-1.436-.037-2.866.122-4.297.024-.214.042-.438.098-.647.059-.222-.016-.125.176-.213.186-.086.417-.073.61-.181.767-.426 1.16-1.519 1.465-2.236.349-.82.562-1.695.731-2.559.125-.634.214-1.265.264-1.907.016-.203.017-.414.06-.613.012-.054.071-.149.068-.196-.005-.101-.071-.16-.076-.244a3.93 3.93 0 0 0-.169.146zM29.227 28.026c0 2.165 1.918 3.92 4.284 3.92s4.284-1.755 4.284-3.92z" opacity=".49" style="fill:var(--color4, #e7502f)"/><path fill="#b45661" d="M36.448 24.594c1.06-.071 2.244.711 2.756 1.526.412.657.343 1.519.088 2.217-.17.467-.543 1.133-1.163 1.139-.777.008-.814-.87-.829-1.383-.02-.682-.114-1.277-.702-1.742-.073-.057-.149-.111-.225-.165-.068-.048-.135-.095-.2-.146l-.031-.024c-.208-.16-.426-.328-.453-.591-.038-.382.197-.451.557-.38.012.002.043.013.086.028.184.064.576.2.501.037-.028-.061-.13-.11-.259-.146-.333-.033-.73-.072-.844-.049-1.232.247-1.712 1.809-1.839 2.801a8.795 8.795 0 0 0-.035.322h-.226c.016-.26.037-.519.084-.776.182-.983.749-2.426 1.995-2.586.046-.006.215-.007.42.004a.806.806 0 0 1 .32-.087z" opacity=".49" style="fill:var(--color3, #b45661)"/><path fill="#b45661" d="M10.46 9.471c.247-.322.704-1.139 1.051-1.254.224-.074.158.692.161.838.011.565-.049 1.127-.124 1.687-.134 1.011-.571 1.911-1.171 2.771-.309.443-.671.891-1.172 1.167-.231.127-.509.148-.737.258-.266.128-.121.024-.241.278-.166.351-.219.805-.296 1.18-.353 1.722-1.208 10.823-1.06 12.574a.118.118 0 0 1-.235.003c-.063-1.005.48-7.963.754-10.238s.551-4.286.829-5.073c.337-.955.947-2.104 1.454-2.994.236-.414.492-.813.785-1.196z" opacity=".25" style="fill:var(--color3, #b45661)"/><path fill="#f1f447" d="M12.29 20.631c.642-.431 1.336.382.756.814-.321.238-.657.154-.846-.045-.123.137-.237.28-.348.401-.336.368-.654.745-.957 1.131-.631.801-1.171 1.648-1.736 2.479a52.452 52.452 0 0 0-1.616 2.486c-.428.713-.999 1.551-1.146 2.332.222-1.657 1.066-3.249 2.072-4.71.997-1.449 2.141-3.031 3.685-4.174-.157-.211-.161-.513.137-.713z" opacity=".25" style="fill:var(--color2, #f1f447)"/><path fill="#b45661" d="M.112 16.591c.359.064.946.807 1.242 1.091.352.337.671.695.972 1.071a17.929 17.929 0 0 1 1.72 2.566 22.643 22.643 0 0 1 1.913 4.556c.286.975.471 1.985.58 2.988.021.189.237 1.648-.075 1.687-.281.035-.194-1.108-.208-1.263-.153-1.754-.612-3.461-1.251-5.114-.139-.36-.268-.801-.491-1.125-.16-.233-.001-.152-.283-.24-.242-.076-.517-.057-.764-.15-.538-.202-.968-.593-1.345-.987-.733-.766-1.314-1.594-1.617-2.575-.168-.544-.322-1.091-.408-1.652-.022-.145-.216-.894.015-.852z" opacity=".25" style="fill:var(--color3, #b45661)"/><path fill="#e7502f" d="M1.53 4.223c1.353 2.146 2.464 4.504 3.182 6.893.435 1.447.739 2.932 1.041 4.406.468 2.282.91 4.565 1.036 6.888.127 2.336.377 5.031-.459 7.282.418-2.285.02-4.717-.05-7.016a38.184 38.184 0 0 0-.259-3.275c-.124-1.058-.327-2.112-.516-3.162-.092-.511-.189-1.022-.287-1.532-.029-.152-.042-.604-.147-.708s-.648-.147-.819-.224a4.388 4.388 0 0 1-.95-.607c-.547-.445-1.023-1.027-1.398-1.6C1.035 10.241.688 8.622.705 7.085c.003-.298.528-3.511.317-3.555a.672.672 0 0 0 .036-.042c.159.244.316.49.471.737z" opacity=".25" style="fill:var(--color4, #e7502f)"/><path fill="#e7502f" d="M16.13 11.965c.021-.028.157-.219.088-.207.139-.025-.192.211.156.066-.165.142-.07.327-.067.519.003.311-.053.62-.117.924a5.944 5.944 0 0 1-.471 1.397 6.402 6.402 0 0 1-2.248 2.524c-.475.301-.94.404-1.481.542-.342.088-.369.249-.551.553a32.287 32.287 0 0 0-1.082 1.916c-.398.78-.784 1.562-1.149 2.356-1.228 2.675-2.227 5.447-2.751 8.316-.013-1.69.415-3.432.954-5.043.393-1.174.904-2.306 1.449-3.426.132-.272.332-.62.389-.92.039-.21-.081-.412-.136-.633-.214-.861-.199-1.826-.011-2.692.208-.955.808-1.398 1.824-1.533.371-.049.844-.031 1.184-.176.371-.158.524-.676.735-1.009a13.918 13.918 0 0 1 2.013-2.506c.214-.209.444-.401.689-.58.154-.113.48-.251.584-.39z" opacity=".25" style="fill:var(--color4, #e7502f)"/><path fill="#f1f447" d="M4.451 29.354c-.026-.162.111-.308.29-.308h3.605c.179 0 .316.146.29.308l-.279 1.728c-.085.527-.579.917-1.161.917H5.891c-.582 0-1.076-.39-1.161-.917l-.279-1.728z" opacity=".25" style="fill:var(--color2, #f1f447)"/><path fill="#f58b3d" d="M1.492 29.93c0 1.143.099 2.07 1.422 2.07s1.422-.927 1.422-2.07z" style="fill:var(--color1, #f58b3d)"/><path fill="#f58b3d" d="M3.307 29.217a2.258 2.258 0 0 0-.13.234 2.988 2.988 0 0 1 .036-.496c.046-.286.117-.571.183-.855.048-.204.045-.571.225-.734.05-.035.061.034.061.064.001.006 0-.122-.048-.1-.286.135-.378.56-.47.772-.134.31-.247.628-.294.951a2.023 2.023 0 0 0-.02.244l-.029-.065a4.385 4.385 0 0 0-.665-1.018c-.068-.078-.928-.852-.995-.734a.087.087 0 0 0 .042.043c.001.001.001 0 .001-.001.05.075.194.19.239.255.113.164.2.339.289.51.188.362.362.727.531 1.094.039.085.08.17.122.255-.431-.569-1.006-1.085-1.797-1.38.27.126.447.362.63.544.22.219.452.431.673.649.26.258.566.529.816.814.242.466.478.932.623 1.421-.06-.169-.005-.403-.015-.58a3.53 3.53 0 0 0-.051-.421.794.794 0 0 1 .069.185 9.438 9.438 0 0 0-.037-.294c.035-.091.069-.176.092-.246.118-.359.258-.712.449-1.057.177-.318.379-.633.6-.938l.311-.425c.068-.093.132-.241.227-.33-.611.511-1.278 1.026-1.666 1.639zM40.356 5.894c-.175-.534-.586-.953-1.013-1.336-.831-.746-1.277-1.207-1.574-2.299-.174-.642-.351-1.322-.904-1.788-.402-.339-1.094-.624-1.632-.381-.827.452-1.05 1.379-.966 2.209.103 1.029.629 1.664 1.638 2.043.569.213.947.495 1.255.986.247.392.391.884.701 1.24.464.532 1.044.768 1.76.68-.67-1.128-1.453-2.267-2.398-3.217-.088-.095-.61-.461-.505-.624.116-.179.651.494.647.49.274.288.528.595.778.904l-.002.001c.257.317.512.639.761.965.101.138.199.278.294.421.138.21.358.806.584.936a.37.37 0 0 0 .135.049c.154.231.304.464.447.7.373.616.693 1.266.84 1.961.043.203.013.962.164 1.108.277.268.196-.248.179-.404-.138-1.289-.644-2.388-1.378-3.472.226-.27.258-.956.187-1.173zM30.878 6.517c.292-.315.993-.368 1.422-.347.531.026 1.076.144 1.581.287.832.235 1.64.665 2.373 1.081.088.05 1.176.649 1.08.754s-1.163-.607-1.401-.729c-.508-.261-.973-.571-1.533-.744a5.95 5.95 0 0 0-1.802-.245c-.078.001-.333-.049-.339.057-.005.104.417.05.491.05.307.003.617.029.92.078a4.572 4.572 0 0 1 1.588.558c-.136.289-.461.422-.802.35-.295-.062-.583-.216-.871-.261a1.438 1.438 0 0 0-.591.039c-.509.135-.802.412-1.362.22-.439-.151-1.172-.694-.753-1.146zM29.623 1.449c-.648-.043-1.371.43-1.684.922-.252.397-.21.918-.054 1.34.104.282.332.685.711.689.474.005.497-.526.506-.836.012-.413.07-.772.429-1.053.044-.035.091-.067.137-.1.041-.029.083-.058.122-.088l.019-.015c.127-.097.26-.198.277-.357.023-.231-.12-.272-.34-.229-.007.001-.026.008-.053.017-.112.038-.352.121-.306.022.017-.037.079-.066.158-.088.204-.02.446-.043.516-.029.753.149 1.046 1.093 1.124 1.693.009.068.016.136.022.204h.138c-.01-.16-.022-.32-.052-.479-.111-.594-.458-1.466-1.219-1.563a2.175 2.175 0 0 0-.256.002.496.496 0 0 0-.196-.052z" style="fill:var(--color1, #f58b3d)"/></symbol>
<symbol id="icon-error-icon" viewBox="0 0 32 32">
<path d="M0 16c0-8.838 7.162-16 16-16s16 7.162 16 16c0 8.837-7.163 16-16 16s-16-7.163-16-16zM10.938 13.006l2.944 2.938-2.944 2.994c-0.581 0.588-0.581 1.538 0 2.069 0.588 0.637 1.537 0.637 2.069 0l2.938-2.888 2.994 2.888c0.588 0.637 1.538 0.637 2.069 0 0.637-0.531 0.637-1.481 0-2.069l-2.888-2.994 2.888-2.938c0.637-0.531 0.637-1.481 0-2.069-0.531-0.581-1.481-0.581-2.069 0l-2.994 2.944-2.938-2.944c-0.531-0.581-1.481-0.581-2.069 0-0.581 0.588-0.581 1.537 0 2.069z"></path>
</symbol>
<symbol id="icon-correct-icon" viewBox="0 0 32 32">
<path d="M0 16c0-8.838 7.162-16 16-16s16 7.162 16 16c0 8.837-7.163 16-16 16s-16-7.163-16-16zM23.237 13.238c0.681-0.681 0.681-1.794 0-2.475s-1.794-0.681-2.475 0l-6.763 6.762-2.763-2.762c-0.681-0.681-1.794-0.681-2.475 0s-0.681 1.794 0 2.475l4 4c0.681 0.681 1.794 0.681 2.475 0l8-8z"></path>
</symbol>
<symbol id="icon-tel-icon" viewBox="0 0 32 32">
<path d="M26.332 6.267l-3.347-3.344c-0.409-0.409-0.955-0.638-1.534-0.638s-1.125 0.226-1.534 0.638l-3.605 3.598c-0.409 0.409-0.638 0.958-0.638 1.537 0 0.581 0.226 1.125 0.638 1.537l2.816 2.819c-0.642 1.495-1.563 2.852-2.715 4-1.153 1.16-2.502 2.074-3.998 2.721l-2.816-2.819c-0.409-0.408-0.955-0.638-1.534-0.638-0.285-0.001-0.568 0.055-0.831 0.164s-0.502 0.271-0.703 0.473l-3.608 3.598c-0.409 0.408-0.638 0.958-0.638 1.537 0 0.581 0.226 1.125 0.638 1.537l3.344 3.344c0.698 0.698 1.659 1.097 2.646 1.097 0.204 0 0.402-0.016 0.603-0.050 4.161-0.685 8.291-2.9 11.625-6.232 3.331-3.337 5.544-7.466 6.235-11.63 0.198-1.182-0.198-2.398-1.047-3.249zM25.15 9.143c-0.613 3.705-2.605 7.401-5.607 10.402s-6.694 4.993-10.4 5.606c-0.465 0.078-0.943-0.078-1.282-0.415l-3.284-3.284 3.482-3.485 3.793 3.799 0.679-0.251c2.058-0.757 3.928-1.952 5.478-3.503s2.745-3.42 3.501-5.479l0.251-0.679-3.797-3.793 3.482-3.485 3.284 3.284c0.339 0.339 0.497 0.817 0.418 1.282z"></path>
</symbol>
<symbol id="icon-hero-button" viewBox="0 0 32 32">
<path d="M11.079 18.921c-0.090 0.056-0.118 0.175-0.061 0.266s0.175 0.118 0.266 0.061l-0.204-0.327zM21.177 12.999c0.024-0.104-0.041-0.207-0.144-0.231l-1.69-0.39c-0.104-0.024-0.207 0.041-0.231 0.144s0.041 0.207 0.144 0.231l1.503 0.347-0.347 1.503c-0.024 0.104 0.041 0.207 0.144 0.231s0.207-0.041 0.231-0.144l0.39-1.69zM11.283 19.248l9.809-6.129-0.204-0.327-9.809 6.129 0.204 0.327z"></path>
<path d="M28.663 17.119c0.009-0.15 0.038-0.291 0.087-0.422 0.052-0.131 0.112-0.233 0.181-0.306l0.188 0.122c-0.060 0.071-0.114 0.163-0.162 0.276-0.046 0.113-0.072 0.233-0.080 0.36-0.010 0.173 0.009 0.299 0.058 0.379 0.051 0.079 0.122 0.122 0.212 0.127 0.067 0.004 0.12-0.015 0.16-0.057 0.042-0.039 0.074-0.093 0.096-0.161 0.025-0.068 0.047-0.144 0.065-0.229s0.040-0.169 0.063-0.254c0.023-0.082 0.054-0.157 0.093-0.224 0.041-0.067 0.094-0.121 0.159-0.161 0.065-0.038 0.149-0.054 0.253-0.048 0.099 0.006 0.187 0.039 0.262 0.099s0.132 0.144 0.169 0.253c0.040 0.111 0.056 0.244 0.046 0.399-0.007 0.118-0.030 0.235-0.069 0.351-0.037 0.116-0.083 0.211-0.138 0.284l-0.191-0.119c0.060-0.078 0.104-0.162 0.133-0.253 0.031-0.091 0.049-0.183 0.054-0.275 0.009-0.164-0.012-0.287-0.066-0.369-0.051-0.079-0.12-0.122-0.208-0.127-0.069-0.004-0.125 0.014-0.166 0.053-0.042 0.042-0.076 0.096-0.103 0.164-0.025 0.070-0.047 0.147-0.066 0.229-0.019 0.085-0.041 0.168-0.067 0.25-0.024 0.084-0.055 0.16-0.093 0.227-0.037 0.070-0.087 0.124-0.152 0.162-0.063 0.040-0.144 0.058-0.243 0.052-0.106-0.006-0.197-0.042-0.272-0.106-0.073-0.062-0.128-0.151-0.165-0.267-0.035-0.113-0.048-0.25-0.039-0.409z"></path>
<path d="M30.209 19.497c-0.031 0.145-0.086 0.265-0.166 0.362-0.078 0.099-0.18 0.167-0.306 0.204-0.127 0.039-0.276 0.040-0.448 0.003l-1.035-0.222 0.052-0.241 1.011 0.217c0.188 0.040 0.339 0.023 0.455-0.051 0.117-0.072 0.194-0.193 0.23-0.362 0.027-0.127 0.025-0.243-0.007-0.349-0.030-0.103-0.088-0.192-0.174-0.264-0.084-0.070-0.194-0.12-0.33-0.149l-0.936-0.201 0.052-0.241 2.517 0.54-0.052 0.241-1.225-0.263 0.102-0.028c0.117 0.084 0.198 0.196 0.244 0.336 0.048 0.14 0.054 0.297 0.017 0.469z"></path>
<path d="M27.766 21.145c0.067-0.163 0.163-0.295 0.289-0.395 0.128-0.098 0.271-0.158 0.43-0.18 0.161-0.021 0.325 0.002 0.492 0.071 0.169 0.069 0.302 0.168 0.4 0.295s0.157 0.27 0.177 0.429c0.020 0.158-0.004 0.32-0.071 0.485-0.068 0.167-0.165 0.3-0.291 0.398-0.126 0.101-0.269 0.161-0.427 0.181-0.159 0.022-0.323-0.001-0.492-0.071-0.167-0.068-0.3-0.167-0.4-0.295-0.099-0.125-0.159-0.269-0.18-0.43-0.019-0.16 0.005-0.323 0.072-0.488zM27.969 21.228c-0.050 0.122-0.067 0.241-0.053 0.357 0.017 0.117 0.064 0.222 0.14 0.316 0.078 0.097 0.182 0.172 0.312 0.226 0.133 0.054 0.26 0.074 0.381 0.059 0.12-0.013 0.227-0.056 0.319-0.128 0.094-0.071 0.166-0.167 0.215-0.287s0.065-0.238 0.048-0.355c-0.015-0.116-0.060-0.222-0.136-0.318s-0.18-0.171-0.312-0.226c-0.131-0.054-0.258-0.073-0.381-0.059-0.121 0.015-0.229 0.059-0.323 0.13-0.092 0.072-0.162 0.167-0.21 0.285z"></path>
<path d="M26.715 23.19c0.084-0.133 0.19-0.234 0.319-0.303 0.131-0.068 0.274-0.098 0.43-0.090 0.157 0.011 0.32 0.070 0.488 0.176s0.29 0.227 0.366 0.362c0.078 0.137 0.113 0.278 0.106 0.424s-0.053 0.286-0.139 0.421c-0.093 0.147-0.209 0.257-0.348 0.33-0.139 0.077-0.289 0.11-0.45 0.102-0.159-0.008-0.316-0.060-0.471-0.158-0.157-0.099-0.272-0.218-0.348-0.359s-0.109-0.291-0.102-0.45c0.006-0.157 0.056-0.31 0.148-0.456zM26.662 22.045l2.11 1.331-0.126 0.2-0.464-0.293-0.295-0.215-0.33-0.167-1.027-0.648 0.132-0.208zM26.909 23.292c-0.069 0.11-0.106 0.223-0.112 0.34-0.003 0.118 0.024 0.231 0.082 0.339 0.060 0.109 0.149 0.201 0.269 0.276s0.24 0.116 0.362 0.122 0.236-0.018 0.341-0.072c0.105-0.054 0.192-0.136 0.261-0.245s0.106-0.224 0.111-0.344c0.003-0.118-0.024-0.231-0.082-0.339-0.059-0.106-0.148-0.196-0.268-0.272s-0.24-0.117-0.363-0.127c-0.122-0.006-0.236 0.018-0.341 0.072-0.104 0.057-0.191 0.141-0.26 0.25z"></path>
<path d="M25.988 26.966c-0.107 0.102-0.221 0.17-0.342 0.205-0.12 0.038-0.243 0.036-0.368-0.004-0.127-0.039-0.25-0.123-0.372-0.25l-0.729-0.767 0.178-0.17 0.712 0.749c0.132 0.139 0.267 0.21 0.404 0.214 0.137 0.007 0.269-0.050 0.395-0.169 0.094-0.089 0.158-0.187 0.191-0.292 0.034-0.102 0.036-0.208 0.006-0.317-0.030-0.105-0.093-0.208-0.188-0.309l-0.66-0.694 0.178-0.17 1.255 1.32-0.171 0.163-0.344-0.362 0.092 0.041c0.049 0.136 0.053 0.274 0.012 0.415-0.040 0.143-0.123 0.275-0.251 0.396z"></path>
<path d="M23.062 26.937c0.146-0.098 0.3-0.153 0.461-0.166 0.161-0.010 0.313 0.021 0.457 0.091 0.146 0.072 0.269 0.184 0.369 0.334 0.101 0.152 0.157 0.308 0.167 0.469s-0.021 0.312-0.093 0.454c-0.072 0.142-0.182 0.263-0.33 0.362-0.15 0.1-0.305 0.156-0.464 0.168-0.161 0.013-0.313-0.017-0.455-0.088-0.145-0.071-0.267-0.182-0.369-0.334-0.1-0.15-0.156-0.306-0.167-0.469-0.012-0.159 0.019-0.312 0.091-0.457 0.074-0.144 0.185-0.265 0.333-0.364zM23.183 27.119c-0.11 0.073-0.191 0.162-0.243 0.267-0.051 0.107-0.071 0.22-0.060 0.341 0.010 0.124 0.055 0.244 0.133 0.362 0.080 0.119 0.174 0.206 0.283 0.262 0.107 0.056 0.219 0.080 0.336 0.072 0.118-0.006 0.231-0.046 0.339-0.118s0.187-0.161 0.239-0.268c0.052-0.105 0.074-0.218 0.065-0.34s-0.053-0.242-0.133-0.362c-0.078-0.117-0.173-0.205-0.283-0.262-0.109-0.055-0.223-0.079-0.341-0.073-0.117 0.008-0.228 0.048-0.334 0.119z"></path>
<path d="M21.597 27.832l1.332 1.42-0.218 0.090-1.224-1.322 0.099-0.041 0.054 1.807-0.195 0.081-1.234-1.318 0.099-0.041 0.060 1.804-0.208 0.086-0.059-1.947 0.215-0.089 1.172 1.235-0.067 0.028-0.041-1.703 0.215-0.089z"></path>
<path d="M17.898 28.942c0.149-0.022 0.293-0.022 0.431-0.001 0.139 0.024 0.251 0.062 0.336 0.115l-0.082 0.209c-0.081-0.044-0.182-0.078-0.303-0.103-0.12-0.022-0.243-0.024-0.369-0.005-0.172 0.025-0.291 0.070-0.359 0.134-0.067 0.066-0.095 0.144-0.081 0.233 0.010 0.067 0.039 0.115 0.088 0.145 0.047 0.033 0.106 0.053 0.177 0.061 0.072 0.010 0.151 0.016 0.238 0.018s0.174 0.005 0.261 0.011c0.085 0.006 0.165 0.021 0.238 0.046 0.074 0.026 0.137 0.067 0.19 0.123 0.050 0.056 0.083 0.135 0.098 0.238 0.015 0.098 0 0.19-0.043 0.276s-0.115 0.158-0.213 0.217c-0.101 0.062-0.228 0.104-0.381 0.126-0.117 0.017-0.236 0.018-0.357 0.003-0.121-0.013-0.223-0.038-0.306-0.078l0.078-0.211c0.088 0.043 0.18 0.069 0.275 0.079 0.095 0.012 0.189 0.011 0.28-0.003 0.163-0.024 0.278-0.070 0.348-0.139 0.067-0.066 0.095-0.143 0.082-0.23-0.010-0.069-0.039-0.119-0.086-0.152-0.049-0.032-0.11-0.055-0.182-0.068-0.074-0.010-0.153-0.016-0.238-0.018-0.087-0.001-0.173-0.006-0.258-0.015-0.087-0.006-0.168-0.021-0.242-0.045-0.076-0.022-0.139-0.060-0.189-0.116-0.052-0.053-0.086-0.129-0.1-0.227-0.016-0.105 0.001-0.201 0.049-0.288 0.046-0.084 0.122-0.156 0.228-0.216 0.104-0.057 0.235-0.098 0.393-0.121z"></path>
<path d="M15.845 30.938c-0.148-0.001-0.277-0.031-0.388-0.090-0.113-0.056-0.2-0.143-0.262-0.259-0.064-0.116-0.095-0.262-0.094-0.438l0.008-1.058 0.246 0.002-0.008 1.034c-0.001 0.192 0.046 0.337 0.142 0.435 0.094 0.1 0.228 0.151 0.401 0.152 0.13 0.001 0.243-0.025 0.341-0.077 0.095-0.050 0.17-0.125 0.224-0.224 0.052-0.097 0.078-0.215 0.079-0.353l0.007-0.958 0.246 0.002-0.020 2.574-0.246-0.002 0.010-1.252 0.048 0.094c-0.059 0.131-0.152 0.234-0.28 0.306-0.128 0.075-0.28 0.112-0.455 0.111z"></path>
<path d="M13.76 28.885c0.173 0.032 0.322 0.099 0.446 0.201 0.122 0.105 0.21 0.232 0.265 0.384 0.054 0.153 0.065 0.319 0.033 0.496-0.033 0.18-0.102 0.331-0.206 0.453s-0.232 0.209-0.383 0.262c-0.151 0.052-0.314 0.063-0.489 0.031-0.177-0.033-0.327-0.1-0.45-0.202-0.125-0.103-0.213-0.229-0.266-0.38-0.055-0.151-0.066-0.317-0.033-0.496 0.032-0.178 0.101-0.328 0.206-0.453 0.102-0.122 0.23-0.211 0.384-0.265 0.153-0.052 0.317-0.062 0.492-0.030zM13.72 29.1c-0.13-0.024-0.25-0.016-0.36 0.022-0.111 0.041-0.204 0.108-0.28 0.203-0.079 0.096-0.131 0.214-0.156 0.353-0.026 0.141-0.019 0.269 0.021 0.385 0.038 0.115 0.101 0.21 0.191 0.285 0.089 0.077 0.198 0.128 0.325 0.151s0.247 0.014 0.358-0.026c0.111-0.039 0.205-0.105 0.283-0.199s0.13-0.211 0.156-0.352c0.025-0.139 0.018-0.267-0.021-0.385-0.040-0.115-0.105-0.212-0.194-0.29-0.090-0.075-0.197-0.124-0.322-0.147z"></path>
<path d="M11.543 28.277c0.147 0.055 0.268 0.138 0.363 0.249 0.094 0.114 0.152 0.248 0.176 0.402 0.021 0.156-0.003 0.327-0.072 0.514s-0.162 0.331-0.279 0.433c-0.118 0.104-0.249 0.168-0.393 0.191s-0.291 0.007-0.441-0.049c-0.163-0.060-0.294-0.151-0.395-0.272-0.104-0.12-0.168-0.259-0.192-0.419-0.025-0.157-0.006-0.322 0.057-0.493 0.064-0.174 0.158-0.312 0.28-0.414s0.262-0.167 0.419-0.192c0.155-0.026 0.314-0.009 0.477 0.051zM12.653 27.989l-0.868 2.339-0.221-0.082 0.191-0.514 0.149-0.333 0.095-0.357 0.422-1.139 0.231 0.086zM11.484 28.488c-0.121-0.045-0.24-0.058-0.355-0.040-0.116 0.021-0.221 0.071-0.315 0.15-0.094 0.081-0.166 0.188-0.215 0.32s-0.064 0.259-0.045 0.38 0.066 0.227 0.141 0.319c0.075 0.092 0.172 0.16 0.294 0.205s0.241 0.057 0.36 0.037c0.116-0.021 0.221-0.071 0.315-0.15 0.091-0.080 0.161-0.186 0.21-0.318s0.065-0.259 0.049-0.381c-0.019-0.121-0.066-0.227-0.141-0.319-0.077-0.090-0.177-0.158-0.298-0.203z"></path>
<path d="M7.697 28.335c-0.122-0.084-0.212-0.182-0.27-0.293-0.061-0.11-0.085-0.231-0.070-0.361 0.013-0.132 0.069-0.27 0.17-0.414l0.604-0.869 0.202 0.141-0.59 0.849c-0.109 0.158-0.152 0.304-0.128 0.439 0.021 0.136 0.103 0.253 0.246 0.352 0.106 0.074 0.215 0.117 0.325 0.128 0.107 0.012 0.211-0.007 0.311-0.059 0.097-0.051 0.185-0.133 0.265-0.247l0.546-0.787 0.202 0.141-1.039 1.496-0.194-0.135 0.285-0.41-0.022 0.099c-0.123 0.075-0.257 0.107-0.404 0.095-0.148-0.010-0.294-0.065-0.439-0.165z"></path>
<path d="M7.135 25.469c0.125 0.123 0.21 0.263 0.256 0.418 0.042 0.155 0.043 0.311 0.003 0.466-0.041 0.157-0.125 0.3-0.252 0.429-0.128 0.13-0.27 0.216-0.425 0.258s-0.31 0.042-0.464 0.001c-0.154-0.041-0.295-0.125-0.421-0.25-0.129-0.127-0.215-0.267-0.258-0.42-0.045-0.155-0.047-0.31-0.006-0.464 0.040-0.156 0.124-0.299 0.252-0.429 0.127-0.128 0.268-0.215 0.425-0.258 0.153-0.044 0.309-0.045 0.466-0.003 0.156 0.043 0.297 0.127 0.424 0.252zM6.982 25.624c-0.094-0.093-0.197-0.154-0.311-0.184-0.115-0.029-0.23-0.025-0.346 0.010-0.119 0.035-0.228 0.103-0.327 0.204-0.101 0.102-0.167 0.212-0.199 0.33-0.034 0.116-0.034 0.231-0.002 0.344 0.030 0.114 0.092 0.217 0.184 0.308s0.196 0.151 0.311 0.179c0.113 0.030 0.228 0.029 0.346-0.005s0.227-0.101 0.327-0.204c0.099-0.101 0.165-0.211 0.199-0.33 0.032-0.118 0.033-0.234 0.002-0.349-0.032-0.113-0.093-0.214-0.184-0.303z"></path>
<path d="M5.965 24.224l-1.116 1.595-0.133-0.195 1.043-1.469 0.061 0.089-1.757 0.424-0.119-0.175 1.037-1.478 0.061 0.089-1.753 0.43-0.127-0.186 1.894-0.458 0.131 0.192-0.967 1.401-0.041-0.060 1.659-0.39 0.131 0.192z"></path>
<path d="M4.116 20.836c0.052 0.141 0.082 0.281 0.090 0.422 0.005 0.141-0.009 0.259-0.043 0.353l-0.221-0.037c0.026-0.089 0.039-0.195 0.038-0.317-0.003-0.122-0.027-0.243-0.071-0.362-0.060-0.163-0.129-0.27-0.205-0.323-0.079-0.052-0.16-0.063-0.245-0.031-0.063 0.023-0.104 0.062-0.123 0.116-0.022 0.053-0.030 0.115-0.023 0.186 0.005 0.072 0.015 0.151 0.032 0.236s0.031 0.171 0.044 0.258c0.012 0.084 0.013 0.165 0.005 0.242-0.011 0.078-0.037 0.148-0.081 0.211-0.044 0.061-0.115 0.109-0.212 0.145-0.093 0.035-0.186 0.040-0.279 0.015s-0.179-0.079-0.257-0.164c-0.081-0.086-0.149-0.201-0.203-0.347-0.041-0.111-0.067-0.227-0.078-0.349-0.013-0.121-0.009-0.226 0.012-0.316l0.223 0.032c-0.024 0.095-0.031 0.19-0.020 0.285 0.008 0.096 0.029 0.187 0.061 0.274 0.057 0.154 0.126 0.258 0.208 0.312 0.079 0.052 0.159 0.063 0.242 0.033 0.065-0.024 0.109-0.063 0.131-0.115 0.022-0.055 0.031-0.119 0.029-0.192-0.005-0.075-0.016-0.153-0.032-0.236-0.017-0.085-0.030-0.17-0.039-0.256-0.012-0.087-0.014-0.168-0.006-0.246 0.005-0.079 0.030-0.148 0.074-0.209 0.041-0.062 0.108-0.11 0.202-0.145 0.1-0.037 0.197-0.041 0.292-0.012 0.092 0.028 0.178 0.087 0.259 0.178 0.078 0.090 0.144 0.209 0.2 0.359z"></path>
<path d="M1.749 19.281c-0.029-0.145-0.027-0.278 0.008-0.398 0.032-0.122 0.098-0.225 0.199-0.309 0.101-0.086 0.237-0.147 0.409-0.182l1.037-0.21 0.049 0.241-1.013 0.205c-0.188 0.038-0.32 0.114-0.396 0.229-0.079 0.113-0.101 0.254-0.066 0.424 0.026 0.127 0.074 0.233 0.146 0.317 0.069 0.083 0.157 0.141 0.265 0.173 0.105 0.031 0.226 0.032 0.362 0.005l0.939-0.19 0.049 0.242-2.523 0.511-0.049-0.242 1.228-0.249-0.082 0.066c-0.141-0.031-0.26-0.101-0.358-0.211-0.1-0.11-0.168-0.25-0.203-0.423z"></path>
<path d="M3.326 16.821c0.005 0.176-0.030 0.335-0.105 0.478-0.077 0.141-0.184 0.254-0.321 0.338-0.139 0.085-0.299 0.13-0.479 0.134-0.183 0.005-0.344-0.031-0.485-0.108s-0.253-0.184-0.335-0.321c-0.082-0.137-0.126-0.294-0.131-0.472-0.005-0.18 0.030-0.341 0.105-0.482 0.075-0.143 0.181-0.256 0.317-0.338 0.137-0.085 0.296-0.129 0.479-0.134 0.18-0.005 0.342 0.031 0.485 0.108 0.141 0.075 0.254 0.182 0.338 0.321 0.082 0.139 0.126 0.297 0.131 0.476zM3.108 16.827c-0.004-0.132-0.036-0.248-0.096-0.348-0.063-0.1-0.148-0.178-0.256-0.233-0.11-0.057-0.236-0.084-0.377-0.080-0.143 0.004-0.267 0.037-0.372 0.1-0.105 0.061-0.185 0.143-0.24 0.246-0.057 0.103-0.084 0.22-0.081 0.349s0.037 0.244 0.1 0.344c0.061 0.1 0.145 0.179 0.253 0.236s0.234 0.084 0.377 0.080c0.141-0.004 0.265-0.037 0.372-0.1 0.105-0.063 0.186-0.146 0.243-0.25 0.055-0.103 0.081-0.219 0.077-0.346z"></path>
<path d="M3.46 14.509c-0.023 0.156-0.079 0.291-0.169 0.407-0.092 0.115-0.211 0.2-0.357 0.256-0.148 0.053-0.321 0.065-0.517 0.036s-0.357-0.090-0.482-0.183c-0.127-0.093-0.216-0.208-0.268-0.345s-0.067-0.283-0.044-0.441c0.025-0.172 0.087-0.319 0.185-0.443 0.096-0.126 0.219-0.218 0.37-0.275 0.149-0.058 0.314-0.073 0.494-0.046 0.183 0.027 0.338 0.089 0.463 0.187s0.218 0.221 0.275 0.37c0.058 0.146 0.074 0.306 0.049 0.477zM3.972 15.535l-2.468-0.363 0.034-0.233 0.542 0.080 0.357 0.077 0.369 0.019 1.201 0.177-0.036 0.244zM3.241 14.494c0.019-0.128 0.007-0.247-0.035-0.356-0.045-0.109-0.115-0.202-0.212-0.277-0.099-0.075-0.218-0.123-0.358-0.144s-0.266-0.009-0.381 0.035c-0.114 0.044-0.208 0.112-0.283 0.204s-0.121 0.202-0.14 0.33c-0.019 0.128-0.006 0.248 0.038 0.36 0.045 0.109 0.115 0.202 0.212 0.277 0.097 0.073 0.215 0.119 0.355 0.14s0.267 0.010 0.383-0.031c0.114-0.044 0.208-0.112 0.283-0.204 0.072-0.095 0.118-0.206 0.137-0.334z"></path>
<path d="M2.613 10.728c0.058-0.136 0.135-0.244 0.231-0.324 0.095-0.083 0.208-0.13 0.339-0.143 0.132-0.015 0.279 0.012 0.441 0.081l0.975 0.412-0.096 0.227-0.952-0.403c-0.177-0.075-0.329-0.086-0.456-0.035-0.129 0.049-0.227 0.153-0.294 0.313-0.050 0.119-0.070 0.234-0.059 0.344 0.010 0.107 0.050 0.205 0.121 0.292 0.070 0.085 0.168 0.154 0.296 0.208l0.882 0.373-0.096 0.227-1.678-0.71 0.092-0.217 0.46 0.195-0.101-0.001c-0.099-0.105-0.158-0.23-0.176-0.376-0.021-0.147 0.003-0.301 0.072-0.463z"></path>
<path d="M5.302 9.592c-0.095 0.148-0.215 0.259-0.357 0.335-0.143 0.073-0.295 0.105-0.456 0.098-0.162-0.009-0.319-0.062-0.471-0.16-0.153-0.099-0.267-0.22-0.339-0.364s-0.104-0.295-0.095-0.454c0.009-0.159 0.062-0.314 0.159-0.463 0.098-0.152 0.218-0.264 0.359-0.338 0.143-0.076 0.294-0.109 0.453-0.1 0.161 0.007 0.318 0.061 0.471 0.16 0.152 0.098 0.265 0.219 0.339 0.364 0.074 0.141 0.106 0.293 0.098 0.456-0.011 0.161-0.064 0.317-0.161 0.466zM5.119 9.473c0.072-0.111 0.111-0.225 0.117-0.341 0.005-0.118-0.022-0.23-0.080-0.337-0.059-0.11-0.147-0.203-0.266-0.279-0.12-0.078-0.242-0.12-0.364-0.128-0.121-0.009-0.233 0.013-0.337 0.067-0.106 0.053-0.194 0.134-0.264 0.242s-0.108 0.222-0.113 0.34c-0.007 0.117 0.018 0.229 0.075 0.338s0.145 0.201 0.266 0.279c0.119 0.077 0.24 0.119 0.364 0.128 0.122 0.007 0.236-0.016 0.342-0.068 0.104-0.054 0.19-0.135 0.259-0.241z"></path>
<path d="M6.277 8.194l-1.788-0.77 0.164-0.17 1.65 0.723-0.075 0.077-0.771-1.635 0.147-0.152 1.657 0.716-0.075 0.077-0.776-1.63 0.157-0.162 0.832 1.761-0.161 0.167-1.568-0.663 0.051-0.052 0.718 1.545-0.161 0.167z"></path>
<path d="M9.187 5.707c-0.127 0.080-0.259 0.139-0.394 0.175-0.137 0.034-0.255 0.045-0.354 0.031l-0.010-0.224c0.092 0.007 0.198-0.002 0.318-0.029 0.119-0.028 0.232-0.077 0.34-0.145 0.147-0.093 0.238-0.182 0.274-0.267 0.035-0.088 0.028-0.17-0.020-0.246-0.036-0.057-0.082-0.089-0.139-0.097-0.056-0.011-0.119-0.006-0.187 0.016-0.070 0.019-0.145 0.046-0.224 0.080s-0.161 0.066-0.243 0.096c-0.080 0.029-0.159 0.047-0.236 0.055-0.078 0.006-0.153-0.006-0.223-0.035-0.069-0.031-0.131-0.090-0.186-0.178-0.053-0.084-0.077-0.174-0.072-0.27s0.041-0.191 0.107-0.285c0.067-0.097 0.166-0.187 0.297-0.27 0.1-0.063 0.208-0.112 0.325-0.148 0.116-0.038 0.22-0.055 0.311-0.053l0.015 0.225c-0.098-0.004-0.192 0.009-0.283 0.039-0.092 0.028-0.177 0.066-0.255 0.116-0.139 0.088-0.226 0.177-0.262 0.268-0.035 0.088-0.029 0.169 0.018 0.243 0.037 0.059 0.084 0.094 0.14 0.105 0.058 0.010 0.123 0.006 0.194-0.011 0.072-0.021 0.147-0.047 0.224-0.080 0.080-0.034 0.16-0.064 0.242-0.091 0.082-0.030 0.162-0.049 0.239-0.057 0.078-0.011 0.151-0.001 0.22 0.030 0.069 0.027 0.13 0.083 0.184 0.167 0.057 0.090 0.081 0.184 0.072 0.283-0.008 0.095-0.048 0.192-0.121 0.29-0.072 0.094-0.175 0.184-0.31 0.269z"></path>
<path d="M10.256 3.046c0.136-0.059 0.266-0.083 0.391-0.074 0.126 0.006 0.241 0.050 0.344 0.131 0.105 0.080 0.193 0.201 0.263 0.363l0.42 0.972-0.226 0.098-0.41-0.949c-0.076-0.176-0.178-0.29-0.306-0.34-0.127-0.054-0.269-0.046-0.429 0.023-0.119 0.051-0.212 0.121-0.281 0.208-0.067 0.084-0.105 0.183-0.114 0.295-0.008 0.109 0.015 0.228 0.070 0.355l0.38 0.879-0.226 0.098-1.021-2.364 0.226-0.098 0.497 1.15-0.082-0.067c0.001-0.144 0.045-0.275 0.132-0.394 0.087-0.121 0.211-0.216 0.372-0.285z"></path>
<path d="M12.951 4.092c-0.171 0.041-0.334 0.039-0.49-0.004-0.154-0.047-0.286-0.128-0.397-0.244-0.112-0.118-0.188-0.265-0.23-0.441-0.042-0.178-0.040-0.344 0.006-0.497s0.128-0.285 0.245-0.394c0.117-0.109 0.262-0.184 0.435-0.225 0.175-0.042 0.34-0.041 0.493 0.004 0.156 0.044 0.288 0.124 0.396 0.241 0.111 0.116 0.188 0.263 0.23 0.441 0.042 0.176 0.040 0.341-0.006 0.497-0.044 0.153-0.126 0.286-0.244 0.397-0.119 0.109-0.265 0.185-0.438 0.226zM12.9 3.88c0.128-0.031 0.235-0.086 0.321-0.166 0.085-0.082 0.143-0.182 0.175-0.299 0.033-0.12 0.034-0.248 0.001-0.385-0.033-0.139-0.092-0.254-0.175-0.344-0.081-0.090-0.178-0.151-0.29-0.184-0.113-0.035-0.232-0.037-0.358-0.007s-0.232 0.086-0.317 0.168c-0.086 0.080-0.145 0.179-0.179 0.296s-0.034 0.246-0.001 0.385c0.033 0.137 0.091 0.252 0.175 0.344 0.083 0.090 0.181 0.152 0.294 0.187 0.112 0.033 0.231 0.034 0.354 0.005z"></path>
<path d="M15.192 3.749c-0.157 0.010-0.301-0.017-0.433-0.081-0.132-0.066-0.24-0.165-0.324-0.296-0.082-0.134-0.13-0.3-0.142-0.499s0.014-0.368 0.080-0.509c0.065-0.143 0.159-0.254 0.282-0.334s0.264-0.124 0.423-0.134c0.173-0.011 0.33 0.019 0.471 0.089 0.143 0.068 0.258 0.169 0.346 0.305 0.087 0.134 0.136 0.292 0.147 0.474 0.011 0.185-0.018 0.349-0.088 0.492s-0.172 0.259-0.305 0.346c-0.131 0.087-0.284 0.136-0.457 0.146zM14.294 4.461l-0.154-2.49 0.236-0.015 0.034 0.547-0.002 0.365 0.057 0.365 0.075 1.212-0.246 0.015zM15.161 3.532c0.129-0.008 0.243-0.044 0.341-0.108 0.098-0.066 0.174-0.154 0.227-0.264 0.053-0.112 0.076-0.239 0.067-0.38s-0.046-0.263-0.113-0.365c-0.067-0.103-0.153-0.181-0.258-0.234s-0.223-0.077-0.352-0.069c-0.129 0.008-0.244 0.045-0.344 0.112-0.098 0.066-0.174 0.154-0.227 0.264-0.051 0.11-0.072 0.235-0.064 0.376s0.045 0.264 0.11 0.369c0.067 0.103 0.153 0.181 0.258 0.234 0.107 0.051 0.226 0.073 0.355 0.065z"></path>
<path d="M18.801 2.137c0.145 0.028 0.267 0.081 0.365 0.159 0.101 0.076 0.171 0.177 0.21 0.302 0.041 0.126 0.046 0.275 0.012 0.448l-0.202 1.039-0.242-0.047 0.198-1.015c0.037-0.188 0.017-0.34-0.060-0.454-0.074-0.116-0.196-0.19-0.367-0.223-0.127-0.025-0.244-0.020-0.349 0.013-0.103 0.032-0.19 0.091-0.261 0.179-0.069 0.086-0.116 0.197-0.143 0.333l-0.183 0.94-0.242-0.047 0.348-1.788 0.232 0.045-0.096 0.49-0.020-0.099c0.082-0.118 0.192-0.202 0.331-0.25 0.14-0.051 0.296-0.059 0.468-0.026z"></path>
<path d="M20.456 4.527c-0.164-0.063-0.298-0.156-0.402-0.28-0.101-0.125-0.164-0.267-0.19-0.426-0.025-0.161-0.005-0.325 0.060-0.494 0.065-0.171 0.161-0.306 0.286-0.407s0.267-0.163 0.424-0.186c0.158-0.024 0.32-0.004 0.486 0.060 0.168 0.065 0.303 0.159 0.405 0.282 0.104 0.124 0.167 0.265 0.191 0.423 0.026 0.159 0.006 0.323-0.060 0.494-0.065 0.168-0.16 0.304-0.286 0.407-0.123 0.101-0.265 0.165-0.426 0.19-0.16 0.023-0.323 0.002-0.489-0.061zM20.535 4.323c0.123 0.047 0.242 0.062 0.358 0.045 0.117-0.020 0.221-0.069 0.313-0.147 0.095-0.080 0.168-0.186 0.219-0.318 0.051-0.134 0.068-0.261 0.050-0.382-0.016-0.12-0.061-0.225-0.135-0.316-0.073-0.093-0.171-0.162-0.292-0.209s-0.24-0.060-0.356-0.040c-0.116 0.018-0.221 0.065-0.315 0.143s-0.167 0.184-0.218 0.318c-0.051 0.132-0.067 0.259-0.050 0.382 0.018 0.121 0.064 0.228 0.137 0.32 0.074 0.090 0.171 0.158 0.29 0.204z"></path>
<path d="M22.066 5.214l0.391-1.907 0.2 0.126-0.374 1.762-0.091-0.057 1.445-1.086 0.179 0.113-0.365 1.768-0.091-0.057 1.439-1.090 0.191 0.12-1.556 1.172-0.197-0.124 0.332-1.67 0.062 0.039-1.368 1.016-0.197-0.124z"></path>
<path d="M25.095 7.565c-0.104-0.108-0.188-0.225-0.251-0.351-0.061-0.127-0.095-0.241-0.102-0.34l0.217-0.055c0.012 0.092 0.042 0.194 0.093 0.306 0.052 0.111 0.122 0.212 0.21 0.303 0.12 0.125 0.226 0.196 0.318 0.214 0.093 0.016 0.172-0.007 0.237-0.069 0.048-0.047 0.070-0.098 0.067-0.156-0.001-0.057-0.018-0.117-0.053-0.18-0.033-0.064-0.075-0.132-0.124-0.203s-0.097-0.144-0.143-0.219c-0.044-0.073-0.078-0.146-0.101-0.22-0.022-0.076-0.025-0.151-0.011-0.226 0.016-0.073 0.061-0.146 0.136-0.218 0.072-0.069 0.155-0.111 0.25-0.125s0.195 0.001 0.301 0.047c0.109 0.046 0.217 0.125 0.324 0.237 0.082 0.085 0.152 0.181 0.211 0.288 0.060 0.106 0.099 0.204 0.115 0.294l-0.217 0.060c-0.016-0.097-0.048-0.187-0.096-0.269-0.046-0.084-0.101-0.16-0.165-0.226-0.114-0.118-0.219-0.186-0.315-0.202-0.093-0.016-0.171 0.006-0.234 0.067-0.050 0.048-0.075 0.101-0.074 0.158 0.002 0.059 0.019 0.121 0.051 0.187 0.035 0.066 0.076 0.134 0.124 0.203 0.050 0.071 0.096 0.144 0.138 0.218 0.046 0.074 0.081 0.149 0.104 0.223 0.027 0.074 0.032 0.148 0.016 0.221-0.013 0.073-0.055 0.145-0.126 0.214-0.077 0.074-0.164 0.116-0.263 0.128-0.095 0.011-0.198-0.008-0.308-0.060-0.107-0.051-0.216-0.134-0.327-0.249z"></path>
<path d="M27.897 8.046c0.085 0.121 0.136 0.243 0.153 0.368 0.020 0.125 0.001 0.246-0.058 0.363-0.057 0.12-0.157 0.23-0.301 0.331l-0.865 0.61-0.142-0.201 0.845-0.596c0.157-0.111 0.247-0.234 0.27-0.369 0.027-0.135-0.010-0.273-0.11-0.415-0.075-0.106-0.162-0.183-0.261-0.232-0.096-0.048-0.2-0.065-0.312-0.051-0.109 0.014-0.22 0.062-0.333 0.142l-0.783 0.552-0.142-0.201 2.104-1.484 0.142 0.201-1.024 0.722 0.049-0.094c0.141-0.029 0.279-0.012 0.413 0.049 0.136 0.060 0.254 0.162 0.355 0.305z"></path>
<path d="M27.442 10.925c-0.075-0.159-0.107-0.319-0.096-0.48 0.014-0.16 0.066-0.306 0.157-0.439 0.093-0.133 0.221-0.239 0.384-0.316 0.165-0.078 0.328-0.11 0.488-0.096s0.305 0.067 0.436 0.159c0.13 0.092 0.233 0.218 0.31 0.38 0.077 0.163 0.11 0.324 0.098 0.483-0.011 0.161-0.062 0.307-0.154 0.437-0.091 0.132-0.219 0.238-0.384 0.316-0.163 0.077-0.326 0.109-0.488 0.096-0.159-0.012-0.305-0.064-0.439-0.157-0.131-0.094-0.235-0.222-0.311-0.383zM27.64 10.832c0.056 0.119 0.132 0.213 0.228 0.28 0.098 0.066 0.207 0.103 0.328 0.11 0.124 0.008 0.25-0.018 0.377-0.078 0.13-0.061 0.23-0.142 0.301-0.242 0.072-0.098 0.112-0.205 0.12-0.322 0.011-0.118-0.011-0.235-0.067-0.352s-0.132-0.209-0.23-0.275c-0.096-0.067-0.205-0.105-0.327-0.114s-0.248 0.017-0.377 0.078c-0.128 0.060-0.228 0.141-0.3 0.242-0.071 0.1-0.111 0.209-0.122 0.326-0.009 0.117 0.014 0.233 0.068 0.348z"></path>
<path d="M28.235 13.050c-0.042-0.152-0.045-0.298-0.009-0.44 0.038-0.142 0.112-0.268 0.223-0.378 0.114-0.108 0.267-0.189 0.459-0.241s0.363-0.062 0.515-0.026c0.153 0.035 0.282 0.104 0.384 0.207s0.176 0.232 0.218 0.386c0.046 0.167 0.049 0.327 0.010 0.48-0.037 0.154-0.113 0.288-0.228 0.401-0.113 0.113-0.258 0.193-0.434 0.242-0.178 0.049-0.345 0.054-0.5 0.015s-0.288-0.115-0.401-0.228c-0.112-0.111-0.191-0.25-0.237-0.417zM27.353 12.317l2.406-0.662 0.062 0.227-0.529 0.145-0.358 0.073-0.345 0.131-1.171 0.322-0.065-0.238zM28.441 12.975c0.034 0.125 0.093 0.229 0.176 0.312 0.085 0.082 0.187 0.138 0.305 0.168 0.121 0.029 0.249 0.025 0.385-0.012s0.248-0.099 0.334-0.185c0.087-0.086 0.146-0.186 0.177-0.3s0.029-0.234-0.005-0.358c-0.034-0.125-0.094-0.23-0.18-0.314-0.085-0.082-0.187-0.138-0.305-0.168-0.118-0.028-0.245-0.023-0.381 0.015s-0.249 0.098-0.338 0.183c-0.087 0.086-0.146 0.186-0.177 0.3-0.028 0.116-0.025 0.236 0.009 0.361z"></path>
</symbol>
<symbol id="icon-arrow-right" viewBox="0 0 32 32">
<path d="M21.674 14.79l1.203 0.818-22.877 0.001v0.64l22.733-0.001-1.133 0.651 0.319 0.555 2.608-1.498-2.493-1.695-0.36 0.529z"></path>
</symbol>
<symbol id="icon-arrow-left" viewBox="0 0 32 32">
<path d="M10.533 17.384l-1.203-0.818 22.876-0.001v-0.64l-22.733 0.001 1.133-0.651-0.319-0.555-2.608 1.498 2.493 1.695 0.36-0.529z"></path>
</symbol>
<symbol id="icon-close-button" viewBox="0 0 32 32">
<path d="M16 13.738l-11.314-11.314-2.262 2.262 11.314 11.314-11.314 11.314 2.262 2.262 11.314-11.314 11.314 11.314 2.262-2.262-11.314-11.314 11.314-11.314-2.262-2.262-11.314 11.314z"></path>
</symbol>
<symbol id="icon-burger-icon" viewBox="0 0 32 32">
<path d="M4 5.333h24v2.667h-24v-2.667zM12 14.667h16v2.667h-16v-2.667zM4 24h24v2.667h-24v-2.667z"></path>
</symbol>
<symbol id="icon-facebook" viewBox="0 0 32 32">
<path stroke-width="2.2857" stroke-miterlimit="4" stroke-linecap="round" stroke-linejoin="round" d="M24 2.667h-4c-1.768 0-3.464 0.702-4.714 1.953s-1.953 2.946-1.953 4.714v4h-4v5.333h4v10.667h5.333v-10.667h4l1.333-5.333h-5.333v-4c0-0.354 0.14-0.693 0.39-0.943s0.589-0.391 0.943-0.391h4v-5.333z"></path>
</symbol>
<symbol id="icon-instagram" viewBox="0 0 32 32">
<path d="M31.969 9.408c-0.075-1.7-0.35-2.869-0.744-3.882-0.406-1.075-1.032-2.038-1.851-2.838-0.8-0.813-1.769-1.444-2.832-1.844-1.019-0.394-2.182-0.669-3.882-0.744-1.713-0.081-2.257-0.1-6.601-0.1s-4.888 0.019-6.595 0.094c-1.7 0.075-2.869 0.35-3.882 0.744-1.075 0.406-2.038 1.031-2.838 1.85-0.813 0.8-1.444 1.769-1.844 2.832-0.394 1.019-0.669 2.182-0.744 3.882-0.081 1.713-0.1 2.257-0.1 6.601s0.019 4.888 0.094 6.595c0.075 1.7 0.35 2.869 0.744 3.882 0.406 1.075 1.038 2.038 1.85 2.838 0.8 0.813 1.769 1.444 2.832 1.844 1.019 0.394 2.182 0.669 3.882 0.744 1.706 0.075 2.25 0.094 6.595 0.094s4.888-0.019 6.595-0.094c1.7-0.075 2.869-0.35 3.882-0.744 2.151-0.832 3.851-2.532 4.682-4.682 0.394-1.019 0.669-2.182 0.744-3.882 0.075-1.707 0.094-2.251 0.094-6.595s-0.006-4.888-0.081-6.595zM29.087 22.473c-0.069 1.563-0.331 2.407-0.55 2.969-0.538 1.394-1.644 2.5-3.038 3.038-0.563 0.219-1.413 0.481-2.969 0.55-1.688 0.075-2.194 0.094-6.464 0.094s-4.782-0.019-6.464-0.094c-1.563-0.069-2.407-0.331-2.969-0.55-0.694-0.256-1.325-0.663-1.838-1.194-0.531-0.519-0.938-1.144-1.194-1.838-0.219-0.563-0.481-1.413-0.55-2.969-0.075-1.688-0.094-2.194-0.094-6.464s0.019-4.782 0.094-6.464c0.069-1.563 0.331-2.407 0.55-2.969 0.256-0.694 0.663-1.325 1.2-1.838 0.519-0.531 1.144-0.938 1.838-1.194 0.563-0.219 1.413-0.481 2.969-0.55 1.688-0.075 2.194-0.094 6.464-0.094 4.276 0 4.782 0.019 6.464 0.094 1.563 0.069 2.407 0.331 2.969 0.55 0.694 0.256 1.325 0.662 1.838 1.194 0.531 0.519 0.938 1.144 1.194 1.838 0.219 0.563 0.481 1.413 0.55 2.969 0.075 1.688 0.094 2.194 0.094 6.464s-0.019 4.77-0.094 6.458z"></path>
<path d="M16.059 7.783c-4.538 0-8.22 3.682-8.22 8.22s3.682 8.22 8.22 8.22c4.539 0 8.22-3.682 8.22-8.22s-3.682-8.22-8.22-8.22zM16.059 21.335c-2.944 0-5.332-2.388-5.332-5.332s2.388-5.332 5.332-5.332c2.944 0 5.332 2.388 5.332 5.332s-2.388 5.332-5.332 5.332z"></path>
<path d="M26.524 7.458c0 1.060-0.859 1.919-1.919 1.919s-1.919-0.859-1.919-1.919c0-1.060 0.859-1.919 1.919-1.919s1.919 0.859 1.919 1.919z"></path>
</symbol>
<symbol id="icon-logo-desktop" viewBox="0 0 40 32">
<path d="M16.463 31.448v-5.12l-0.132-0.839v-8.563c0-1.971-0.559-3.487-1.677-4.546-1.089-1.059-2.722-1.589-4.899-1.589-1.501 0-2.928 0.25-4.281 0.75s-2.501 1.162-3.443 1.986l-1.412-2.339c1.177-1 2.589-1.766 4.237-2.295 1.648-0.559 3.384-0.839 5.208-0.839 3.001 0 5.311 0.75 6.93 2.251 1.648 1.471 2.472 3.722 2.472 6.753v14.389h-3.001zM8.474 31.669c-1.736 0-3.252-0.28-4.546-0.839-1.265-0.589-2.236-1.383-2.913-2.383-0.677-1.030-1.015-2.207-1.015-3.531 0-1.206 0.28-2.295 0.839-3.266 0.589-1 1.53-1.795 2.825-2.383 1.324-0.618 3.090-0.927 5.297-0.927h7.989v2.339h-7.901c-2.236 0-3.796 0.397-4.679 1.192-0.853 0.794-1.28 1.78-1.28 2.957 0 1.324 0.515 2.383 1.545 3.178s2.472 1.192 4.326 1.192c1.766 0 3.281-0.397 4.546-1.192 1.295-0.824 2.236-2.001 2.825-3.531l0.706 2.163c-0.589 1.53-1.618 2.751-3.090 3.663-1.442 0.912-3.266 1.368-5.473 1.368z"></path>
<path d="M29.44 31.669c-2.413 0-4.531-0.5-6.356-1.501-1.824-1.030-3.251-2.428-4.281-4.193-1.030-1.795-1.545-3.84-1.545-6.135s0.486-4.326 1.457-6.091c1-1.766 2.354-3.149 4.061-4.149 1.736-1.030 3.678-1.545 5.826-1.545 2.178 0 4.105 0.5 5.782 1.501 1.707 0.971 3.046 2.354 4.017 4.149 0.971 1.766 1.457 3.811 1.457 6.135 0 0.147-0.015 0.309-0.044 0.486 0 0.147 0 0.309 0 0.486h-20.171v-2.339h18.494l-1.236 0.927c0-1.677-0.368-3.163-1.103-4.458-0.706-1.324-1.677-2.354-2.913-3.090s-2.663-1.103-4.281-1.103c-1.589 0-3.016 0.368-4.281 1.103s-2.251 1.766-2.957 3.090c-0.706 1.324-1.059 2.84-1.059 4.546v0.486c0 1.766 0.383 3.325 1.148 4.679 0.794 1.324 1.883 2.369 3.266 3.134 1.412 0.736 3.016 1.103 4.811 1.103 1.412 0 2.722-0.25 3.928-0.75 1.236-0.5 2.295-1.265 3.178-2.295l1.766 2.030c-1.030 1.236-2.325 2.177-3.884 2.825-1.53 0.647-3.222 0.971-5.076 0.971z"></path>
<path d="M37.296 3.31h-15.448v-3.31h15.448v3.31z"></path>
</symbol>
<symbol id="icon-logo-mobile" viewBox="0 0 41 32">
<path d="M16.241 31.144v-4.916l-0.219-0.922v-8.384c0-1.785-0.527-3.16-1.58-4.126-1.024-0.995-2.575-1.492-4.653-1.492-1.375 0-2.721 0.234-4.038 0.702-1.317 0.439-2.429 1.039-3.336 1.8l-1.756-3.161c1.2-0.966 2.634-1.697 4.302-2.195 1.697-0.527 3.468-0.79 5.311-0.79 3.19 0 5.648 0.775 7.374 2.326s2.59 3.921 2.59 7.111v14.047h-3.994zM8.604 31.407c-1.727 0-3.248-0.293-4.565-0.878-1.288-0.585-2.283-1.39-2.985-2.414-0.702-1.053-1.054-2.239-1.054-3.556 0-1.258 0.293-2.4 0.878-3.424 0.615-1.024 1.595-1.844 2.941-2.458 1.375-0.615 3.219-0.922 5.531-0.922h7.375v3.029h-7.199c-2.107 0-3.526 0.351-4.258 1.053s-1.097 1.551-1.097 2.546c0 1.141 0.454 2.063 1.361 2.765 0.907 0.673 2.166 1.010 3.775 1.010 1.58 0 2.956-0.351 4.126-1.053 1.2-0.702 2.063-1.727 2.59-3.073l0.834 2.897c-0.556 1.375-1.536 2.473-2.941 3.292-1.405 0.79-3.175 1.185-5.311 1.185z"></path>
<path d="M29.718 31.407c-2.487 0-4.682-0.512-6.584-1.536-1.873-1.024-3.336-2.429-4.39-4.214-1.024-1.785-1.536-3.834-1.536-6.145s0.497-4.36 1.492-6.145c1.024-1.785 2.414-3.175 4.17-4.17 1.785-1.024 3.79-1.536 6.014-1.536 2.253 0 4.243 0.498 5.97 1.492s3.073 2.4 4.038 4.214c0.995 1.785 1.492 3.878 1.492 6.277 0 0.176-0.015 0.38-0.044 0.614 0 0.234-0.015 0.454-0.044 0.659h-19.797v-3.029h17.602l-1.712 1.053c0.029-1.492-0.278-2.824-0.922-3.995s-1.536-2.078-2.678-2.722c-1.112-0.673-2.414-1.010-3.907-1.010-1.463 0-2.765 0.337-3.907 1.010-1.141 0.644-2.034 1.566-2.678 2.765-0.644 1.171-0.966 2.517-0.966 4.038v0.702c0 1.551 0.351 2.941 1.053 4.17 0.732 1.2 1.741 2.136 3.029 2.809s2.765 1.010 4.433 1.010c1.375 0 2.619-0.234 3.731-0.702 1.141-0.468 2.136-1.171 2.985-2.107l2.327 2.721c-1.053 1.229-2.37 2.166-3.951 2.809-1.551 0.644-3.292 0.966-5.224 0.966z"></path>
<path d="M37.311 3.292h-15.364v-3.292h15.364v3.292z"></path>
</symbol>
</defs>
</svg>
